<svg id="_Layer_" data-name="&lt;Layer&gt;" xmlns="http://www.w3.org/2000/svg" viewBox="0 0 110 49.41"><defs><style>.cls-1{fill:#282878;}</style></defs><title>Logo-Conduril</title><path class="cls-1" d="M30.35,49.41A3.51,3.51,0,0,1,29,49.16a3.61,3.61,0,0,1-1.14-.79,2.4,2.4,0,0,1-.68-1.27,14.5,14.5,0,0,1-.13-2.2,13,13,0,0,1,.14-2.19,2.39,2.39,0,0,1,.68-1.29A3.49,3.49,0,0,1,29,40.64a3.81,3.81,0,0,1,2.69,0,3.82,3.82,0,0,1,1.09.77l-1.15,1.14a2.64,2.64,0,0,0-.61-.48,1.57,1.57,0,0,0-.71-.14,1.52,1.52,0,0,0-.62.12,1.36,1.36,0,0,0-.5.36,1.57,1.57,0,0,0-.31.76,9.94,9.94,0,0,0-.1,1.72,10.86,10.86,0,0,0,.09,1.73,1.83,1.83,0,0,0,.42.86,1.29,1.29,0,0,0,1,.37,1.45,1.45,0,0,0,.71-.14,2.19,2.19,0,0,0,.61-.48l1.15,1.15a3.78,3.78,0,0,1-1.09.76A3.36,3.36,0,0,1,30.35,49.41Z"/><path class="cls-1" d="M39.75,48.44a3.33,3.33,0,0,1-1.06.72,3.22,3.22,0,0,1-1.33.25A3.29,3.29,0,0,1,36,49.16a3.37,3.37,0,0,1-1.13-.79,2.34,2.34,0,0,1-.68-1.27,13.29,13.29,0,0,1-.13-2.2,13.23,13.23,0,0,1,.13-2.19,2.46,2.46,0,0,1,.68-1.29A3.56,3.56,0,0,1,36,40.64a3.38,3.38,0,0,1,3.78.78,2.43,2.43,0,0,1,.69,1.3,13.12,13.12,0,0,1,.14,2.18,13.29,13.29,0,0,1-.13,2.2A2.63,2.63,0,0,1,39.75,48.44Zm-1.28-6a1.43,1.43,0,0,0-1.11-.47,1.47,1.47,0,0,0-.64.13,1.52,1.52,0,0,0-.51.37,1.45,1.45,0,0,0-.31.73,11.24,11.24,0,0,0-.08,1.73,13.14,13.14,0,0,0,.07,1.75,1.69,1.69,0,0,0,.42.83,1.33,1.33,0,0,0,1,.38,1.31,1.31,0,0,0,1-.37,1.85,1.85,0,0,0,.42-.88,11,11,0,0,0,.09-1.71,12.75,12.75,0,0,0-.08-1.73A1.67,1.67,0,0,0,38.47,42.41Z"/><path class="cls-1" d="M47.64,49.34l-3.51-5.45v5.45H42.4V40.47h1.54l3.51,5.43V40.47h1.73v8.87Z"/><path class="cls-1" d="M56.78,48.5a2.76,2.76,0,0,1-1,.63,4.06,4.06,0,0,1-1.32.21H51.25V40.47h3.19a3.91,3.91,0,0,1,1.31.21,2.83,2.83,0,0,1,1.11.72,2.32,2.32,0,0,1,.66,1.18,7.48,7.48,0,0,1,.16,1.73v1.12a8,8,0,0,1-.16,1.78A2.58,2.58,0,0,1,56.78,48.5Zm-1.2-5.94a1.55,1.55,0,0,0-.54-.41,1.92,1.92,0,0,0-.76-.13H53V47.8h1.3a1.45,1.45,0,0,0,1.19-.42,1.71,1.71,0,0,0,.41-.91,12.15,12.15,0,0,0,.07-1.6,11.21,11.21,0,0,0-.07-1.54A1.62,1.62,0,0,0,55.58,42.56Z"/><path class="cls-1" d="M62.57,49.41a3.32,3.32,0,0,1-2.33-.86,2.91,2.91,0,0,1-.93-2.25V40.47H61v5.76a1.65,1.65,0,0,0,.41,1.2,1.46,1.46,0,0,0,1.12.43,1.49,1.49,0,0,0,1.12-.42,1.66,1.66,0,0,0,.42-1.21V40.47h1.72V46.3a2.91,2.91,0,0,1-.93,2.25A3.3,3.3,0,0,1,62.57,49.41Z"/><path class="cls-1" d="M72.46,49.34,70.73,45.8H69.49v3.54H67.76V40.47h3.47a2.8,2.8,0,0,1,2.09.78,2.62,2.62,0,0,1,.78,1.93,2.33,2.33,0,0,1-.46,1.48,2.46,2.46,0,0,1-1.16.85l2,3.83ZM71.12,42H69.49v2.32h1.63A1.28,1.28,0,0,0,72,44a1.22,1.22,0,0,0,0-1.69A1.29,1.29,0,0,0,71.12,42Z"/><path class="cls-1" d="M75.9,49.34V40.47h1.72v8.87Z"/><path class="cls-1" d="M79.69,49.34V40.47h1.73V47.8h4v1.54Z"/><path class="cls-1" d="M11.58,37.63H98.42V29H20.26V20.26H110V11.58H11.58ZM8.68,0,0,8.68V40.53l8.68,8.68H24.61V40.53h-13l-2.9-2.9V11.58l2.9-2.9H110V0Zm92.64,37.63-2.9,2.9h-11v8.68h13.9L110,40.53V29h-8.68Z"/></svg>