<svg xmlns="http://www.w3.org/2000/svg" viewBox="0 0 1080 1080"><defs><style>.cls-1,.cls-2{fill:#0b2b6b;}.cls-2{stroke:#0b2b6b;stroke-miterlimit:10;stroke-width:4px;}</style></defs><g id="Camada_3" data-name="Camada 3"><path class="cls-1" d="M912.61,391.31a39.22,39.22,0,0,0-11.11,1.61L588.25,79.66A47.8,47.8,0,0,1,566,104.18L876.76,414.92a39.17,39.17,0,0,0-.36,29.91L565.92,755.32a47.77,47.77,0,0,1,22.29,24.45L900.57,467.41a39,39,0,1,0,12-76.1Zm3.49,60.57a21.16,21.16,0,0,1-3.49.28,21.86,21.86,0,0,1-21.86-21.68v-.17c0-.45,0-.91,0-1.36a21.87,21.87,0,0,1,21.82-20.5,21.35,21.35,0,0,1,5,.59,21.86,21.86,0,0,1,16.25,16.25,22,22,0,0,1,.3,8.51A21.82,21.82,0,0,1,916.1,451.88Z"/><path class="cls-1" d="M545.61,83.76c-.49,0-1,0-1.5,0a20.55,20.55,0,0,1-2.61-.16l2-2Z"/><path class="cls-1" d="M545.47,775.76l-1.6,1.61-.37.36-1.86-1.86a22.44,22.44,0,0,1,2.47-.14C544.56,775.73,545,775.74,545.47,775.76Z"/><path class="cls-1" d="M891.54,429.7l-.79.78v-.17c0-.45,0-.91,0-1.36Z"/><path class="cls-1" d="M545.61,83.76c-.49,0-1,0-1.5,0a20.55,20.55,0,0,1-2.61-.16l2-2Z"/><path class="cls-1" d="M545.47,775.76l-1.6,1.61-.37.36-1.86-1.86a22.44,22.44,0,0,1,2.47-.14C544.56,775.73,545,775.74,545.47,775.76Z"/><path class="cls-1" d="M891.54,429.7l-.79.78v-.17c0-.45,0-.91,0-1.36Z"/><path class="cls-1" d="M550.93,761.73a39.23,39.23,0,0,0-31.62.38l-316-316a39.2,39.2,0,0,0,.39-33.3l309.1-309.1,6.37-6.37a39.06,39.06,0,0,0,31.82.38A39,39,0,1,0,496.55,62a39.64,39.64,0,0,0,1.29,10l-6.79,6.79L178.42,391.42a39,39,0,1,0-1,75.57L491.1,780.65l6.78,6.78a39,39,0,1,0,53-25.7ZM514.81,55A21.87,21.87,0,0,1,535.54,40.1a21.85,21.85,0,0,1,8.42,42l1.65,1.64c-.49,0-1,0-1.5,0a20.55,20.55,0,0,1-2.61-.16l1-1A21.7,21.7,0,0,1,537,83.76c-.49,0-1,0-1.5,0a20.55,20.55,0,0,1-2.61-.16A21.87,21.87,0,0,1,514.81,55Zm-325,377.61a21.86,21.86,0,0,1-43.42-3.56,21.56,21.56,0,0,1,1.06-6.7A21.85,21.85,0,0,1,190,426.61a22.44,22.44,0,0,1,.14,2.47A20.86,20.86,0,0,1,189.83,432.64Zm367,370a21.84,21.84,0,0,1-16.25,16.25,21.29,21.29,0,0,1-5,.59,21.62,21.62,0,0,1-6.71-1.06,21.86,21.86,0,0,1-14.09-14.09,21.61,21.61,0,0,1-1-6.71,21.84,21.84,0,0,1,19.38-21.71,22.44,22.44,0,0,1,2.47-.14c.45,0,.91,0,1.36,0a21.43,21.43,0,0,1,5.8,1.18l-1.06-1.07a22.44,22.44,0,0,1,2.47-.14c.45,0,.91,0,1.36,0l-1.6,1.61a21.87,21.87,0,0,1,13.53,20.21A21.29,21.29,0,0,1,556.81,802.6Z"/><circle class="cls-1" cx="540.44" cy="429.77" r="96.72"/><path class="cls-2" d="M126.64,1049.83c-7,3.49-21,7-38.89,7-41.51,0-72.75-26.22-72.75-74.5C15,936.22,46.24,905,91.9,905c18.35,0,29.93,3.93,35,6.55l-4.59,15.52c-7.21-3.5-17.48-6.12-29.71-6.12C58,920.93,35.1,943,35.1,981.66c0,36.05,20.75,59.21,56.58,59.21,11.58,0,23.38-2.4,31-6.12Z"/><path class="cls-2" d="M158.1,1005.26c.44,26,17,36.7,36.27,36.7,13.76,0,22.07-2.4,29.27-5.46l3.28,13.76c-6.77,3.06-18.35,6.56-35.17,6.56-32.55,0-52-21.41-52-53.31s18.79-57,49.59-57c34.52,0,43.7,30.37,43.7,49.81a72.17,72.17,0,0,1-.66,9Zm56.37-13.76c.22-12.24-5-31.25-26.66-31.25-19.44,0-28,17.92-29.49,31.25Z"/><path class="cls-2" d="M256.85,977.51c0-10.92-.21-19.88-.87-28.62h17l1.09,17.48h.44c5.25-10,17.48-19.88,35-19.88,14.63,0,37.36,8.74,37.36,45v63.13H327.64v-61c0-17-6.34-31.24-24.47-31.24-12.67,0-22.5,9-25.78,19.66a27.74,27.74,0,0,0-1.31,9v63.57H256.85Z"/><path class="cls-2" d="M400.39,918.53v30.36h27.53v14.64H400.39v57c0,13.11,3.72,20.54,14.42,20.54a43.1,43.1,0,0,0,11.15-1.31l.87,14.42c-3.71,1.53-9.61,2.62-17,2.62-9,0-16.17-2.84-20.76-8.09-5.46-5.68-7.42-15.07-7.42-27.52V963.53H365.22V948.89h16.39V923.55Z"/><path class="cls-2" d="M449.55,981.88c0-12.45-.22-23.16-.87-33H465.5l.66,20.76H467c4.81-14.2,16.38-23.16,29.27-23.16a20.71,20.71,0,0,1,5.47.66v18.13a28.77,28.77,0,0,0-6.56-.66c-13.54,0-23.16,10.27-25.78,24.69a54.88,54.88,0,0,0-.87,9v56.36h-19Z"/><path class="cls-2" d="M578.45,1054.63l-1.53-13.32h-.65c-5.9,8.3-17.26,15.73-32.33,15.73-21.41,0-32.34-15.08-32.34-30.37,0-25.56,22.72-39.54,63.58-39.33v-2.18c0-8.74-2.41-24.47-24-24.47a52.64,52.64,0,0,0-27.52,7.87l-4.37-12.68c8.74-5.68,21.41-9.39,34.74-9.39,32.33,0,40.19,22.07,40.19,43.26v39.54c0,9.18.44,18.13,1.75,25.34Zm-2.84-54c-21-.44-44.78,3.28-44.78,23.81,0,12.46,8.3,18.36,18.13,18.36,13.76,0,22.5-8.74,25.56-17.7a19.94,19.94,0,0,0,1.09-6.12Z"/><path class="cls-2" d="M625.87,907.38h19v131.31h62.92v15.94H625.87Z"/><path class="cls-2" d="M749.74,919.18c.22,6.56-4.59,11.8-12.23,11.8a11.43,11.43,0,0,1-11.58-11.8,11.71,11.71,0,0,1,12-12C745.15,907.17,749.74,912.41,749.74,919.18Zm-21.41,135.45V948.89h19.22v105.74Z"/><path class="cls-2" d="M779.45,977.51c0-10.92-.22-19.88-.87-28.62h17l1.09,17.48h.44c5.24-10,17.48-19.88,35-19.88,14.64,0,37.36,8.74,37.36,45v63.13H850.24v-61c0-17-6.34-31.24-24.47-31.24-12.67,0-22.5,9-25.78,19.66a27.47,27.47,0,0,0-1.31,9v63.57H779.45Z"/><path class="cls-2" d="M919.71,997.39h.44c2.62-3.71,6.34-8.3,9.4-12l31-36.49h23.16l-40.86,43.48,46.54,62.26H966L929.55,1004l-9.84,10.92v39.76h-19V899.52h19Z"/><path class="cls-2" d="M1000.55,1035c5.68,3.72,15.73,7.65,25.34,7.65,14,0,20.54-7,20.54-15.73,0-9.18-5.46-14.2-19.66-19.45-19-6.77-28-17.26-28-29.93,0-17,13.77-31,36.49-31,10.7,0,20.1,3.06,26,6.55l-4.81,14a41.08,41.08,0,0,0-21.63-6.12c-11.36,0-17.7,6.55-17.7,14.42,0,8.74,6.34,12.67,20.1,17.91,18.36,7,27.75,16.17,27.75,31.9,0,18.57-14.42,31.68-39.54,31.68-11.58,0-22.29-2.84-29.72-7.21Z"/></g></svg>