<svg xmlns="http://www.w3.org/2000/svg" viewBox="0 0 83.05 60.25"><defs><style>.cls-1{fill:none;stroke:#1d1d1b;stroke-miterlimit:10;}</style></defs><g id="carrinha"><path class="cls-1" d="M53.66,5.19V50H31.27a2.72,2.72,0,0,1-2.6-2.08,2.25,2.25,0,0,0-.08-.24,3.42,3.42,0,0,0-.18-.54l0,0c0-.09-.07-.18-.1-.26a4.87,4.87,0,0,0-.28-.56A7,7,0,0,0,27.17,45a6.77,6.77,0,0,0-.51-.55,7.58,7.58,0,0,0-1.16-1,6,6,0,0,0-.63-.39c-.19-.09-.38-.19-.58-.27L24,42.71h0a3.81,3.81,0,0,0-.57-.19,6.36,6.36,0,0,0-.66-.18l-.17,0a3.85,3.85,0,0,0-.68-.1,5.42,5.42,0,0,0-.81-.05,5.24,5.24,0,0,0-.79.05,3.73,3.73,0,0,0-.67.09,7.6,7.6,0,0,0-2.26.8,5.09,5.09,0,0,0-.63.39,4.39,4.39,0,0,0-.51.37l-.15.13a5.45,5.45,0,0,0-.5.46,4.05,4.05,0,0,0-.49.53,7.36,7.36,0,0,0-.47.63,5.2,5.2,0,0,0-.39.64,7.5,7.5,0,0,0-.58,1.4,1.13,1.13,0,0,0-.08.24A2.73,2.73,0,0,1,11,50H3.78a2.7,2.7,0,0,1-2.7-2.7V5.19a2.7,2.7,0,0,1,2.7-2.7H51A2.69,2.69,0,0,1,53.66,5.19Z"/><path class="cls-1" d="M82,32.49V50H79.13a2.92,2.92,0,0,1-2.85-2.08c0-.08,0-.16-.08-.24a5,5,0,0,0-.21-.58c0-.09-.07-.18-.11-.26a2.26,2.26,0,0,0-.17-.35,6.78,6.78,0,0,0-1.08-1.61,2.76,2.76,0,0,0-.33-.36l-.12-.11a1.93,1.93,0,0,0-.33-.31l-.25-.22a7.81,7.81,0,0,0-1.71-1,1.7,1.7,0,0,0-.35-.14,2.48,2.48,0,0,0-.48-.17,6.36,6.36,0,0,0-.66-.18,6.15,6.15,0,0,0-.86-.13,5.29,5.29,0,0,0-.8-.05,5.42,5.42,0,0,0-.81.05,6.63,6.63,0,0,0-.86.13,5.56,5.56,0,0,0-.65.18,2.35,2.35,0,0,0-.49.17,1.63,1.63,0,0,0-.34.14,7.81,7.81,0,0,0-1.71,1,2.75,2.75,0,0,0-.26.22,2.38,2.38,0,0,0-.33.31l-.11.11a3.82,3.82,0,0,0-.34.36,7.43,7.43,0,0,0-1.08,1.61,3.78,3.78,0,0,0-.17.35c0,.08-.07.17-.1.26a5,5,0,0,0-.21.58,2.25,2.25,0,0,0-.08.24A2.92,2.92,0,0,1,58.35,50H53.66V13.77h8.82V29.71a2.77,2.77,0,0,0,2.78,2.78Z"/><path class="cls-1" d="M82,24v8.47H65.26a2.77,2.77,0,0,1-2.78-2.78V13.77H73a4.1,4.1,0,0,1,3.22,1.56l4.85,6.15A4.1,4.1,0,0,1,82,24Z"/><path class="cls-1" d="M76.2,47.64a5,5,0,0,0-.21-.58c0-.09-.07-.18-.11-.26a1.62,1.62,0,0,0-.17-.35,6.78,6.78,0,0,0-1.08-1.61,2.76,2.76,0,0,0-.33-.36l-.12-.11a1.93,1.93,0,0,0-.33-.31l-.25-.22a7.81,7.81,0,0,0-1.71-1,1.7,1.7,0,0,0-.35-.14,2.48,2.48,0,0,0-.48-.17,6.36,6.36,0,0,0-.66-.18,6.15,6.15,0,0,0-.86-.13,5.29,5.29,0,0,0-.8-.05,5.42,5.42,0,0,0-.81.05,6.63,6.63,0,0,0-.86.13,5.56,5.56,0,0,0-.65.18,2.35,2.35,0,0,0-.49.17,1.63,1.63,0,0,0-.34.14,7.81,7.81,0,0,0-1.71,1,2.75,2.75,0,0,0-.26.22,2.38,2.38,0,0,0-.33.31l-.11.11a3.82,3.82,0,0,0-.34.36,7.43,7.43,0,0,0-1.08,1.61,2.26,2.26,0,0,0-.17.35c0,.08-.07.17-.1.26a5,5,0,0,0-.21.58A7.81,7.81,0,1,0,76.55,50,8.09,8.09,0,0,0,76.2,47.64Zm-7.46,7.83A5.51,5.51,0,1,1,74.25,50,5.52,5.52,0,0,1,68.74,55.47Z"/><path class="cls-1" d="M74.25,50a5.52,5.52,0,1,1-5.51-5.51A5.52,5.52,0,0,1,74.25,50Z"/><path class="cls-1" d="M26.65,50a5.51,5.51,0,1,1-5.52-5.51A5.52,5.52,0,0,1,26.65,50Z"/><path class="cls-1" d="M28.59,47.64q-.07-.27-.18-.54l0,0a.82.82,0,0,0-.1-.26,4.87,4.87,0,0,0-.28-.56A7.54,7.54,0,0,0,27.17,45c-.17-.2-.34-.38-.51-.55a7.58,7.58,0,0,0-1.16-1l-.63-.39c-.19-.09-.38-.19-.58-.27a2.72,2.72,0,0,0-.25-.11h0a3.81,3.81,0,0,0-.57-.19,6.36,6.36,0,0,0-.66-.18l-.17,0a3.85,3.85,0,0,0-.68-.1,5.51,5.51,0,0,0-.81-.05,5.24,5.24,0,0,0-.79.05,3.73,3.73,0,0,0-.67.09,7.6,7.6,0,0,0-2.26.8c-.22.13-.44.26-.63.39s-.35.24-.51.37l-.15.13c-.17.14-.34.3-.5.46a4.88,4.88,0,0,0-.49.53,7.36,7.36,0,0,0-.47.63c-.13.2-.27.41-.39.64a7.5,7.5,0,0,0-.58,1.4,7.81,7.81,0,1,0,14.9,0Zm-7.46,7.83A5.51,5.51,0,1,1,26.65,50,5.51,5.51,0,0,1,21.13,55.47Z"/></g></svg>