<svg xmlns="http://www.w3.org/2000/svg" viewBox="0 0 130.7 145"><defs><style>.cls-1{fill:#1d1d1b;}</style></defs><g id="shopee"><path class="cls-1" d="M90.18,15a42.1,42.1,0,0,1,4.46,9.33,38.71,38.71,0,0,1,1.9,10.27c0,.75.31.89,1,.89q14,0,28.05,0c2.08,0,3.19,1,3.11,3.11-.25,5.84-.56,11.68-.85,17.52q-.7,14.17-1.4,28.34T125,112.84c-.31,6.31-.58,12.62-.92,18.92A12.89,12.89,0,0,1,111.21,144q-9.93,0-19.84,0l-1,0-1,0Q54,144,18.65,144c-5.08,0-8.7-2.52-11-6.88a14.91,14.91,0,0,1-1.48-6.6,45.38,45.38,0,0,0-.33-6,16.68,16.68,0,0,1,0-2c-.15-3-.26-5.94-.4-8.92-.11-2.45-.21-4.9-.34-7.35-.14-2.65-.22-5.31-.36-8-.12-2.43-.2-4.85-.32-7.27-.15-2.71-.24-5.42-.37-8.14-.12-2.42-.2-4.84-.33-7.26-.15-2.68-.23-5.36-.37-8-.13-2.48-.22-5-.33-7.44-.29-7.17-.64-14.34-1-21.5a2.82,2.82,0,0,1,3-3.15c9.38,0,18.77,0,28.15,0,.75,0,1-.19,1-.94a43.77,43.77,0,0,1,1.14-7.7A34.13,34.13,0,0,1,39,17.49c3.5-6,8.12-10.82,14.46-13.83A26.91,26.91,0,0,1,67,1c8.32.54,15,4.29,20.48,10.47C88.41,12.6,89.27,13.82,90.18,15ZM64.47,53.23c-6.09.07-11.72,1.91-16.26,6.52a16.13,16.13,0,0,0-2.88,18.73,20.11,20.11,0,0,0,9.43,8.66,101.69,101.69,0,0,0,12.16,4.8A29.33,29.33,0,0,1,77.8,97.72a11.18,11.18,0,0,1,4,7.13c.55,5-1.84,9.15-6.54,11.5a23,23,0,0,1-16.24,1.53A34.12,34.12,0,0,1,46,111.31c-1.25-1-1.44-1-2.32.33-.72,1.06-1.4,2.15-2.18,3.17-.5.67-.4,1.09.22,1.6,9,7.29,19.18,10.17,30.59,8.15a19.36,19.36,0,0,0,13.1-8.09c4.31-6.24,5.65-17-3.12-23.91a46.35,46.35,0,0,0-8.41-4.94A105.64,105.64,0,0,0,62.74,83.3a26,26,0,0,1-8.92-5,9.71,9.71,0,0,1-1.64-12.76A12.81,12.81,0,0,1,59,60.45c4.15-1.44,8.32-1,12.49-.09a30.1,30.1,0,0,1,10,4.29c1,.64,1.21.58,1.81-.36s1.18-1.87,1.77-2.81c.77-1.24.7-1.58-.56-2.38A37.9,37.9,0,0,0,64.47,53.23Zm.89-17.77c7.25,0,14.5,0,21.76,0,.75,0,.93-.2.88-.92a34.49,34.49,0,0,0-.57-4.32C86.05,23.67,83.09,18,77.77,13.8A19.15,19.15,0,0,0,63.53,9.46c-5.94.59-10.64,3.53-14.35,8.09a29.71,29.71,0,0,0-6.46,17.28c0,.76.38.62.8.62Z"/></g></svg>