<svg xmlns="http://www.w3.org/2000/svg" viewBox="0 0 150 150"><defs><style>.cls-1{fill:#1d1d1b;}</style></defs><g id="_" data-name="@"><path class="cls-1" d="M106.46,138.33c-11.31,6-22.82,8.22-36.6,8.22-33.72,0-62.3-24.67-62.3-64.15C7.56,40.05,37,3.45,82.61,3.45c35.77,0,59.83,25.08,59.83,59.42,0,30.84-17.27,48.93-36.6,48.93-8.22,0-15.83-5.55-15.21-18.09H89.8c-7.19,12.13-16.65,18.09-29,18.09-11.92,0-22.2-9.66-22.2-25.9,0-25.5,20.15-48.73,48.73-48.73a54.18,54.18,0,0,1,22,4.32l-7,37.21c-3.09,15.63-.62,22.82,6.16,23,10.49.2,22.21-13.78,22.21-37.63,0-29.81-17.89-51.19-49.76-51.19-33.51,0-61.68,26.52-61.68,68.26,0,34.34,22.41,55.51,52.84,55.51,11.72,0,22.62-2.46,31.05-7.19ZM95.15,49.5a35.87,35.87,0,0,0-10.28-1.43c-18.09,0-32.69,17.06-32.69,37,0,9.05,4.52,15.63,13.57,15.63,11.92,0,22.82-15.21,25.08-28Z"/></g></svg>