<svg xmlns="http://www.w3.org/2000/svg" viewBox="0 0 150 105.08"><defs><style>.cls-1{fill:#1d1d1b;}</style></defs><g id="mail"><path class="cls-1" d="M146,21.15v63a12.7,12.7,0,0,1-3.87,9.14l-52-48,51.3-33.88A12.67,12.67,0,0,1,146,21.15Z"/><path class="cls-1" d="M137.44,7.42,86.14,41.3,75,48.64l0,0L63.86,41.3,12.56,7.42a12.69,12.69,0,0,1,8.19-3h108.5A12.69,12.69,0,0,1,137.44,7.42Z"/><path class="cls-1" d="M59.86,45.3l-52,48A12.7,12.7,0,0,1,4,84.14v-63a12.67,12.67,0,0,1,4.53-9.73Z"/><path class="cls-1" d="M138.1,97.28a12.69,12.69,0,0,1-8.85,3.58H20.75a12.69,12.69,0,0,1-8.85-3.58l52-48L75,56.62l0,0L86.14,49.3Z"/></g></svg>