<svg xmlns="http://www.w3.org/2000/svg" viewBox="0 0 83.05 78.37"><defs><style>.cls-1,.cls-4{fill:none;}.cls-1,.cls-2,.cls-4{stroke:#1d1d1b;}.cls-1,.cls-2{stroke-miterlimit:10;}.cls-3{fill:#1d1d1b;}</style></defs><g id="presente"><rect class="cls-1" x="12.23" y="31.57" width="22.21" height="45.69"/><rect class="cls-1" x="48.6" y="31.57" width="22.21" height="45.69"/><rect class="cls-1" x="9.51" y="18.68" width="24.93" height="12.9"/><rect class="cls-2" x="34.44" y="18.68" width="14.16" height="58.58"/><path class="cls-3" d="M48.71,1.11C43.42,1.11,40.5,5.53,38.2,10a55.61,55.61,0,0,0-3.89-5.39,7.18,7.18,0,0,0-4.94-1.82c-4.92,0-9,4.35-9,10.58a13.59,13.59,0,0,0,1,5.29h2.87a5.65,5.65,0,0,1-1.87-4.44c0-3.38,2.19-6.63,7.29-6.63,3.59,0,5.73,1.77,7.54,4.3-1.48,3-2.66,5.37-4.32,6.77h6.54c.15-.26.31-.52.46-.8l.46.8h2.49A12.4,12.4,0,0,1,40.93,16c2.36-5.27,4.74-9.62,9.6-9.62,4.44,0,7.11,2.67,7.11,7a8.21,8.21,0,0,1-1.8,5.29h3.3a16.55,16.55,0,0,0,.58-4.5C59.72,8,55.82,1.11,48.71,1.11Z"/><rect class="cls-4" x="48.6" y="18.68" width="24.93" height="12.9"/></g></svg>