<svg xmlns="http://www.w3.org/2000/svg" viewBox="0 0 150 150"><defs><style>.cls-1{fill:#1d1d1b;}</style></defs><g id="marketplace"><path class="cls-1" d="M31.73,54.21a.89.89,0,0,0,0-.14.78.78,0,0,0,0,.14Z"/><path class="cls-1" d="M60.77,54.21h-.05a.78.78,0,0,0,0-.14A.39.39,0,0,0,60.77,54.21Z"/><path class="cls-1" d="M89.66,54.7h0s0-.08,0-.12A.57.57,0,0,0,89.66,54.7Z"/><path class="cls-1" d="M118.72,55.4h0a.35.35,0,0,0,0-.14A.68.68,0,0,0,118.72,55.4Z"/><path class="cls-1" d="M131,65.46a12,12,0,0,1-10.54-6.11A11.94,11.94,0,0,1,110,65.46h-9.11A11.9,11.9,0,0,1,90,58.72a12,12,0,0,1-10.22,5.55H70.69a11.94,11.94,0,0,1-10.53-6.11,12,12,0,0,1-10.54,6.11h-9.1A12,12,0,0,1,30,58.16a11.94,11.94,0,0,1-10.53,6.11H11v72.18H75v-33h30.33v33h33.64v-71ZM61,109.72H26.84V88.21H61Z"/><path class="cls-1" d="M119.92,13.55V54a9.76,9.76,0,0,1-.07,1.22.7.7,0,0,1,0,.14,10.08,10.08,0,0,1-.62,2.4h0a10.2,10.2,0,0,1-9.47,6.42H101a10.17,10.17,0,0,1-9.68-7,9.54,9.54,0,0,1-.49-2.52.57.57,0,0,1,0-.13v0A9.4,9.4,0,0,0,91,52.85V13.55Z"/><path class="cls-1" d="M29.68,13.55v39.3a9.76,9.76,0,0,1-.07,1.22.39.39,0,0,1,0,.14,9.21,9.21,0,0,1-.64,2.41A10.15,10.15,0,0,1,19.49,63H10.75A10.2,10.2,0,0,1,.55,52.84a20.85,20.85,0,0,1,.88-6l9.94-33.26Z"/><path class="cls-1" d="M59.74,13.55v39.3a9.76,9.76,0,0,1-.07,1.22.89.89,0,0,1,0,.14A9.21,9.21,0,0,1,59,56.62,10.17,10.17,0,0,1,49.55,63H40.8a10.19,10.19,0,0,1-9.46-6.42,9.6,9.6,0,0,1-.63-2.41.39.39,0,0,1,0-.14,9.74,9.74,0,0,0,.08-1.22V13.55Z"/><path class="cls-1" d="M89.8,13.55v39.3a9.4,9.4,0,0,1-.15,1.69v0s0,.08,0,.12a9.77,9.77,0,0,1-.8,2.45h0A10.14,10.14,0,0,1,79.59,63H70.86a10.18,10.18,0,0,1-9.46-6.41h0a9.2,9.2,0,0,1-.63-2.41.39.39,0,0,1,0-.14,9.76,9.76,0,0,0,.07-1.22V13.55Z"/><path class="cls-1" d="M149.45,53.43V54a10.19,10.19,0,0,1-10.19,10.19H131a10.2,10.2,0,0,1-9.47-6.43,10.09,10.09,0,0,1-.63-2.4.68.68,0,0,1,0-.14A9.76,9.76,0,0,0,121,54V13.55h17.64l9.77,32.68A25,25,0,0,1,149.45,53.43Z"/></g></svg>