<svg xmlns="http://www.w3.org/2000/svg" viewBox="0 0 150 150"><defs><style>.cls-1{fill:#1d1d1b;}</style></defs><g id="Whatsapp"><path class="cls-1" d="M108.32,90a11.17,11.17,0,0,1,.13,1.55,12.66,12.66,0,0,1-11.14,12.52c-28.71,3-52.29-18-52.66-46.86A12.66,12.66,0,0,1,55.79,44.69a10.81,10.81,0,0,1,5.89,1.05l2.91,16.79a12.71,12.71,0,0,1-7,4.58A36.18,36.18,0,0,0,86,92.33a12.59,12.59,0,0,1,3.73-7.44l17,.94A10.22,10.22,0,0,1,108.32,90Z"/><path class="cls-1" d="M126.21,6.47H23.79A17.8,17.8,0,0,0,6,24.26V126.68a17.79,17.79,0,0,0,17.79,17.79H126.21A17.79,17.79,0,0,0,144,126.68V24.26A17.8,17.8,0,0,0,126.21,6.47ZM75,127.54a52.24,52.24,0,0,1-28.28-8.25c0-.16-19.63,5.42-19.63,5.42L32.56,106A52.54,52.54,0,1,1,75,127.54Z"/></g></svg>