<svg xmlns="http://www.w3.org/2000/svg" viewBox="0 0 150 150"><defs><style>.cls-1{fill:#1d1d1b;}</style></defs><g id="X"><path class="cls-1" d="M126.21,6H23.79A17.8,17.8,0,0,0,6,23.79V126.21A17.8,17.8,0,0,0,23.79,144H126.21A17.8,17.8,0,0,0,144,126.21V23.79A17.8,17.8,0,0,0,126.21,6ZM93.63,119.78l-25.71-35-32.44,35H27.32L64.11,79.59,27.32,29.52H55.48L80,62.24l30-32.72h9.21l-35.21,38h0l39.17,52.27Z"/><polygon class="cls-1" points="123.1 119.78 83.93 67.51 83.94 67.51 123.1 119.78"/><polygon class="cls-1" points="110.47 113.72 97.31 113.72 72.26 80.1 68.4 74.91 68.39 74.91 39.68 36.36 52.85 36.36 75.65 66.98 79.56 72.22 79.56 72.23 110.47 113.72"/></g></svg>