<svg xmlns="http://www.w3.org/2000/svg" viewBox="0 0 150 150"><defs><style>.cls-1{fill:none;stroke:#1d1d1b;stroke-miterlimit:10;stroke-width:3px;}.cls-2{fill:#1d1d1b;}</style></defs><g id="chats"><path class="cls-1" d="M46.07,90.23a27,27,0,0,0,6,8.15l-27.87,18.9V93.86A26.93,26.93,0,0,1,6,68.39v-19A26.94,26.94,0,0,1,32.91,22.5H79.67a26.8,26.8,0,0,1,21.07,10.22H70.33a26.93,26.93,0,0,0-26.9,26.92v19A26.79,26.79,0,0,0,46.07,90.23Z"/><path class="cls-2" d="M43.43,59.64v19a26.79,26.79,0,0,0,2.64,11.63l-11.7,7.94v-13H32.91A16.76,16.76,0,0,1,16.13,68.39v-19A16.78,16.78,0,0,1,32.91,32.63H79.67a16.37,16.37,0,0,1,1.72.09H70.33A26.93,26.93,0,0,0,43.43,59.64Z"/><path class="cls-1" d="M117.09,32.72H70.33a26.93,26.93,0,0,0-26.9,26.92v19a26.92,26.92,0,0,0,26.9,26.9h23l32.43,22V104.08A27,27,0,0,0,144,78.6v-19A26.93,26.93,0,0,0,117.09,32.72ZM133.87,78.6a16.77,16.77,0,0,1-16.78,16.78h-1.46v13l-19.19-13H70.33a16.37,16.37,0,0,1-1.72-.09,16.76,16.76,0,0,1-15-16.69v-19A16.77,16.77,0,0,1,70.33,42.85h46.76a16.77,16.77,0,0,1,16.78,16.79Z"/><path class="cls-2" d="M133.87,59.64v19a16.77,16.77,0,0,1-16.78,16.78h-1.46v13l-19.19-13H70.33a16.37,16.37,0,0,1-1.72-.09,16.76,16.76,0,0,1-15-16.69v-19A16.77,16.77,0,0,1,70.33,42.85h46.76A16.77,16.77,0,0,1,133.87,59.64Z"/></g></svg>