<svg xmlns="http://www.w3.org/2000/svg" viewBox="0 0 150 150"><defs><style>.cls-1{fill:#1d1d1b;}.cls-2{fill:none;}</style></defs><g id="Instagram"><path class="cls-1" d="M126.21,6H23.79A17.79,17.79,0,0,0,6,23.79V126.21A17.79,17.79,0,0,0,23.79,144H126.21A17.8,17.8,0,0,0,144,126.21V23.79A17.8,17.8,0,0,0,126.21,6Zm-.56,89.2a29.47,29.47,0,0,1-29.47,29.47H53.82A29.48,29.48,0,0,1,24.35,95.2V52.84A29.47,29.47,0,0,1,53.82,23.38H96.18a29.46,29.46,0,0,1,29.47,29.46Z"/><path class="cls-2" d="M62,97.09,61.9,97,61.8,97a25.69,25.69,0,0,1-3.18-2.15c-.24-.18-.47-.37-.69-.55A25.93,25.93,0,0,1,55,91.43c-.28-.32-.56-.65-.83-1l-.3-.38c-.25-.32-.5-.66-.74-1-.35-.51-.69-1-1-1.56-.19-.32-.38-.65-.56-1s-.28-.53-.42-.81c-.3-.59-.57-1.2-.82-1.82s-.49-1.25-.69-1.89c-.1-.32-.2-.64-.29-1s-.12-.43-.17-.65-.11-.41-.15-.62a26.67,26.67,0,0,1-.66-5.9c0-.63,0-1.25.07-1.87,0-.31,0-.62.08-.93s.06-.61.11-.91.05-.37.08-.55c.12-.76.27-1.5.46-2.23q.08-.34.18-.69c.08-.29.16-.57.25-.85s.18-.56.28-.84.18-.52.28-.77c.2-.51.41-1,.64-1.5.13-.29.26-.57.4-.84s.43-.83.66-1.23.47-.8.72-1.19.69-1,1-1.52.75-1,1.15-1.44c.2-.24.41-.47.62-.69a27.13,27.13,0,0,1,2.44-2.35c.31-.26.63-.51,1-.76s.89-.66,1.35-1l.55-.35c.39-.25.78-.5,1.18-.72l-.93.55-.56.35-.1.06c-.22.14-.43.29-.64.44s-.49.35-.73.53-.43.33-.64.51-.51.4-.76.62l-.55.49c-.49.44-1,.9-1.4,1.38-.15.15-.29.3-.43.46l-.65.75c-.21.25-.41.5-.61.76s-.28.35-.4.53-.26.35-.38.53A26.23,26.23,0,0,0,49.8,65a5.05,5.05,0,0,0-.18.55c-.21.63-.39,1.27-.55,1.92-.07.29-.14.58-.2.87s-.11.53-.15.8c-.1.52-.17,1-.23,1.59,0,.24-.05.47-.07.71s0,.35-.05.52,0,.56,0,.85,0,.66,0,1,0,.71,0,1.06l0,.61c0,.2,0,.4,0,.6.05.64.13,1.28.23,1.92,0,.25.08.49.13.74a24,24,0,0,0,.56,2.37c.08.29.16.58.26.86s.17.54.27.8c0,.09.06.19.1.28a.42.42,0,0,0,0,.1c.09.24.18.48.28.72a25.64,25.64,0,0,0,1.82,3.63c.18.3.37.6.56.9a28.45,28.45,0,0,0,2.16,2.85l.62.69c.19.2.37.4.57.59a26,26,0,0,0,2.41,2.15q.53.42,1.08.81t1,.69l.22.15.45.27.3.17a5.5,5.5,0,0,0,.48.28c.26.15.53.3.8.43l0,0h0l.84.41c-.47-.23-.93-.47-1.38-.71Zm2.43-47.72c.67-.29,1.36-.55,2.06-.79A21.34,21.34,0,0,0,64.43,49.37Zm3.93,40c-.22-.09-.43-.19-.65-.3s-.48-.24-.71-.37-.73-.42-1.08-.65-.68-.47-1-.72a6.25,6.25,0,0,1-.5-.4,16.23,16.23,0,0,1-1.75-1.67,17.57,17.57,0,0,1-1.31-1.65.22.22,0,0,1-.05-.08q-.22-.31-.42-.63c-.1-.16-.2-.32-.29-.49s-.15-.26-.22-.39-.16-.29-.23-.44A13.59,13.59,0,0,1,59.47,80c-.08-.2-.15-.4-.22-.6L59.1,79c-.06-.19-.11-.38-.16-.57s-.09-.33-.13-.5-.1-.42-.14-.62l0-.15c0-.19-.07-.39-.09-.58a16.36,16.36,0,0,1,0-5.1c0-.19.06-.39.09-.58l0-.15c0-.21.09-.41.14-.62s.08-.33.13-.5.1-.38.16-.57l.15-.44c.07-.2.14-.4.22-.6a13.59,13.59,0,0,1,.67-1.51c.09-.2.2-.39.3-.57s.29-.51.44-.75.25-.4.39-.59.3-.44.47-.66c.29-.39.6-.76.92-1.12.18-.2.37-.39.56-.58s.35-.35.54-.52l.36-.32a.16.16,0,0,1,.08-.06l.21-.19.14-.11.36-.29.58-.42a14.81,14.81,0,0,0-1.88,1.49l-.56.54a6.92,6.92,0,0,0-.53.56l-.45.53a.28.28,0,0,0-.07.09c-.16.19-.31.39-.45.58a14.77,14.77,0,0,0-1.13,1.74h0c-.16.3-.32.6-.47.91-.07.16-.15.31-.22.47a5.16,5.16,0,0,0-.21.49c-.13.32-.25.65-.36,1s-.2.62-.28.94a14.54,14.54,0,0,0-.45,2.2c0,.3-.07.6-.09.91s0,.84,0,1.26A16.69,16.69,0,0,0,70,90C69.46,89.79,68.91,89.58,68.36,89.34ZM66.81,59.49s0,0-.07,0a1.49,1.49,0,0,0-.24.14.1.1,0,0,0-.07.05l-.37.23-.38.25-.19.14c.26-.18.53-.37.8-.53ZM70.29,58c.49-.15,1-.27,1.5-.38A12.67,12.67,0,0,0,70.29,58ZM91.75,73.27c0-.12,0-.25,0-.37l0-.38c0-.25,0-.49-.08-.74l-.09-.63c-.1-.52-.21-1-.35-1.53l-.09-.32L91,68.9a2.25,2.25,0,0,0-.08-.24l-.15-.42c0-.11-.08-.22-.13-.33a16.18,16.18,0,0,0-1.75-3.32l-.09-.13-.16-.22-.38-.51c-.4-.5-.82-1-1.26-1.43q-.45-.45-.93-.87l-.49-.4a6.12,6.12,0,0,0-.5-.39c-.34-.26-.69-.5-1-.73s-.67-.41-1-.59l-.09,0c-.31-.17-.64-.33-1-.47l.69.34q.33.16.66.36c.22.12.44.25.65.39l.5.32a16.43,16.43,0,0,1,1.32,1c.2.16.38.33.57.5a16.74,16.74,0,0,1,2.91,3.52c.12.19.24.39.35.6s.25.44.36.67a17.61,17.61,0,0,1,.81,1.89c.06.18.13.36.18.54s.18.59.26.89l.12.51.12.56a5.81,5.81,0,0,1,.09.58,16.36,16.36,0,0,1,0,5.1,5.81,5.81,0,0,1-.09.58l-.12.56-.12.51c-.08.3-.17.6-.26.89l-.18.54c-.06.17-.12.34-.19.5s-.15.38-.24.57a16.69,16.69,0,0,1-3.9,5.51l-.32.29a12.51,12.51,0,0,1-1,.81c-.17.14-.35.27-.52.39a17,17,0,0,1-2.66,1.52l-.7.3-.72.27-.29.09c-.1,0-.2.07-.3.09l.46-.13h0A16.68,16.68,0,0,0,91.77,74C91.77,73.78,91.76,73.52,91.75,73.27Zm-12,16.78,0,0a4.13,4.13,0,0,1-.5.15Zm21.81-17.42c0-.4,0-.8-.08-1.19s-.06-.68-.11-1a1.38,1.38,0,0,0,0-.2c0-.23-.06-.45-.1-.67s-.07-.46-.12-.69a2.07,2.07,0,0,0,0-.22c-.06-.32-.13-.64-.2-1l-.08-.32c-.08-.31-.16-.62-.25-.93l-.06-.18c-.07-.27-.16-.54-.25-.81s-.16-.48-.25-.71a.9.9,0,0,0-.08-.21c-.08-.24-.17-.47-.27-.7s-.15-.38-.24-.57-.21-.49-.33-.74-.33-.68-.5-1-.36-.67-.55-1-.38-.65-.59-1-.41-.63-.62-.94A25.79,25.79,0,0,0,94,55.15c-.26-.27-.53-.53-.8-.78s-.38-.36-.58-.52-.3-.27-.45-.39-.5-.42-.76-.62l-.67-.51-.23-.17-.63-.43c-.46-.31-.93-.61-1.41-.88q-.28-.18-.57-.33c-.12-.07-.24-.14-.37-.2s-.46-.25-.7-.36-.58-.28-.88-.42l-.71-.3c-.17-.08-.35-.15-.52-.21-.32-.13-.64-.24-1-.35s-.77-.26-1.17-.38-.74-.21-1.12-.3-.86-.21-1.29-.29c-.81-.16-1.64-.28-2.48-.36a26.62,26.62,0,0,1,0,53c.84-.08,1.67-.2,2.48-.36.43-.08.86-.18,1.29-.29s.75-.19,1.12-.3.64-.19,1-.3l.55-.2c.27-.09.54-.19.8-.3h0c.37-.15.73-.3,1.09-.47s.71-.33,1.06-.51l.07,0c.35-.18.69-.36,1-.56l.88-.52.28-.18.79-.52a.71.71,0,0,0,.14-.1c.29-.2.59-.42.88-.64l.06,0c.27-.2.54-.41.8-.63l.15-.13c.2-.16.39-.33.58-.5a25.42,25.42,0,0,0,2-2c.51-.56,1-1.14,1.44-1.73s.9-1.23,1.3-1.87c.2-.31.4-.63.58-1s.35-.62.52-.94a.3.3,0,0,0,0-.08c.17-.33.34-.66.49-1s.25-.54.37-.82.13-.3.19-.46.22-.55.32-.83.21-.56.29-.84.16-.47.23-.7l.09-.32c.09-.29.17-.57.23-.86l.09-.35c.07-.29.14-.59.19-.89a2.56,2.56,0,0,0,0-.27,6.71,6.71,0,0,0,.13-.76c0-.29.1-.58.13-.87s.08-.63.1-.94.07-.79.08-1.19,0-.81,0-1.21S101.6,73,101.58,72.63Z"/><path class="cls-2" d="M66.29,59.8c-.27.16-.54.35-.8.53l.19-.14.38-.25.37-.23a.1.1,0,0,1,.07-.05,1.49,1.49,0,0,1,.24-.14s.05,0,.07,0Z"/><path class="cls-2" d="M70,90A16.69,16.69,0,0,1,58.28,74c0-.42,0-.84,0-1.26s.05-.61.09-.91a14.54,14.54,0,0,1,.45-2.2c.08-.32.17-.63.28-.94s.23-.66.36-1a5.16,5.16,0,0,1,.21-.49c.07-.16.15-.31.22-.47.15-.31.31-.61.47-.91h0a14.77,14.77,0,0,1,1.13-1.74c.14-.19.29-.39.45-.58a.28.28,0,0,1,.07-.09l.45-.53a6.92,6.92,0,0,1,.53-.56l.56-.54a14.81,14.81,0,0,1,1.88-1.49l-.58.42-.36.29-.14.11-.21.19a.16.16,0,0,0-.08.06l-.36.32c-.19.17-.37.34-.54.52s-.38.38-.56.58c-.32.36-.63.73-.92,1.12-.17.22-.33.44-.47.66s-.27.39-.39.59-.3.49-.44.75-.21.37-.3.57A13.59,13.59,0,0,0,59.47,68c-.08.2-.15.4-.22.6l-.15.44c-.06.19-.11.38-.16.57s-.09.33-.13.5-.1.41-.14.62l0,.15c0,.19-.07.39-.09.58a16.36,16.36,0,0,0,0,5.1c0,.19.06.39.09.58l0,.15c0,.2.09.41.14.62s.08.33.13.5.1.38.16.57l.15.44c.07.2.14.4.22.6a13.59,13.59,0,0,0,.67,1.51c.07.15.15.3.23.44s.14.26.22.39.19.33.29.49.27.42.42.63a.22.22,0,0,0,.05.08,17.57,17.57,0,0,0,1.31,1.65,16.23,16.23,0,0,0,1.75,1.67,6.25,6.25,0,0,0,.5.4c.33.25.66.49,1,.72s.71.45,1.08.65.47.25.71.37.43.21.65.3C68.91,89.58,69.46,89.79,70,90Z"/><path class="cls-2" d="M71.79,57.62c-.51.11-1,.23-1.5.38A12.67,12.67,0,0,1,71.79,57.62Z"/><path class="cls-2" d="M101.58,72.63c0-.4,0-.8-.08-1.19s-.06-.68-.11-1a1.38,1.38,0,0,0,0-.2c0-.23-.06-.45-.1-.67s-.07-.46-.12-.69a2.07,2.07,0,0,0,0-.22c-.06-.32-.13-.64-.2-1l-.08-.32c-.08-.31-.16-.62-.25-.93l-.06-.18c-.07-.27-.16-.54-.25-.81s-.16-.48-.25-.71a.9.9,0,0,0-.08-.21c-.08-.24-.17-.47-.27-.7s-.15-.38-.24-.57-.21-.49-.33-.74-.33-.68-.5-1-.36-.67-.55-1-.38-.65-.59-1-.41-.63-.62-.94A25.79,25.79,0,0,0,94,55.15c-.26-.27-.53-.53-.8-.78s-.38-.36-.58-.52-.3-.27-.45-.39-.5-.42-.76-.62l-.67-.51-.23-.17-.63-.43c-.46-.31-.93-.61-1.41-.88q-.28-.18-.57-.33c-.12-.07-.24-.14-.37-.2s-.46-.25-.7-.36-.58-.28-.88-.42l-.71-.3c-.17-.08-.35-.15-.52-.21-.32-.13-.64-.24-1-.35s-.77-.26-1.17-.38-.74-.21-1.12-.3-.86-.21-1.29-.29c-.81-.16-1.64-.28-2.48-.36a26.62,26.62,0,0,1,0,53c.84-.08,1.67-.2,2.48-.36.43-.08.86-.18,1.29-.29s.75-.19,1.12-.3.64-.19,1-.3l.55-.2c.27-.09.54-.19.8-.3h0c.37-.15.73-.3,1.09-.47s.71-.33,1.06-.51l.07,0c.35-.18.69-.36,1-.56l.88-.52.28-.18.79-.52a.71.71,0,0,0,.14-.1c.29-.2.59-.42.88-.64l.06,0c.27-.2.54-.41.8-.63l.15-.13c.2-.16.39-.33.58-.5a25.42,25.42,0,0,0,2-2c.51-.56,1-1.14,1.44-1.73s.9-1.23,1.3-1.87c.2-.31.4-.63.58-1s.35-.62.52-.94a.3.3,0,0,0,0-.08c.17-.33.34-.66.49-1s.25-.54.37-.82.13-.3.19-.46.22-.55.32-.83.21-.56.29-.84.16-.47.23-.7l.09-.32c.09-.29.17-.57.23-.86l.09-.35c.07-.29.14-.59.19-.89a2.56,2.56,0,0,0,0-.27,6.71,6.71,0,0,0,.13-.76c0-.29.1-.58.13-.87s.08-.63.1-.94.07-.79.08-1.19,0-.81,0-1.21S101.6,73,101.58,72.63Z"/><path class="cls-2" d="M71.79,57.62c-.51.11-1,.23-1.5.38A12.67,12.67,0,0,1,71.79,57.62Z"/><path class="cls-2" d="M66.29,59.8c-.27.16-.54.35-.8.53l.19-.14.38-.25.37-.23a.1.1,0,0,1,.07-.05,1.49,1.49,0,0,1,.24-.14s.05,0,.07,0Z"/><path class="cls-2" d="M70,90A16.69,16.69,0,0,1,58.28,74c0-.42,0-.84,0-1.26s.05-.61.09-.91a14.54,14.54,0,0,1,.45-2.2c.08-.32.17-.63.28-.94s.23-.66.36-1a5.16,5.16,0,0,1,.21-.49c.07-.16.15-.31.22-.47.15-.31.31-.61.47-.91h0a14.77,14.77,0,0,1,1.13-1.74c.14-.19.29-.39.45-.58a.28.28,0,0,1,.07-.09l.45-.53a6.92,6.92,0,0,1,.53-.56l.56-.54a14.81,14.81,0,0,1,1.88-1.49l-.58.42-.36.29-.14.11-.21.19a.16.16,0,0,0-.08.06l-.36.32c-.19.17-.37.34-.54.52s-.38.38-.56.58c-.32.36-.63.73-.92,1.12-.17.22-.33.44-.47.66s-.27.39-.39.59-.3.49-.44.75-.21.37-.3.57A13.59,13.59,0,0,0,59.47,68c-.08.2-.15.4-.22.6l-.15.44c-.06.19-.11.38-.16.57s-.09.33-.13.5-.1.41-.14.62l0,.15c0,.19-.07.39-.09.58a16.36,16.36,0,0,0,0,5.1c0,.19.06.39.09.58l0,.15c0,.2.09.41.14.62s.08.33.13.5.1.38.16.57l.15.44c.07.2.14.4.22.6a13.59,13.59,0,0,0,.67,1.51c.07.15.15.3.23.44s.14.26.22.39.19.33.29.49.27.42.42.63a.22.22,0,0,0,.05.08,17.57,17.57,0,0,0,1.31,1.65,16.23,16.23,0,0,0,1.75,1.67,6.25,6.25,0,0,0,.5.4c.33.25.66.49,1,.72s.71.45,1.08.65.47.25.71.37.43.21.65.3C68.91,89.58,69.46,89.79,70,90Z"/><path class="cls-2" d="M101.58,72.63c0-.4,0-.8-.08-1.19s-.06-.68-.11-1a1.38,1.38,0,0,0,0-.2c0-.23-.06-.45-.1-.67s-.07-.46-.12-.69a2.07,2.07,0,0,0,0-.22c-.06-.32-.13-.64-.2-1l-.08-.32c-.08-.31-.16-.62-.25-.93l-.06-.18c-.07-.27-.16-.54-.25-.81s-.16-.48-.25-.71a.9.9,0,0,0-.08-.21c-.08-.24-.17-.47-.27-.7s-.15-.38-.24-.57-.21-.49-.33-.74-.33-.68-.5-1-.36-.67-.55-1-.38-.65-.59-1-.41-.63-.62-.94A25.79,25.79,0,0,0,94,55.15c-.26-.27-.53-.53-.8-.78s-.38-.36-.58-.52-.3-.27-.45-.39-.5-.42-.76-.62l-.67-.51-.23-.17-.63-.43c-.46-.31-.93-.61-1.41-.88q-.28-.18-.57-.33c-.12-.07-.24-.14-.37-.2s-.46-.25-.7-.36-.58-.28-.88-.42l-.71-.3c-.17-.08-.35-.15-.52-.21-.32-.13-.64-.24-1-.35s-.77-.26-1.17-.38-.74-.21-1.12-.3-.86-.21-1.29-.29c-.81-.16-1.64-.28-2.48-.36a26.62,26.62,0,0,1,0,53c.84-.08,1.67-.2,2.48-.36.43-.08.86-.18,1.29-.29s.75-.19,1.12-.3.64-.19,1-.3l.55-.2c.27-.09.54-.19.8-.3h0c.37-.15.73-.3,1.09-.47s.71-.33,1.06-.51l.07,0c.35-.18.69-.36,1-.56l.88-.52.28-.18.79-.52a.71.71,0,0,0,.14-.1c.29-.2.59-.42.88-.64l.06,0c.27-.2.54-.41.8-.63l.15-.13c.2-.16.39-.33.58-.5a25.42,25.42,0,0,0,2-2c.51-.56,1-1.14,1.44-1.73s.9-1.23,1.3-1.87c.2-.31.4-.63.58-1s.35-.62.52-.94a.3.3,0,0,0,0-.08c.17-.33.34-.66.49-1s.25-.54.37-.82.13-.3.19-.46.22-.55.32-.83.21-.56.29-.84.16-.47.23-.7l.09-.32c.09-.29.17-.57.23-.86l.09-.35c.07-.29.14-.59.19-.89a2.56,2.56,0,0,0,0-.27,6.71,6.71,0,0,0,.13-.76c0-.29.1-.58.13-.87s.08-.63.1-.94.07-.79.08-1.19,0-.81,0-1.21S101.6,73,101.58,72.63Z"/><path class="cls-2" d="M68.36,89.34c-.22-.09-.43-.19-.65-.3s-.48-.24-.71-.37-.73-.42-1.08-.65-.68-.47-1-.72c-.17-.13-.34-.26-.5-.4a16.23,16.23,0,0,1-1.75-1.67,17.57,17.57,0,0,1-1.31-1.65.22.22,0,0,1-.05-.08q-.22-.31-.42-.63c-.1-.16-.2-.32-.29-.49s-.15-.26-.22-.39-.16-.29-.23-.44A13.59,13.59,0,0,1,59.47,80c-.08-.2-.15-.4-.22-.6L59.1,79c-.06-.19-.11-.38-.16-.57s-.09-.33-.13-.5-.1-.42-.14-.62l0-.15c0-.19-.07-.39-.09-.58a16.36,16.36,0,0,1,0-5.1c0-.19.06-.39.09-.58l0-.15c0-.21.09-.41.14-.62s.08-.33.13-.5.1-.38.16-.57l.15-.44c.06-.2.14-.4.22-.6a13.59,13.59,0,0,1,.67-1.51c.09-.2.2-.39.3-.57s.29-.51.44-.75.25-.4.39-.59.3-.44.47-.66c.29-.39.6-.76.92-1.12.18-.2.37-.39.56-.58s.36-.36.54-.52l.36-.32a.16.16,0,0,1,.08-.06l.21-.19.14-.11.36-.29.58-.42a14.81,14.81,0,0,0-1.88,1.49l-.56.54a6.92,6.92,0,0,0-.53.56l-.45.53a.28.28,0,0,0-.07.09c-.16.19-.31.39-.45.58a14.77,14.77,0,0,0-1.13,1.74h0c-.16.3-.32.6-.47.91-.07.16-.15.31-.22.47a5.16,5.16,0,0,0-.21.49c-.13.32-.25.65-.36,1s-.2.62-.28.94a14.54,14.54,0,0,0-.45,2.2c0,.3-.07.6-.09.91s0,.84,0,1.26A16.69,16.69,0,0,0,70,90C69.46,89.79,68.91,89.58,68.36,89.34ZM66.81,59.49s0,0-.07,0a1.49,1.49,0,0,0-.24.14.1.1,0,0,0-.07.05l-.37.23-.38.25-.19.14c.26-.18.53-.37.8-.53ZM70.29,58c.49-.15,1-.27,1.5-.38A12.67,12.67,0,0,0,70.29,58Zm31.29,14.63c0-.4,0-.8-.08-1.19s-.06-.68-.11-1a1.38,1.38,0,0,0,0-.2c0-.23-.06-.45-.1-.67s-.07-.46-.12-.69a2.07,2.07,0,0,0,0-.22c-.06-.32-.13-.64-.2-1l-.08-.32c-.08-.31-.16-.62-.25-.93l-.06-.18c-.07-.27-.16-.54-.25-.81s-.16-.48-.25-.71a.9.9,0,0,0-.08-.21c-.08-.24-.17-.47-.27-.7s-.15-.38-.24-.57-.21-.49-.33-.74-.33-.68-.5-1-.36-.67-.55-1-.38-.65-.59-1-.41-.63-.62-.94A25.79,25.79,0,0,0,94,55.15c-.26-.27-.53-.53-.8-.78s-.38-.36-.58-.52-.3-.27-.45-.39-.5-.42-.76-.62l-.67-.51-.23-.17-.63-.43c-.46-.31-.93-.61-1.41-.88q-.28-.18-.57-.33c-.12-.07-.24-.14-.37-.2s-.46-.25-.7-.36-.58-.28-.88-.42l-.71-.3c-.17-.08-.35-.15-.52-.21-.32-.13-.64-.24-1-.35s-.77-.26-1.17-.38-.74-.21-1.12-.3-.86-.21-1.29-.29c-.81-.16-1.64-.28-2.48-.36a26.62,26.62,0,0,1,0,53c.84-.08,1.67-.2,2.48-.36.43-.08.86-.18,1.29-.29s.75-.19,1.12-.3.64-.19,1-.3l.55-.2c.27-.09.54-.19.8-.3h0c.37-.15.73-.3,1.09-.47s.71-.33,1.06-.51l.07,0c.35-.18.69-.36,1-.56l.88-.52.28-.18.79-.52a.71.71,0,0,0,.14-.1c.29-.2.59-.42.88-.64l.06,0c.27-.2.54-.41.8-.63l.15-.13c.2-.16.39-.33.58-.5a25.42,25.42,0,0,0,2-2c.51-.56,1-1.14,1.44-1.73s.9-1.23,1.3-1.87c.2-.31.4-.63.58-1s.35-.62.52-.94a.3.3,0,0,0,0-.08c.17-.33.34-.66.49-1s.25-.54.37-.82.13-.3.19-.46.22-.55.32-.83.21-.56.29-.84.16-.47.23-.7l.09-.32c.09-.29.17-.57.23-.86l.09-.35c.07-.29.14-.59.19-.89a2.56,2.56,0,0,0,0-.27,6.71,6.71,0,0,0,.13-.76c0-.29.1-.58.13-.87s.08-.63.1-.94.07-.79.08-1.19,0-.81,0-1.21S101.6,73,101.58,72.63Z"/><path class="cls-2" d="M66.29,59.8c-.27.16-.54.35-.8.53l.19-.14.38-.25.37-.23a.1.1,0,0,1,.07-.05,1.49,1.49,0,0,1,.24-.14s.05,0,.07,0Z"/><path class="cls-2" d="M70,90A16.69,16.69,0,0,1,58.28,74c0-.42,0-.84,0-1.26s.05-.61.09-.91a14.54,14.54,0,0,1,.45-2.2c.08-.32.17-.63.28-.94s.23-.66.36-1a5.16,5.16,0,0,1,.21-.49c.07-.16.15-.31.22-.47.15-.31.31-.61.47-.91h0a14.77,14.77,0,0,1,1.13-1.74c.14-.19.29-.39.45-.58a.28.28,0,0,1,.07-.09l.45-.53a6.92,6.92,0,0,1,.53-.56l.56-.54a14.81,14.81,0,0,1,1.88-1.49l-.58.42-.36.29-.14.11-.21.19a.16.16,0,0,0-.08.06l-.36.32c-.19.17-.37.34-.54.52s-.38.38-.56.58c-.32.36-.63.73-.92,1.12-.17.22-.33.44-.47.66s-.27.39-.39.59-.3.49-.44.75-.21.37-.3.57A13.59,13.59,0,0,0,59.47,68c-.08.2-.15.4-.22.6l-.15.44c-.06.19-.11.38-.16.57s-.09.33-.13.5-.1.41-.14.62l0,.15c0,.19-.07.39-.09.58a16.36,16.36,0,0,0,0,5.1c0,.19.06.39.09.58l0,.15c0,.2.09.41.14.62s.08.33.13.5.1.38.16.57l.15.44c.07.2.14.4.22.6a13.59,13.59,0,0,0,.67,1.51c.07.15.15.3.23.44s.14.26.22.39.19.33.29.49.27.42.42.63a.22.22,0,0,0,.05.08,17.57,17.57,0,0,0,1.31,1.65,16.23,16.23,0,0,0,1.75,1.67,6.25,6.25,0,0,0,.5.4c.33.25.66.49,1,.72s.71.45,1.08.65.47.25.71.37.43.21.65.3C68.91,89.58,69.46,89.79,70,90Z"/><path class="cls-2" d="M71.79,57.62c-.51.11-1,.23-1.5.38A12.67,12.67,0,0,1,71.79,57.62Z"/><path class="cls-2" d="M71.79,57.62c-.51.11-1,.23-1.5.38A12.67,12.67,0,0,1,71.79,57.62Z"/><path class="cls-2" d="M66.29,59.8c-.27.16-.54.35-.8.53l.19-.14.38-.25.37-.23a.1.1,0,0,1,.07-.05,1.49,1.49,0,0,1,.24-.14s.05,0,.07,0Z"/><path class="cls-2" d="M70,90A16.69,16.69,0,0,1,58.28,74c0-.42,0-.84,0-1.26s.05-.61.09-.91a14.54,14.54,0,0,1,.45-2.2c.08-.32.17-.63.28-.94s.23-.66.36-1a5.16,5.16,0,0,1,.21-.49c.07-.16.15-.31.22-.47.15-.31.31-.61.47-.91h0a14.77,14.77,0,0,1,1.13-1.74c.14-.19.29-.39.45-.58a.28.28,0,0,1,.07-.09l.45-.53a6.92,6.92,0,0,1,.53-.56l.56-.54a14.81,14.81,0,0,1,1.88-1.49l-.58.42-.36.29-.14.11-.21.19a.16.16,0,0,0-.08.06l-.36.32c-.19.17-.37.34-.54.52s-.38.38-.56.58c-.32.36-.63.73-.92,1.12-.17.22-.33.44-.47.66s-.27.39-.39.59-.3.49-.44.75-.21.37-.3.57A13.59,13.59,0,0,0,59.47,68c-.08.2-.15.4-.22.6l-.15.44c-.06.19-.11.38-.16.57s-.09.33-.13.5-.1.41-.14.62l0,.15c0,.19-.07.39-.09.58a16.36,16.36,0,0,0,0,5.1c0,.19.06.39.09.58l0,.15c0,.2.09.41.14.62s.08.33.13.5.1.38.16.57l.15.44c.07.2.14.4.22.6a13.59,13.59,0,0,0,.67,1.51c.07.15.15.3.23.44s.14.26.22.39.19.33.29.49.27.42.42.63a.22.22,0,0,0,.05.08,17.57,17.57,0,0,0,1.31,1.65,16.23,16.23,0,0,0,1.75,1.67,6.25,6.25,0,0,0,.5.4c.33.25.66.49,1,.72s.71.45,1.08.65.47.25.71.37.43.21.65.3C68.91,89.58,69.46,89.79,70,90Z"/><path class="cls-2" d="M58.62,94.82c-.23-.17-.46-.36-.69-.55A25.93,25.93,0,0,1,55,91.43c-.29-.32-.56-.65-.83-1l-.3-.38c-.25-.32-.5-.66-.74-1-.36-.51-.69-1-1-1.56-.19-.32-.38-.65-.56-1s-.29-.54-.42-.81c-.3-.59-.57-1.2-.82-1.82s-.49-1.25-.69-1.89c-.1-.32-.2-.64-.29-1s-.12-.43-.17-.65-.11-.41-.15-.62a26.67,26.67,0,0,1-.66-5.9c0-.63,0-1.25.07-1.87,0-.31,0-.62.08-.93s.07-.61.11-.91.05-.37.08-.55c.12-.76.27-1.5.46-2.23q.08-.34.18-.69c.08-.29.16-.57.25-.85s.18-.56.28-.84.18-.51.28-.77c.2-.51.41-1,.64-1.5.12-.28.26-.56.4-.84s.43-.83.66-1.23.47-.8.72-1.19.69-1,1-1.52.75-1,1.15-1.44c.2-.23.4-.47.62-.69a27.13,27.13,0,0,1,2.44-2.35c.31-.26.63-.51,1-.76s.89-.66,1.35-1a5.39,5.39,0,0,0-.5.33c-.25.17-.49.35-.73.53s-.43.33-.64.51-.51.4-.76.62l-.55.49c-.49.44-1,.9-1.4,1.38-.15.15-.29.3-.43.46l-.65.75c-.21.25-.41.5-.61.76s-.28.35-.4.53-.26.35-.38.53A26.23,26.23,0,0,0,49.8,65a5.05,5.05,0,0,0-.18.55c-.21.63-.39,1.27-.55,1.92-.07.29-.14.58-.2.87s-.11.53-.15.8c-.1.52-.17,1-.23,1.59,0,.24-.05.47-.07.71s0,.35-.05.52,0,.56,0,.85,0,.66,0,1,0,.71,0,1.06l0,.61c0,.2,0,.4,0,.6.05.64.13,1.28.23,1.92,0,.25.08.49.13.74a24,24,0,0,0,.56,2.37c.08.29.16.58.26.86s.17.54.27.8c0,.09.06.19.1.28a.42.42,0,0,0,0,.1c.09.24.18.48.28.72a25.64,25.64,0,0,0,1.82,3.63c.18.3.37.6.56.9a28.45,28.45,0,0,0,2.16,2.85l.62.69c.19.2.37.4.57.59a26,26,0,0,0,2.41,2.15q.53.42,1.08.81t1,.69l.22.15.45.27.3.17.31.17A25.69,25.69,0,0,1,58.62,94.82ZM60.4,51.53l-.1.06-.14.11.8-.52ZM61.9,97a.18.18,0,0,1,.07,0s0,0,0,0Zm.92.5,0,0,0,0,.84.41Q63.24,97.76,62.82,97.53Zm1.61-48.16c.67-.29,1.36-.55,2.06-.79A21.34,21.34,0,0,0,64.43,49.37Zm0,11.78-.21.19.35-.3Zm4,28.19c-.22-.09-.43-.19-.65-.3s-.48-.24-.71-.37-.73-.42-1.08-.65-.68-.47-1-.72a6.25,6.25,0,0,1-.5-.4,16.23,16.23,0,0,1-1.75-1.67,17.57,17.57,0,0,1-1.31-1.65.22.22,0,0,1-.05-.08q-.22-.31-.42-.63c-.1-.16-.2-.32-.29-.49s-.15-.26-.22-.39-.16-.29-.23-.44A13.59,13.59,0,0,1,59.47,80c-.08-.2-.15-.4-.22-.6L59.1,79c-.06-.19-.11-.38-.16-.57s-.09-.33-.13-.5-.1-.42-.14-.62l0-.15c0-.19-.07-.39-.09-.58a16.36,16.36,0,0,1,0-5.1c0-.19.06-.39.09-.58l0-.15c0-.21.09-.41.14-.62s.08-.33.13-.5.1-.38.16-.57l.15-.44c.07-.2.14-.4.22-.6a13.59,13.59,0,0,1,.67-1.51c.09-.2.2-.39.3-.57s.29-.51.44-.75.25-.4.39-.59.3-.44.47-.66c.29-.39.6-.76.92-1.12.18-.2.37-.39.56-.58s.35-.35.54-.52l.36-.32c-.18.14-.35.27-.51.42l-.56.54a6.92,6.92,0,0,0-.53.56l-.45.53a.28.28,0,0,0-.07.09c-.16.19-.31.39-.45.58a17.84,17.84,0,0,0-1.13,1.74h0c-.16.3-.32.6-.47.91-.07.16-.15.31-.22.47a5.16,5.16,0,0,0-.21.49c-.13.32-.25.65-.36,1s-.2.62-.28.94a14.54,14.54,0,0,0-.45,2.2c0,.3-.07.6-.09.91s0,.84,0,1.26A16.69,16.69,0,0,0,70,90C69.46,89.79,68.91,89.58,68.36,89.34ZM66.74,59.52a1.49,1.49,0,0,0-.24.14.1.1,0,0,0-.07.05l-.37.23.75-.45S66.76,59.5,66.74,59.52ZM70.29,58c.49-.15,1-.27,1.5-.38A12.67,12.67,0,0,0,70.29,58ZM91.75,73.27c0-.12,0-.25,0-.37l0-.38c0-.25,0-.49-.08-.74l-.09-.63c-.1-.52-.21-1-.35-1.53l-.09-.32L91,68.9c0-.08,0-.16-.08-.24l-.15-.42c0-.11-.08-.22-.13-.33a16.18,16.18,0,0,0-1.75-3.32l-.09-.13-.16-.22-.38-.51c-.4-.5-.82-1-1.26-1.43q-.45-.45-.93-.87l-.49-.4-.46-.37,0,0c-.34-.26-.69-.5-1-.73s-.67-.41-1-.59l-.09,0a1.43,1.43,0,0,0-.28-.13q.33.16.66.36c.22.12.44.25.65.39l.5.32a16.43,16.43,0,0,1,1.32,1c.2.16.38.33.57.5a16.74,16.74,0,0,1,2.91,3.52c.12.19.24.39.35.6s.25.44.36.67a17.61,17.61,0,0,1,.81,1.89c.06.18.13.36.18.54s.18.59.26.89l.12.51.12.56a5.81,5.81,0,0,1,.09.58,16.36,16.36,0,0,1,0,5.1,5.81,5.81,0,0,1-.09.58l-.12.56-.12.51c-.08.3-.17.6-.26.89l-.18.54c-.06.17-.12.34-.19.5s-.15.38-.24.57a16.69,16.69,0,0,1-3.9,5.51l-.32.29a12.51,12.51,0,0,1-1,.81c-.17.14-.35.27-.52.39a17,17,0,0,1-2.66,1.52l-.7.3-.72.27-.29.09.16,0h0A16.68,16.68,0,0,0,91.77,74C91.77,73.78,91.76,73.52,91.75,73.27Zm9.83-.64c0-.4,0-.8-.08-1.19s-.06-.68-.11-1a1.38,1.38,0,0,0,0-.2c0-.23-.06-.45-.1-.67s-.07-.46-.12-.69a2.07,2.07,0,0,0,0-.22c-.06-.32-.13-.64-.2-1l-.08-.32c-.08-.31-.16-.62-.25-.93l-.06-.18c-.07-.27-.16-.54-.25-.81s-.16-.48-.25-.71a.9.9,0,0,0-.08-.21c-.08-.24-.17-.47-.27-.7s-.15-.38-.24-.57-.21-.49-.33-.74-.33-.68-.5-1-.36-.67-.55-1-.38-.65-.59-1-.41-.63-.62-.94A25.79,25.79,0,0,0,94,55.15c-.26-.27-.53-.53-.8-.78s-.38-.36-.58-.52-.3-.27-.45-.39-.5-.42-.76-.62l-.67-.51-.23-.17-.63-.43c-.46-.31-.93-.61-1.41-.88q-.28-.18-.57-.33c-.12-.07-.24-.14-.37-.2s-.46-.25-.7-.36-.58-.28-.88-.42l-.71-.3c-.17-.08-.35-.15-.52-.21-.32-.13-.64-.24-1-.35s-.77-.26-1.17-.38-.74-.21-1.12-.3-.86-.21-1.29-.29c-.81-.16-1.64-.28-2.48-.36a26.62,26.62,0,0,1,0,53c.84-.08,1.67-.2,2.48-.36.43-.08.86-.18,1.29-.29s.75-.19,1.12-.3.64-.19,1-.3l.55-.2c.27-.09.54-.19.8-.3h0c.37-.15.73-.3,1.09-.47s.71-.33,1.06-.51l.07,0c.35-.18.69-.36,1-.56l.88-.52.28-.18.79-.52a.71.71,0,0,0,.14-.1c.29-.2.59-.42.88-.64l.06,0c.27-.2.54-.41.8-.63l.15-.13c.2-.16.39-.33.58-.5a25.42,25.42,0,0,0,2-2c.51-.56,1-1.14,1.44-1.73s.9-1.23,1.3-1.87c.2-.31.4-.63.58-1s.35-.62.52-.94a.3.3,0,0,0,0-.08c.17-.33.34-.66.49-1s.25-.54.37-.82.13-.3.19-.46.22-.55.32-.83.21-.56.29-.84.16-.47.23-.7l.09-.32c.09-.29.17-.57.23-.86l.09-.35c.07-.29.14-.59.19-.89a2.56,2.56,0,0,0,0-.27,6.71,6.71,0,0,0,.13-.76c0-.29.1-.58.13-.87s.08-.63.1-.94.07-.79.08-1.19,0-.81,0-1.21S101.6,73,101.58,72.63Zm-43,22.19c-.23-.17-.46-.36-.69-.55A25.93,25.93,0,0,1,55,91.43c-.29-.32-.56-.65-.83-1l-.3-.38c-.25-.32-.5-.66-.74-1-.36-.51-.69-1-1-1.56-.19-.32-.38-.65-.56-1s-.29-.54-.42-.81c-.3-.59-.57-1.2-.82-1.82s-.49-1.25-.69-1.89c-.1-.32-.2-.64-.29-1s-.12-.43-.17-.65-.11-.41-.15-.62a26.67,26.67,0,0,1-.66-5.9c0-.63,0-1.25.07-1.87,0-.31,0-.62.08-.93s.07-.61.11-.91.05-.37.08-.55c.12-.76.27-1.5.46-2.23q.08-.34.18-.69c.08-.29.16-.57.25-.85s.18-.56.28-.84.18-.51.28-.77c.2-.51.41-1,.64-1.5.12-.28.26-.56.4-.84s.43-.83.66-1.23.47-.8.72-1.19.69-1,1-1.52.75-1,1.15-1.44c.2-.23.4-.47.62-.69a27.13,27.13,0,0,1,2.44-2.35c.31-.26.63-.51,1-.76s.89-.66,1.35-1a5.39,5.39,0,0,0-.5.33c-.25.17-.49.35-.73.53s-.43.33-.64.51-.51.4-.76.62l-.55.49c-.49.44-1,.9-1.4,1.38-.15.15-.29.3-.43.46l-.65.75c-.21.25-.41.5-.61.76s-.28.35-.4.53-.26.35-.38.53A26.23,26.23,0,0,0,49.8,65a5.05,5.05,0,0,0-.18.55c-.21.63-.39,1.27-.55,1.92-.07.29-.14.58-.2.87s-.11.53-.15.8c-.1.52-.17,1-.23,1.59,0,.24-.05.47-.07.71s0,.35-.05.52,0,.56,0,.85,0,.66,0,1,0,.71,0,1.06l0,.61c0,.2,0,.4,0,.6.05.64.13,1.28.23,1.92,0,.25.08.49.13.74a24,24,0,0,0,.56,2.37c.08.29.16.58.26.86s.17.54.27.8c0,.09.06.19.1.28a.42.42,0,0,0,0,.1c.09.24.18.48.28.72a25.64,25.64,0,0,0,1.82,3.63c.18.3.37.6.56.9a28.45,28.45,0,0,0,2.16,2.85l.62.69c.19.2.37.4.57.59a26,26,0,0,0,2.41,2.15q.53.42,1.08.81t1,.69l.22.15.45.27.3.17.31.17A25.69,25.69,0,0,1,58.62,94.82ZM60.4,51.53l-.1.06-.14.11.8-.52ZM61.9,97a.18.18,0,0,1,.07,0s0,0,0,0Zm.92.5,0,0,0,0,.84.41Q63.24,97.76,62.82,97.53Zm1.61-48.16c.67-.29,1.36-.55,2.06-.79A21.34,21.34,0,0,0,64.43,49.37Zm0,11.78-.21.19.35-.3Zm4,28.19c-.22-.09-.43-.19-.65-.3s-.48-.24-.71-.37-.73-.42-1.08-.65-.68-.47-1-.72a6.25,6.25,0,0,1-.5-.4,16.23,16.23,0,0,1-1.75-1.67,17.57,17.57,0,0,1-1.31-1.65.22.22,0,0,1-.05-.08q-.22-.31-.42-.63c-.1-.16-.2-.32-.29-.49s-.15-.26-.22-.39-.16-.29-.23-.44A13.59,13.59,0,0,1,59.47,80c-.08-.2-.15-.4-.22-.6L59.1,79c-.06-.19-.11-.38-.16-.57s-.09-.33-.13-.5-.1-.42-.14-.62l0-.15c0-.19-.07-.39-.09-.58a16.36,16.36,0,0,1,0-5.1c0-.19.06-.39.09-.58l0-.15c0-.21.09-.41.14-.62s.08-.33.13-.5.1-.38.16-.57l.15-.44c.07-.2.14-.4.22-.6a13.59,13.59,0,0,1,.67-1.51c.09-.2.2-.39.3-.57s.29-.51.44-.75.25-.4.39-.59.3-.44.47-.66c.29-.39.6-.76.92-1.12.18-.2.37-.39.56-.58s.35-.35.54-.52l.36-.32c-.18.14-.35.27-.51.42l-.56.54a6.92,6.92,0,0,0-.53.56l-.45.53a.28.28,0,0,0-.07.09c-.16.19-.31.39-.45.58a17.84,17.84,0,0,0-1.13,1.74h0c-.16.3-.32.6-.47.91-.07.16-.15.31-.22.47a5.16,5.16,0,0,0-.21.49c-.13.32-.25.65-.36,1s-.2.62-.28.94a14.54,14.54,0,0,0-.45,2.2c0,.3-.07.6-.09.91s0,.84,0,1.26A16.69,16.69,0,0,0,70,90C69.46,89.79,68.91,89.58,68.36,89.34ZM66.74,59.52a1.49,1.49,0,0,0-.24.14.1.1,0,0,0-.07.05l-.37.23.75-.45S66.76,59.5,66.74,59.52ZM70.29,58c.49-.15,1-.27,1.5-.38A12.67,12.67,0,0,0,70.29,58ZM91.75,73.27c0-.12,0-.25,0-.37l0-.38c0-.25,0-.49-.08-.74l-.09-.63c-.1-.52-.21-1-.35-1.53l-.09-.32L91,68.9c0-.08,0-.16-.08-.24l-.15-.42c0-.11-.08-.22-.13-.33a16.18,16.18,0,0,0-1.75-3.32l-.09-.13-.16-.22-.38-.51c-.4-.5-.82-1-1.26-1.43q-.45-.45-.93-.87l-.49-.4-.46-.37,0,0c-.34-.26-.69-.5-1-.73s-.67-.41-1-.59l-.09,0a1.43,1.43,0,0,0-.28-.13q.33.16.66.36c.22.12.44.25.65.39l.5.32a16.43,16.43,0,0,1,1.32,1c.2.16.38.33.57.5a16.74,16.74,0,0,1,2.91,3.52c.12.19.24.39.35.6s.25.44.36.67a17.61,17.61,0,0,1,.81,1.89c.06.18.13.36.18.54s.18.59.26.89l.12.51.12.56a5.81,5.81,0,0,1,.09.58,16.36,16.36,0,0,1,0,5.1,5.81,5.81,0,0,1-.09.58l-.12.56-.12.51c-.08.3-.17.6-.26.89l-.18.54c-.06.17-.12.34-.19.5s-.15.38-.24.57a16.69,16.69,0,0,1-3.9,5.51l-.32.29a12.51,12.51,0,0,1-1,.81c-.17.14-.35.27-.52.39a17,17,0,0,1-2.66,1.52l-.7.3-.72.27-.29.09.16,0h0A16.68,16.68,0,0,0,91.77,74C91.77,73.78,91.76,73.52,91.75,73.27Zm9.83-.64c0-.4,0-.8-.08-1.19s-.06-.68-.11-1a1.38,1.38,0,0,0,0-.2c0-.23-.06-.45-.1-.67s-.07-.46-.12-.69a2.07,2.07,0,0,0,0-.22c-.06-.32-.13-.64-.2-1l-.08-.32c-.08-.31-.16-.62-.25-.93l-.06-.18c-.07-.27-.16-.54-.25-.81s-.16-.48-.25-.71a.9.9,0,0,0-.08-.21c-.08-.24-.17-.47-.27-.7s-.15-.38-.24-.57-.21-.49-.33-.74-.33-.68-.5-1-.36-.67-.55-1-.38-.65-.59-1-.41-.63-.62-.94A25.79,25.79,0,0,0,94,55.15c-.26-.27-.53-.53-.8-.78s-.38-.36-.58-.52-.3-.27-.45-.39-.5-.42-.76-.62l-.67-.51-.23-.17-.63-.43c-.46-.31-.93-.61-1.41-.88q-.28-.18-.57-.33c-.12-.07-.24-.14-.37-.2s-.46-.25-.7-.36-.58-.28-.88-.42l-.71-.3c-.17-.08-.35-.15-.52-.21-.32-.13-.64-.24-1-.35s-.77-.26-1.17-.38-.74-.21-1.12-.3-.86-.21-1.29-.29c-.81-.16-1.64-.28-2.48-.36a26.62,26.62,0,0,1,0,53c.84-.08,1.67-.2,2.48-.36.43-.08.86-.18,1.29-.29s.75-.19,1.12-.3.64-.19,1-.3l.55-.2c.27-.09.54-.19.8-.3h0c.37-.15.73-.3,1.09-.47s.71-.33,1.06-.51l.07,0c.35-.18.69-.36,1-.56l.88-.52.28-.18.79-.52a.71.71,0,0,0,.14-.1c.29-.2.59-.42.88-.64l.06,0c.27-.2.54-.41.8-.63l.15-.13c.2-.16.39-.33.58-.5a25.42,25.42,0,0,0,2-2c.51-.56,1-1.14,1.44-1.73s.9-1.23,1.3-1.87c.2-.31.4-.63.58-1s.35-.62.52-.94a.3.3,0,0,0,0-.08c.17-.33.34-.66.49-1s.25-.54.37-.82.13-.3.19-.46.22-.55.32-.83.21-.56.29-.84.16-.47.23-.7l.09-.32c.09-.29.17-.57.23-.86l.09-.35c.07-.29.14-.59.19-.89a2.56,2.56,0,0,0,0-.27,6.71,6.71,0,0,0,.13-.76c0-.29.1-.58.13-.87s.08-.63.1-.94.07-.79.08-1.19,0-.81,0-1.21S101.6,73,101.58,72.63ZM61.9,97a.18.18,0,0,1,.07,0s0,0,0,0Zm-3.28-2.21c-.23-.17-.46-.36-.69-.55A25.93,25.93,0,0,1,55,91.43c-.29-.32-.56-.65-.83-1l-.3-.38c-.25-.32-.5-.66-.74-1-.36-.51-.69-1-1-1.56-.19-.32-.38-.65-.56-1s-.29-.54-.42-.81c-.3-.59-.57-1.2-.82-1.82s-.49-1.25-.69-1.89c-.1-.32-.2-.64-.29-1s-.12-.43-.17-.65-.11-.41-.15-.62a26.67,26.67,0,0,1-.66-5.9c0-.63,0-1.25.07-1.87,0-.31,0-.62.08-.93s.07-.61.11-.91.05-.37.08-.55c.12-.76.27-1.5.46-2.23q.08-.34.18-.69c.08-.29.16-.57.25-.85s.18-.56.28-.84.18-.51.28-.77c.2-.51.41-1,.64-1.5.12-.28.26-.56.4-.84s.43-.83.66-1.23.47-.8.72-1.19.69-1,1-1.52.75-1,1.15-1.44c.2-.23.4-.47.62-.69a27.13,27.13,0,0,1,2.44-2.35c.31-.26.63-.51,1-.76s.89-.66,1.35-1a5.39,5.39,0,0,0-.5.33c-.25.17-.49.35-.73.53s-.43.33-.64.51-.51.4-.76.62l-.55.49c-.49.44-1,.9-1.4,1.38-.15.15-.29.3-.43.46l-.65.75c-.21.25-.41.5-.61.76s-.28.35-.4.53-.26.35-.38.53A26.23,26.23,0,0,0,49.8,65a5.05,5.05,0,0,0-.18.55c-.21.63-.39,1.27-.55,1.92-.07.29-.14.58-.2.87s-.11.53-.15.8c-.1.52-.17,1-.23,1.59,0,.24-.05.47-.07.71s0,.35-.05.52,0,.56,0,.85,0,.66,0,1,0,.71,0,1.06l0,.61c0,.2,0,.4,0,.6.05.64.13,1.28.23,1.92,0,.25.08.49.13.74a24,24,0,0,0,.56,2.37c.08.29.16.58.26.86s.17.54.27.8c0,.09.06.19.1.28a.42.42,0,0,0,0,.1c.09.24.18.48.28.72a25.64,25.64,0,0,0,1.82,3.63c.18.3.37.6.56.9a28.45,28.45,0,0,0,2.16,2.85l.62.69c.19.2.37.4.57.59a26,26,0,0,0,2.41,2.15q.53.42,1.08.81t1,.69l.22.15.45.27.3.17.31.17A25.69,25.69,0,0,1,58.62,94.82ZM60.4,51.53l-.1.06-.14.11.8-.52Zm2.42,46,0,0,0,0,.84.41Q63.24,97.76,62.82,97.53Zm1.61-48.16c.67-.29,1.36-.55,2.06-.79A21.34,21.34,0,0,0,64.43,49.37Zm2.31,10.15a1.49,1.49,0,0,0-.24.14.1.1,0,0,0-.07.05l-.37.23.75-.45S66.76,59.5,66.74,59.52Zm-2.33,1.63-.21.19.35-.3Zm4,28.19c-.22-.09-.43-.19-.65-.3s-.48-.24-.71-.37-.73-.42-1.08-.65-.68-.47-1-.72a6.25,6.25,0,0,1-.5-.4,16.23,16.23,0,0,1-1.75-1.67,17.57,17.57,0,0,1-1.31-1.65.22.22,0,0,1-.05-.08q-.22-.31-.42-.63c-.1-.16-.2-.32-.29-.49s-.15-.26-.22-.39-.16-.29-.23-.44A13.59,13.59,0,0,1,59.47,80c-.08-.2-.15-.4-.22-.6L59.1,79c-.06-.19-.11-.38-.16-.57s-.09-.33-.13-.5-.1-.42-.14-.62l0-.15c0-.19-.07-.39-.09-.58a16.36,16.36,0,0,1,0-5.1c0-.19.06-.39.09-.58l0-.15c0-.21.09-.41.14-.62s.08-.33.13-.5.1-.38.16-.57l.15-.44c.07-.2.14-.4.22-.6a13.59,13.59,0,0,1,.67-1.51c.09-.2.2-.39.3-.57s.29-.51.44-.75.25-.4.39-.59.3-.44.47-.66c.29-.39.6-.76.92-1.12.18-.2.37-.39.56-.58s.35-.35.54-.52l.36-.32c-.18.14-.35.27-.51.42l-.56.54a6.92,6.92,0,0,0-.53.56l-.45.53a.28.28,0,0,0-.07.09c-.16.19-.31.39-.45.58a17.84,17.84,0,0,0-1.13,1.74h0c-.16.3-.32.6-.47.91-.07.16-.15.31-.22.47a5.16,5.16,0,0,0-.21.49c-.13.32-.25.65-.36,1s-.2.62-.28.94a14.54,14.54,0,0,0-.45,2.2c0,.3-.07.6-.09.91s0,.84,0,1.26A16.69,16.69,0,0,0,70,90C69.46,89.79,68.91,89.58,68.36,89.34ZM70.29,58c.49-.15,1-.27,1.5-.38A12.67,12.67,0,0,0,70.29,58ZM91.75,73.27c0-.12,0-.25,0-.37l0-.38c0-.25,0-.49-.08-.74l-.09-.63c-.1-.52-.21-1-.35-1.53l-.09-.32L91,68.9c0-.08,0-.16-.08-.24l-.15-.42c0-.11-.08-.22-.13-.33a16.18,16.18,0,0,0-1.75-3.32l-.09-.13-.16-.22-.38-.51c-.4-.5-.82-1-1.26-1.43q-.45-.45-.93-.87l-.49-.4-.46-.37,0,0c-.34-.26-.69-.5-1-.73s-.67-.41-1-.59l-.09,0a1.43,1.43,0,0,0-.28-.13q.33.16.66.36c.22.12.44.25.65.39l.5.32a16.43,16.43,0,0,1,1.32,1c.2.16.38.33.57.5a16.74,16.74,0,0,1,2.91,3.52c.12.19.24.39.35.6s.25.44.36.67a17.61,17.61,0,0,1,.81,1.89c.06.18.13.36.18.54s.18.59.26.89l.12.51.12.56a5.81,5.81,0,0,1,.09.58,16.36,16.36,0,0,1,0,5.1,5.81,5.81,0,0,1-.09.58l-.12.56-.12.51c-.08.3-.17.6-.26.89l-.18.54c-.06.17-.12.34-.19.5s-.15.38-.24.57a16.69,16.69,0,0,1-3.9,5.51l-.32.29a12.51,12.51,0,0,1-1,.81c-.17.14-.35.27-.52.39a17,17,0,0,1-2.66,1.52l-.7.3-.72.27-.29.09.16,0h0A16.68,16.68,0,0,0,91.77,74C91.77,73.78,91.76,73.52,91.75,73.27Zm9.83-.64c0-.4,0-.8-.08-1.19s-.06-.68-.11-1a1.38,1.38,0,0,0,0-.2c0-.23-.06-.45-.1-.67s-.07-.46-.12-.69a2.07,2.07,0,0,0,0-.22c-.06-.32-.13-.64-.2-1l-.08-.32c-.08-.31-.16-.62-.25-.93l-.06-.18c-.07-.27-.16-.54-.25-.81s-.16-.48-.25-.71a.9.9,0,0,0-.08-.21c-.08-.24-.17-.47-.27-.7s-.15-.38-.24-.57-.21-.49-.33-.74-.33-.68-.5-1-.36-.67-.55-1-.38-.65-.59-1-.41-.63-.62-.94A25.79,25.79,0,0,0,94,55.15c-.26-.27-.53-.53-.8-.78s-.38-.36-.58-.52-.3-.27-.45-.39-.5-.42-.76-.62l-.67-.51-.23-.17-.63-.43c-.46-.31-.93-.61-1.41-.88q-.28-.18-.57-.33c-.12-.07-.24-.14-.37-.2s-.46-.25-.7-.36-.58-.28-.88-.42l-.71-.3c-.17-.08-.35-.15-.52-.21-.32-.13-.64-.24-1-.35s-.77-.26-1.17-.38-.74-.21-1.12-.3-.86-.21-1.29-.29c-.81-.16-1.64-.28-2.48-.36a26.62,26.62,0,0,1,0,53c.84-.08,1.67-.2,2.48-.36.43-.08.86-.18,1.29-.29s.75-.19,1.12-.3.64-.19,1-.3l.55-.2c.27-.09.54-.19.8-.3h0c.37-.15.73-.3,1.09-.47s.71-.33,1.06-.51l.07,0c.35-.18.69-.36,1-.56l.88-.52.28-.18.79-.52a.71.71,0,0,0,.14-.1c.29-.2.59-.42.88-.64l.06,0c.27-.2.54-.41.8-.63l.15-.13c.2-.16.39-.33.58-.5a25.42,25.42,0,0,0,2-2c.51-.56,1-1.14,1.44-1.73s.9-1.23,1.3-1.87c.2-.31.4-.63.58-1s.35-.62.52-.94a.3.3,0,0,0,0-.08c.17-.33.34-.66.49-1s.25-.54.37-.82.13-.3.19-.46.22-.55.32-.83.21-.56.29-.84.16-.47.23-.7l.09-.32c.09-.29.17-.57.23-.86l.09-.35c.07-.29.14-.59.19-.89a2.56,2.56,0,0,0,0-.27,6.71,6.71,0,0,0,.13-.76c0-.29.1-.58.13-.87s.08-.63.1-.94.07-.79.08-1.19,0-.81,0-1.21S101.6,73,101.58,72.63Zm0,0c0-.4,0-.8-.08-1.19s-.06-.68-.11-1a1.38,1.38,0,0,0,0-.2c0-.23-.06-.45-.1-.67s-.07-.46-.12-.69a2.07,2.07,0,0,0,0-.22c-.06-.32-.13-.64-.2-1l-.08-.32c-.08-.31-.16-.62-.25-.93l-.06-.18c-.07-.27-.16-.54-.25-.81s-.16-.48-.25-.71a.9.9,0,0,0-.08-.21c-.08-.24-.17-.47-.27-.7s-.15-.38-.24-.57-.21-.49-.33-.74-.33-.68-.5-1-.36-.67-.55-1-.38-.65-.59-1-.41-.63-.62-.94A25.79,25.79,0,0,0,94,55.15c-.26-.27-.53-.53-.8-.78s-.38-.36-.58-.52-.3-.27-.45-.39-.5-.42-.76-.62l-.67-.51-.23-.17-.63-.43c-.46-.31-.93-.61-1.41-.88q-.28-.18-.57-.33c-.12-.07-.24-.14-.37-.2s-.46-.25-.7-.36-.58-.28-.88-.42l-.71-.3c-.17-.08-.35-.15-.52-.21-.32-.13-.64-.24-1-.35s-.77-.26-1.17-.38-.74-.21-1.12-.3-.86-.21-1.29-.29c-.81-.16-1.64-.28-2.48-.36a26.62,26.62,0,0,1,0,53c.84-.08,1.67-.2,2.48-.36.43-.08.86-.18,1.29-.29s.75-.19,1.12-.3.64-.19,1-.3l.55-.2c.27-.09.54-.19.8-.3h0c.37-.15.73-.3,1.09-.47s.71-.33,1.06-.51l.07,0c.35-.18.69-.36,1-.56l.88-.52.28-.18.79-.52a.71.71,0,0,0,.14-.1c.29-.2.59-.42.88-.64l.06,0c.27-.2.54-.41.8-.63l.15-.13c.2-.16.39-.33.58-.5a25.42,25.42,0,0,0,2-2c.51-.56,1-1.14,1.44-1.73s.9-1.23,1.3-1.87c.2-.31.4-.63.58-1s.35-.62.52-.94a.3.3,0,0,0,0-.08c.17-.33.34-.66.49-1s.25-.54.37-.82.13-.3.19-.46.22-.55.32-.83.21-.56.29-.84.16-.47.23-.7l.09-.32c.09-.29.17-.57.23-.86l.09-.35c.07-.29.14-.59.19-.89a2.56,2.56,0,0,0,0-.27,6.71,6.71,0,0,0,.13-.76c0-.29.1-.58.13-.87s.08-.63.1-.94.07-.79.08-1.19,0-.81,0-1.21S101.6,73,101.58,72.63Zm-9.83.64c0-.12,0-.25,0-.37l0-.38c0-.25,0-.49-.08-.74l-.09-.63c-.1-.52-.21-1-.35-1.53l-.09-.32L91,68.9c0-.08,0-.16-.08-.24l-.15-.42c0-.11-.08-.22-.13-.33a16.18,16.18,0,0,0-1.75-3.32l-.09-.13-.16-.22-.38-.51c-.4-.5-.82-1-1.26-1.43q-.45-.45-.93-.87l-.49-.4-.46-.37,0,0c-.34-.26-.69-.5-1-.73s-.67-.41-1-.59l-.09,0a1.43,1.43,0,0,0-.28-.13q.33.16.66.36c.22.12.44.25.65.39l.5.32a16.43,16.43,0,0,1,1.32,1c.2.16.38.33.57.5a16.74,16.74,0,0,1,2.91,3.52c.12.19.24.39.35.6s.25.44.36.67a17.61,17.61,0,0,1,.81,1.89c.06.18.13.36.18.54s.18.59.26.89l.12.51.12.56a5.81,5.81,0,0,1,.09.58,16.36,16.36,0,0,1,0,5.1,5.81,5.81,0,0,1-.09.58l-.12.56-.12.51c-.08.3-.17.6-.26.89l-.18.54c-.06.17-.12.34-.19.5s-.15.38-.24.57a16.69,16.69,0,0,1-3.9,5.51l-.32.29a12.51,12.51,0,0,1-1,.81c-.17.14-.35.27-.52.39a17,17,0,0,1-2.66,1.52l-.7.3-.72.27-.29.09.16,0h0A16.68,16.68,0,0,0,91.77,74C91.77,73.78,91.76,73.52,91.75,73.27ZM70.29,58c.49-.15,1-.27,1.5-.38A12.67,12.67,0,0,0,70.29,58Zm-5.88,3.15-.21.19.35-.3Zm4,28.19c-.22-.09-.43-.19-.65-.3s-.48-.24-.71-.37-.73-.42-1.08-.65-.68-.47-1-.72a6.25,6.25,0,0,1-.5-.4,16.23,16.23,0,0,1-1.75-1.67,17.57,17.57,0,0,1-1.31-1.65.22.22,0,0,1-.05-.08q-.22-.31-.42-.63c-.1-.16-.2-.32-.29-.49s-.15-.26-.22-.39-.16-.29-.23-.44A13.59,13.59,0,0,1,59.47,80c-.08-.2-.15-.4-.22-.6L59.1,79c-.06-.19-.11-.38-.16-.57s-.09-.33-.13-.5-.1-.42-.14-.62l0-.15c0-.19-.07-.39-.09-.58a16.36,16.36,0,0,1,0-5.1c0-.19.06-.39.09-.58l0-.15c0-.21.09-.41.14-.62s.08-.33.13-.5.1-.38.16-.57l.15-.44c.07-.2.14-.4.22-.6a13.59,13.59,0,0,1,.67-1.51c.09-.2.2-.39.3-.57s.29-.51.44-.75.25-.4.39-.59.3-.44.47-.66c.29-.39.6-.76.92-1.12.18-.2.37-.39.56-.58s.35-.35.54-.52l.36-.32c-.18.14-.35.27-.51.42l-.56.54a6.92,6.92,0,0,0-.53.56l-.45.53a.28.28,0,0,0-.07.09c-.16.19-.31.39-.45.58a17.84,17.84,0,0,0-1.13,1.74h0c-.16.3-.32.6-.47.91-.07.16-.15.31-.22.47a5.16,5.16,0,0,0-.21.49c-.13.32-.25.65-.36,1s-.2.62-.28.94a14.54,14.54,0,0,0-.45,2.2c0,.3-.07.6-.09.91s0,.84,0,1.26A16.69,16.69,0,0,0,70,90C69.46,89.79,68.91,89.58,68.36,89.34ZM66.74,59.52a1.49,1.49,0,0,0-.24.14.1.1,0,0,0-.07.05l-.37.23.75-.45S66.76,59.5,66.74,59.52ZM64.43,49.37c.67-.29,1.36-.55,2.06-.79A21.34,21.34,0,0,0,64.43,49.37ZM58.62,94.82c-.23-.17-.46-.36-.69-.55A25.93,25.93,0,0,1,55,91.43c-.29-.32-.56-.65-.83-1l-.3-.38c-.25-.32-.5-.66-.74-1-.36-.51-.69-1-1-1.56-.19-.32-.38-.65-.56-1s-.29-.54-.42-.81c-.3-.59-.57-1.2-.82-1.82s-.49-1.25-.69-1.89c-.1-.32-.2-.64-.29-1s-.12-.43-.17-.65-.11-.41-.15-.62a26.67,26.67,0,0,1-.66-5.9c0-.63,0-1.25.07-1.87,0-.31,0-.62.08-.93s.07-.61.11-.91.05-.37.08-.55c.12-.76.27-1.5.46-2.23q.08-.34.18-.69c.08-.29.16-.57.25-.85s.18-.56.28-.84.18-.51.28-.77c.2-.51.41-1,.64-1.5.12-.28.26-.56.4-.84s.43-.83.66-1.23.47-.8.72-1.19.69-1,1-1.52.75-1,1.15-1.44c.2-.23.4-.47.62-.69a27.13,27.13,0,0,1,2.44-2.35c.31-.26.63-.51,1-.76s.89-.66,1.35-1a5.39,5.39,0,0,0-.5.33c-.25.17-.49.35-.73.53s-.43.33-.64.51-.51.4-.76.62l-.55.49c-.49.44-1,.9-1.4,1.38-.15.15-.29.3-.43.46l-.65.75c-.21.25-.41.5-.61.76s-.28.35-.4.53-.26.35-.38.53A26.23,26.23,0,0,0,49.8,65a5.05,5.05,0,0,0-.18.55c-.21.63-.39,1.27-.55,1.92-.07.29-.14.58-.2.87s-.11.53-.15.8c-.1.52-.17,1-.23,1.59,0,.24-.05.47-.07.71s0,.35-.05.52,0,.56,0,.85,0,.66,0,1,0,.71,0,1.06l0,.61c0,.2,0,.4,0,.6.05.64.13,1.28.23,1.92,0,.25.08.49.13.74a24,24,0,0,0,.56,2.37c.08.29.16.58.26.86s.17.54.27.8c0,.09.06.19.1.28a.42.42,0,0,0,0,.1c.09.24.18.48.28.72a25.64,25.64,0,0,0,1.82,3.63c.18.3.37.6.56.9a28.45,28.45,0,0,0,2.16,2.85l.62.69c.19.2.37.4.57.59a26,26,0,0,0,2.41,2.15q.53.42,1.08.81t1,.69l.22.15.45.27.3.17.31.17A25.69,25.69,0,0,1,58.62,94.82ZM60.4,51.53l-.1.06-.14.11.8-.52ZM61.9,97a.18.18,0,0,1,.07,0s0,0,0,0Zm.92.5,0,0,0,0,.84.41Q63.24,97.76,62.82,97.53ZM61.9,97a.18.18,0,0,1,.07,0s0,0,0,0Zm-3.28-2.21c-.23-.17-.46-.36-.69-.55A25.93,25.93,0,0,1,55,91.43c-.29-.32-.56-.65-.83-1l-.3-.38c-.25-.32-.5-.66-.74-1-.36-.51-.69-1-1-1.56-.19-.32-.38-.65-.56-1s-.29-.54-.42-.81c-.3-.59-.57-1.2-.82-1.82s-.49-1.25-.69-1.89c-.1-.32-.2-.64-.29-1s-.12-.43-.17-.65-.11-.41-.15-.62a26.67,26.67,0,0,1-.66-5.9c0-.63,0-1.25.07-1.87,0-.31,0-.62.08-.93s.07-.61.11-.91.05-.37.08-.55c.12-.76.27-1.5.46-2.23q.08-.34.18-.69c.08-.29.16-.57.25-.85s.18-.56.28-.84.18-.51.28-.77c.2-.51.41-1,.64-1.5.12-.28.26-.56.4-.84s.43-.83.66-1.23.47-.8.72-1.19.69-1,1-1.52.75-1,1.15-1.44c.2-.23.4-.47.62-.69a27.13,27.13,0,0,1,2.44-2.35c.31-.26.63-.51,1-.76s.89-.66,1.35-1a5.39,5.39,0,0,0-.5.33c-.25.17-.49.35-.73.53s-.43.33-.64.51-.51.4-.76.62l-.55.49c-.49.44-1,.9-1.4,1.38-.15.15-.29.3-.43.46l-.65.75c-.21.25-.41.5-.61.76s-.28.35-.4.53-.26.35-.38.53A26.23,26.23,0,0,0,49.8,65a5.05,5.05,0,0,0-.18.55c-.21.63-.39,1.27-.55,1.92-.07.29-.14.58-.2.87s-.11.53-.15.8c-.1.52-.17,1-.23,1.59,0,.24-.05.47-.07.71s0,.35-.05.52,0,.56,0,.85,0,.66,0,1,0,.71,0,1.06l0,.61c0,.2,0,.4,0,.6.05.64.13,1.28.23,1.92,0,.25.08.49.13.74a24,24,0,0,0,.56,2.37c.08.29.16.58.26.86s.17.54.27.8c0,.09.06.19.1.28a.42.42,0,0,0,0,.1c.09.24.18.48.28.72a25.64,25.64,0,0,0,1.82,3.63c.18.3.37.6.56.9a28.45,28.45,0,0,0,2.16,2.85l.62.69c.19.2.37.4.57.59a26,26,0,0,0,2.41,2.15q.53.42,1.08.81t1,.69l.22.15.45.27.3.17.31.17A25.69,25.69,0,0,1,58.62,94.82ZM60.4,51.53l-.1.06-.14.11.8-.52Zm2.42,46,0,0,0,0,.84.41Q63.24,97.76,62.82,97.53Zm1.61-48.16c.67-.29,1.36-.55,2.06-.79A21.34,21.34,0,0,0,64.43,49.37Zm2.31,10.15a1.49,1.49,0,0,0-.24.14.1.1,0,0,0-.07.05l-.37.23.75-.45S66.76,59.5,66.74,59.52Zm1.62,29.82c-.22-.09-.43-.19-.65-.3s-.48-.24-.71-.37-.73-.42-1.08-.65-.68-.47-1-.72a6.25,6.25,0,0,1-.5-.4,16.23,16.23,0,0,1-1.75-1.67,17.57,17.57,0,0,1-1.31-1.65.22.22,0,0,1-.05-.08q-.22-.31-.42-.63c-.1-.16-.2-.32-.29-.49s-.15-.26-.22-.39-.16-.29-.23-.44A13.59,13.59,0,0,1,59.47,80c-.08-.2-.15-.4-.22-.6L59.1,79c-.06-.19-.11-.38-.16-.57s-.09-.33-.13-.5-.1-.42-.14-.62l0-.15c0-.19-.07-.39-.09-.58a16.36,16.36,0,0,1,0-5.1c0-.19.06-.39.09-.58l0-.15c0-.21.09-.41.14-.62s.08-.33.13-.5.1-.38.16-.57l.15-.44c.07-.2.14-.4.22-.6a13.59,13.59,0,0,1,.67-1.51c.09-.2.2-.39.3-.57s.29-.51.44-.75.25-.4.39-.59.3-.44.47-.66c.29-.39.6-.76.92-1.12.18-.2.37-.39.56-.58s.35-.35.54-.52l.36-.32c-.18.14-.35.27-.51.42l-.56.54a6.92,6.92,0,0,0-.53.56l-.45.53a.28.28,0,0,0-.07.09c-.16.19-.31.39-.45.58a17.84,17.84,0,0,0-1.13,1.74h0c-.16.3-.32.6-.47.91-.07.16-.15.31-.22.47a5.16,5.16,0,0,0-.21.49c-.13.32-.25.65-.36,1s-.2.62-.28.94a14.54,14.54,0,0,0-.45,2.2c0,.3-.07.6-.09.91s0,.84,0,1.26A16.69,16.69,0,0,0,70,90C69.46,89.79,68.91,89.58,68.36,89.34Zm-4-28.19-.21.19.35-.3ZM70.29,58c.49-.15,1-.27,1.5-.38A12.67,12.67,0,0,0,70.29,58ZM91.75,73.27c0-.12,0-.25,0-.37l0-.38c0-.25,0-.49-.08-.74l-.09-.63c-.1-.52-.21-1-.35-1.53l-.09-.32L91,68.9c0-.08,0-.16-.08-.24l-.15-.42c0-.11-.08-.22-.13-.33a16.18,16.18,0,0,0-1.75-3.32l-.09-.13-.16-.22-.38-.51c-.4-.5-.82-1-1.26-1.43q-.45-.45-.93-.87l-.49-.4-.46-.37,0,0c-.34-.26-.69-.5-1-.73s-.67-.41-1-.59l-.09,0a1.43,1.43,0,0,0-.28-.13q.33.16.66.36c.22.12.44.25.65.39l.5.32a16.43,16.43,0,0,1,1.32,1c.2.16.38.33.57.5a16.74,16.74,0,0,1,2.91,3.52c.12.19.24.39.35.6s.25.44.36.67a17.61,17.61,0,0,1,.81,1.89c.06.18.13.36.18.54s.18.59.26.89l.12.51.12.56a5.81,5.81,0,0,1,.09.58,16.36,16.36,0,0,1,0,5.1,5.81,5.81,0,0,1-.09.58l-.12.56-.12.51c-.08.3-.17.6-.26.89l-.18.54c-.06.17-.12.34-.19.5s-.15.38-.24.57a16.69,16.69,0,0,1-3.9,5.51l-.32.29a12.51,12.51,0,0,1-1,.81c-.17.14-.35.27-.52.39a17,17,0,0,1-2.66,1.52l-.7.3-.72.27-.29.09.16,0h0A16.68,16.68,0,0,0,91.77,74C91.77,73.78,91.76,73.52,91.75,73.27Zm9.83-.64c0-.4,0-.8-.08-1.19s-.06-.68-.11-1a1.38,1.38,0,0,0,0-.2c0-.23-.06-.45-.1-.67s-.07-.46-.12-.69a2.07,2.07,0,0,0,0-.22c-.06-.32-.13-.64-.2-1l-.08-.32c-.08-.31-.16-.62-.25-.93l-.06-.18c-.07-.27-.16-.54-.25-.81s-.16-.48-.25-.71a.9.9,0,0,0-.08-.21c-.08-.24-.17-.47-.27-.7s-.15-.38-.24-.57-.21-.49-.33-.74-.33-.68-.5-1-.36-.67-.55-1-.38-.65-.59-1-.41-.63-.62-.94A25.79,25.79,0,0,0,94,55.15c-.26-.27-.53-.53-.8-.78s-.38-.36-.58-.52-.3-.27-.45-.39-.5-.42-.76-.62l-.67-.51-.23-.17-.63-.43c-.46-.31-.93-.61-1.41-.88q-.28-.18-.57-.33c-.12-.07-.24-.14-.37-.2s-.46-.25-.7-.36-.58-.28-.88-.42l-.71-.3c-.17-.08-.35-.15-.52-.21-.32-.13-.64-.24-1-.35s-.77-.26-1.17-.38-.74-.21-1.12-.3-.86-.21-1.29-.29c-.81-.16-1.64-.28-2.48-.36a26.62,26.62,0,0,1,0,53c.84-.08,1.67-.2,2.48-.36.43-.08.86-.18,1.29-.29s.75-.19,1.12-.3.64-.19,1-.3l.55-.2c.27-.09.54-.19.8-.3h0c.37-.15.73-.3,1.09-.47s.71-.33,1.06-.51l.07,0c.35-.18.69-.36,1-.56l.88-.52.28-.18.79-.52a.71.71,0,0,0,.14-.1c.29-.2.59-.42.88-.64l.06,0c.27-.2.54-.41.8-.63l.15-.13c.2-.16.39-.33.58-.5a25.42,25.42,0,0,0,2-2c.51-.56,1-1.14,1.44-1.73s.9-1.23,1.3-1.87c.2-.31.4-.63.58-1s.35-.62.52-.94a.3.3,0,0,0,0-.08c.17-.33.34-.66.49-1s.25-.54.37-.82.13-.3.19-.46.22-.55.32-.83.21-.56.29-.84.16-.47.23-.7l.09-.32c.09-.29.17-.57.23-.86l.09-.35c.07-.29.14-.59.19-.89a2.56,2.56,0,0,0,0-.27,6.71,6.71,0,0,0,.13-.76c0-.29.1-.58.13-.87s.08-.63.1-.94.07-.79.08-1.19,0-.81,0-1.21S101.6,73,101.58,72.63Zm-43,22.19c-.23-.17-.46-.36-.69-.55A25.93,25.93,0,0,1,55,91.43c-.29-.32-.56-.65-.83-1l-.3-.38c-.25-.32-.5-.66-.74-1-.36-.51-.69-1-1-1.56-.19-.32-.38-.65-.56-1s-.29-.54-.42-.81c-.3-.59-.57-1.2-.82-1.82s-.49-1.25-.69-1.89c-.1-.32-.2-.64-.29-1s-.12-.43-.17-.65-.11-.41-.15-.62a26.67,26.67,0,0,1-.66-5.9c0-.63,0-1.25.07-1.87,0-.31,0-.62.08-.93s.07-.61.11-.91.05-.37.08-.55c.12-.76.27-1.5.46-2.23q.08-.34.18-.69c.08-.29.16-.57.25-.85s.18-.56.28-.84.18-.51.28-.77c.2-.51.41-1,.64-1.5.12-.28.26-.56.4-.84s.43-.83.66-1.23.47-.8.72-1.19.69-1,1-1.52.75-1,1.15-1.44c.2-.23.4-.47.62-.69a27.13,27.13,0,0,1,2.44-2.35c.31-.26.63-.51,1-.76s.89-.66,1.35-1a5.39,5.39,0,0,0-.5.33c-.25.17-.49.35-.73.53s-.43.33-.64.51-.51.4-.76.62l-.55.49c-.49.44-1,.9-1.4,1.38-.15.15-.29.3-.43.46l-.65.75c-.21.25-.41.5-.61.76s-.28.35-.4.53-.26.35-.38.53A26.23,26.23,0,0,0,49.8,65a5.05,5.05,0,0,0-.18.55c-.21.63-.39,1.27-.55,1.92-.07.29-.14.58-.2.87s-.11.53-.15.8c-.1.52-.17,1-.23,1.59,0,.24-.05.47-.07.71s0,.35-.05.52,0,.56,0,.85,0,.66,0,1,0,.71,0,1.06l0,.61c0,.2,0,.4,0,.6.05.64.13,1.28.23,1.92,0,.25.08.49.13.74a24,24,0,0,0,.56,2.37c.08.29.16.58.26.86s.17.54.27.8c0,.09.06.19.1.28a.42.42,0,0,0,0,.1c.09.24.18.48.28.72a25.64,25.64,0,0,0,1.82,3.63c.18.3.37.6.56.9a28.45,28.45,0,0,0,2.16,2.85l.62.69c.19.2.37.4.57.59a26,26,0,0,0,2.41,2.15q.53.42,1.08.81t1,.69l.22.15.45.27.3.17.31.17A25.69,25.69,0,0,1,58.62,94.82ZM60.4,51.53l-.1.06-.14.11.8-.52ZM61.9,97a.18.18,0,0,1,.07,0s0,0,0,0Zm.92.5,0,0,0,0,.84.41Q63.24,97.76,62.82,97.53Zm1.61-48.16c.67-.29,1.36-.55,2.06-.79A21.34,21.34,0,0,0,64.43,49.37Zm2.31,10.15a1.49,1.49,0,0,0-.24.14.1.1,0,0,0-.07.05l-.37.23.75-.45S66.76,59.5,66.74,59.52Zm1.62,29.82c-.22-.09-.43-.19-.65-.3s-.48-.24-.71-.37-.73-.42-1.08-.65-.68-.47-1-.72a6.25,6.25,0,0,1-.5-.4,16.23,16.23,0,0,1-1.75-1.67,17.57,17.57,0,0,1-1.31-1.65.22.22,0,0,1-.05-.08q-.22-.31-.42-.63c-.1-.16-.2-.32-.29-.49s-.15-.26-.22-.39-.16-.29-.23-.44A13.59,13.59,0,0,1,59.47,80c-.08-.2-.15-.4-.22-.6L59.1,79c-.06-.19-.11-.38-.16-.57s-.09-.33-.13-.5-.1-.42-.14-.62l0-.15c0-.19-.07-.39-.09-.58a16.36,16.36,0,0,1,0-5.1c0-.19.06-.39.09-.58l0-.15c0-.21.09-.41.14-.62s.08-.33.13-.5.1-.38.16-.57l.15-.44c.07-.2.14-.4.22-.6a13.59,13.59,0,0,1,.67-1.51c.09-.2.2-.39.3-.57s.29-.51.44-.75.25-.4.39-.59.3-.44.47-.66c.29-.39.6-.76.92-1.12.18-.2.37-.39.56-.58s.35-.35.54-.52l.36-.32c-.18.14-.35.27-.51.42l-.56.54a6.92,6.92,0,0,0-.53.56l-.45.53a.28.28,0,0,0-.07.09c-.16.19-.31.39-.45.58a17.84,17.84,0,0,0-1.13,1.74h0c-.16.3-.32.6-.47.91-.07.16-.15.31-.22.47a5.16,5.16,0,0,0-.21.49c-.13.32-.25.65-.36,1s-.2.62-.28.94a14.54,14.54,0,0,0-.45,2.2c0,.3-.07.6-.09.91s0,.84,0,1.26A16.69,16.69,0,0,0,70,90C69.46,89.79,68.91,89.58,68.36,89.34Zm-4-28.19-.21.19.35-.3ZM70.29,58c.49-.15,1-.27,1.5-.38A12.67,12.67,0,0,0,70.29,58ZM91.75,73.27c0-.12,0-.25,0-.37l0-.38c0-.25,0-.49-.08-.74l-.09-.63c-.1-.52-.21-1-.35-1.53l-.09-.32L91,68.9c0-.08,0-.16-.08-.24l-.15-.42c0-.11-.08-.22-.13-.33a16.18,16.18,0,0,0-1.75-3.32l-.09-.13-.16-.22-.38-.51c-.4-.5-.82-1-1.26-1.43q-.45-.45-.93-.87l-.49-.4-.46-.37,0,0c-.34-.26-.69-.5-1-.73s-.67-.41-1-.59l-.09,0a1.43,1.43,0,0,0-.28-.13q.33.16.66.36c.22.12.44.25.65.39l.5.32a16.43,16.43,0,0,1,1.32,1c.2.16.38.33.57.5a16.74,16.74,0,0,1,2.91,3.52c.12.19.24.39.35.6s.25.44.36.67a17.61,17.61,0,0,1,.81,1.89c.06.18.13.36.18.54s.18.59.26.89l.12.51.12.56a5.81,5.81,0,0,1,.09.58,16.36,16.36,0,0,1,0,5.1,5.81,5.81,0,0,1-.09.58l-.12.56-.12.51c-.08.3-.17.6-.26.89l-.18.54c-.06.17-.12.34-.19.5s-.15.38-.24.57a16.69,16.69,0,0,1-3.9,5.51l-.32.29a12.51,12.51,0,0,1-1,.81c-.17.14-.35.27-.52.39a17,17,0,0,1-2.66,1.52l-.7.3-.72.27-.29.09.16,0h0A16.68,16.68,0,0,0,91.77,74C91.77,73.78,91.76,73.52,91.75,73.27Zm9.83-.64c0-.4,0-.8-.08-1.19s-.06-.68-.11-1a1.38,1.38,0,0,0,0-.2c0-.23-.06-.45-.1-.67s-.07-.46-.12-.69a2.07,2.07,0,0,0,0-.22c-.06-.32-.13-.64-.2-1l-.08-.32c-.08-.31-.16-.62-.25-.93l-.06-.18c-.07-.27-.16-.54-.25-.81s-.16-.48-.25-.71a.9.9,0,0,0-.08-.21c-.08-.24-.17-.47-.27-.7s-.15-.38-.24-.57-.21-.49-.33-.74-.33-.68-.5-1-.36-.67-.55-1-.38-.65-.59-1-.41-.63-.62-.94A25.79,25.79,0,0,0,94,55.15c-.26-.27-.53-.53-.8-.78s-.38-.36-.58-.52-.3-.27-.45-.39-.5-.42-.76-.62l-.67-.51-.23-.17-.63-.43c-.46-.31-.93-.61-1.41-.88q-.28-.18-.57-.33c-.12-.07-.24-.14-.37-.2s-.46-.25-.7-.36-.58-.28-.88-.42l-.71-.3c-.17-.08-.35-.15-.52-.21-.32-.13-.64-.24-1-.35s-.77-.26-1.17-.38-.74-.21-1.12-.3-.86-.21-1.29-.29c-.81-.16-1.64-.28-2.48-.36a26.62,26.62,0,0,1,0,53c.84-.08,1.67-.2,2.48-.36.43-.08.86-.18,1.29-.29s.75-.19,1.12-.3.64-.19,1-.3l.55-.2c.27-.09.54-.19.8-.3h0c.37-.15.73-.3,1.09-.47s.71-.33,1.06-.51l.07,0c.35-.18.69-.36,1-.56l.88-.52.28-.18.79-.52a.71.71,0,0,0,.14-.1c.29-.2.59-.42.88-.64l.06,0c.27-.2.54-.41.8-.63l.15-.13c.2-.16.39-.33.58-.5a25.42,25.42,0,0,0,2-2c.51-.56,1-1.14,1.44-1.73s.9-1.23,1.3-1.87c.2-.31.4-.63.58-1s.35-.62.52-.94a.3.3,0,0,0,0-.08c.17-.33.34-.66.49-1s.25-.54.37-.82.13-.3.19-.46.22-.55.32-.83.21-.56.29-.84.16-.47.23-.7l.09-.32c.09-.29.17-.57.23-.86l.09-.35c.07-.29.14-.59.19-.89a2.56,2.56,0,0,0,0-.27,6.71,6.71,0,0,0,.13-.76c0-.29.1-.58.13-.87s.08-.63.1-.94.07-.79.08-1.19,0-.81,0-1.21S101.6,73,101.58,72.63Zm0,0c0-.4,0-.8-.08-1.19s-.06-.68-.11-1a1.38,1.38,0,0,0,0-.2c0-.23-.06-.45-.1-.67s-.07-.46-.12-.69a2.07,2.07,0,0,0,0-.22c-.06-.32-.13-.64-.2-1l-.08-.32c-.08-.31-.16-.62-.25-.93l-.06-.18c-.07-.27-.16-.54-.25-.81s-.16-.48-.25-.71a.9.9,0,0,0-.08-.21c-.08-.24-.17-.47-.27-.7s-.15-.38-.24-.57-.21-.49-.33-.74-.33-.68-.5-1-.36-.67-.55-1-.38-.65-.59-1-.41-.63-.62-.94A25.79,25.79,0,0,0,94,55.15c-.26-.27-.53-.53-.8-.78s-.38-.36-.58-.52-.3-.27-.45-.39-.5-.42-.76-.62l-.67-.51-.23-.17-.63-.43c-.46-.31-.93-.61-1.41-.88q-.28-.18-.57-.33c-.12-.07-.24-.14-.37-.2s-.46-.25-.7-.36-.58-.28-.88-.42l-.71-.3c-.17-.08-.35-.15-.52-.21-.32-.13-.64-.24-1-.35s-.77-.26-1.17-.38-.74-.21-1.12-.3-.86-.21-1.29-.29c-.81-.16-1.64-.28-2.48-.36a26.62,26.62,0,0,1,0,53c.84-.08,1.67-.2,2.48-.36.43-.08.86-.18,1.29-.29s.75-.19,1.12-.3.64-.19,1-.3l.55-.2c.27-.09.54-.19.8-.3h0c.37-.15.73-.3,1.09-.47s.71-.33,1.06-.51l.07,0c.35-.18.69-.36,1-.56l.88-.52.28-.18.79-.52a.71.71,0,0,0,.14-.1c.29-.2.59-.42.88-.64l.06,0c.27-.2.54-.41.8-.63l.15-.13c.2-.16.39-.33.58-.5a25.42,25.42,0,0,0,2-2c.51-.56,1-1.14,1.44-1.73s.9-1.23,1.3-1.87c.2-.31.4-.63.58-1s.35-.62.52-.94a.3.3,0,0,0,0-.08c.17-.33.34-.66.49-1s.25-.54.37-.82.13-.3.19-.46.22-.55.32-.83.21-.56.29-.84.16-.47.23-.7l.09-.32c.09-.29.17-.57.23-.86l.09-.35c.07-.29.14-.59.19-.89a2.56,2.56,0,0,0,0-.27,6.71,6.71,0,0,0,.13-.76c0-.29.1-.58.13-.87s.08-.63.1-.94.07-.79.08-1.19,0-.81,0-1.21S101.6,73,101.58,72.63Zm-9.83.64c0-.12,0-.25,0-.37l0-.38c0-.25,0-.49-.08-.74l-.09-.63c-.1-.52-.21-1-.35-1.53l-.09-.32L91,68.9c0-.08,0-.16-.08-.24l-.15-.42c0-.11-.08-.22-.13-.33a16.18,16.18,0,0,0-1.75-3.32l-.09-.13-.16-.22-.38-.51c-.4-.5-.82-1-1.26-1.43q-.45-.45-.93-.87l-.49-.4-.46-.37,0,0c-.34-.26-.69-.5-1-.73s-.67-.41-1-.59l-.09,0a1.43,1.43,0,0,0-.28-.13q.33.16.66.36c.22.12.44.25.65.39l.5.32a16.43,16.43,0,0,1,1.32,1c.2.16.38.33.57.5a16.74,16.74,0,0,1,2.91,3.52c.12.19.24.39.35.6s.25.44.36.67a17.61,17.61,0,0,1,.81,1.89c.06.18.13.36.18.54s.18.59.26.89l.12.51.12.56a5.81,5.81,0,0,1,.09.58,16.36,16.36,0,0,1,0,5.1,5.81,5.81,0,0,1-.09.58l-.12.56-.12.51c-.08.3-.17.6-.26.89l-.18.54c-.06.17-.12.34-.19.5s-.15.38-.24.57a16.69,16.69,0,0,1-3.9,5.51l-.32.29a12.51,12.51,0,0,1-1,.81c-.17.14-.35.27-.52.39a17,17,0,0,1-2.66,1.52l-.7.3-.72.27-.29.09.16,0h0A16.68,16.68,0,0,0,91.77,74C91.77,73.78,91.76,73.52,91.75,73.27ZM70.29,58c.49-.15,1-.27,1.5-.38A12.67,12.67,0,0,0,70.29,58Zm-3.55,1.52a1.49,1.49,0,0,0-.24.14.1.1,0,0,0-.07.05l-.37.23.75-.45S66.76,59.5,66.74,59.52Zm-2.33,1.63-.21.19.35-.3Zm4,28.19c-.22-.09-.43-.19-.65-.3s-.48-.24-.71-.37-.73-.42-1.08-.65-.68-.47-1-.72a6.25,6.25,0,0,1-.5-.4,16.23,16.23,0,0,1-1.75-1.67,17.57,17.57,0,0,1-1.31-1.65.22.22,0,0,1-.05-.08q-.22-.31-.42-.63c-.1-.16-.2-.32-.29-.49s-.15-.26-.22-.39-.16-.29-.23-.44A13.59,13.59,0,0,1,59.47,80c-.08-.2-.15-.4-.22-.6L59.1,79c-.06-.19-.11-.38-.16-.57s-.09-.33-.13-.5-.1-.42-.14-.62l0-.15c0-.19-.07-.39-.09-.58a16.36,16.36,0,0,1,0-5.1c0-.19.06-.39.09-.58l0-.15c0-.21.09-.41.14-.62s.08-.33.13-.5.1-.38.16-.57l.15-.44c.07-.2.14-.4.22-.6a13.59,13.59,0,0,1,.67-1.51c.09-.2.2-.39.3-.57s.29-.51.44-.75.25-.4.39-.59.3-.44.47-.66c.29-.39.6-.76.92-1.12.18-.2.37-.39.56-.58s.35-.35.54-.52l.36-.32c-.18.14-.35.27-.51.42l-.56.54a6.92,6.92,0,0,0-.53.56l-.45.53a.28.28,0,0,0-.07.09c-.16.19-.31.39-.45.58a17.84,17.84,0,0,0-1.13,1.74h0c-.16.3-.32.6-.47.91-.07.16-.15.31-.22.47a5.16,5.16,0,0,0-.21.49c-.13.32-.25.65-.36,1s-.2.62-.28.94a14.54,14.54,0,0,0-.45,2.2c0,.3-.07.6-.09.91s0,.84,0,1.26A16.69,16.69,0,0,0,70,90C69.46,89.79,68.91,89.58,68.36,89.34Zm-3.93-40c.67-.29,1.36-.55,2.06-.79A21.34,21.34,0,0,0,64.43,49.37ZM58.62,94.82c-.23-.17-.46-.36-.69-.55A25.93,25.93,0,0,1,55,91.43c-.29-.32-.56-.65-.83-1l-.3-.38c-.25-.32-.5-.66-.74-1-.36-.51-.69-1-1-1.56-.19-.32-.38-.65-.56-1s-.29-.54-.42-.81c-.3-.59-.57-1.2-.82-1.82s-.49-1.25-.69-1.89c-.1-.32-.2-.64-.29-1s-.12-.43-.17-.65-.11-.41-.15-.62a26.67,26.67,0,0,1-.66-5.9c0-.63,0-1.25.07-1.87,0-.31,0-.62.08-.93s.07-.61.11-.91.05-.37.08-.55c.12-.76.27-1.5.46-2.23q.08-.34.18-.69c.08-.29.16-.57.25-.85s.18-.56.28-.84.18-.51.28-.77c.2-.51.41-1,.64-1.5.12-.28.26-.56.4-.84s.43-.83.66-1.23.47-.8.72-1.19.69-1,1-1.52.75-1,1.15-1.44c.2-.23.4-.47.62-.69a27.13,27.13,0,0,1,2.44-2.35c.31-.26.63-.51,1-.76s.89-.66,1.35-1a5.39,5.39,0,0,0-.5.33c-.25.17-.49.35-.73.53s-.43.33-.64.51-.51.4-.76.62l-.55.49c-.49.44-1,.9-1.4,1.38-.15.15-.29.3-.43.46l-.65.75c-.21.25-.41.5-.61.76s-.28.35-.4.53-.26.35-.38.53A26.23,26.23,0,0,0,49.8,65a5.05,5.05,0,0,0-.18.55c-.21.63-.39,1.27-.55,1.92-.07.29-.14.58-.2.87s-.11.53-.15.8c-.1.52-.17,1-.23,1.59,0,.24-.05.47-.07.71s0,.35-.05.52,0,.56,0,.85,0,.66,0,1,0,.71,0,1.06l0,.61c0,.2,0,.4,0,.6.05.64.13,1.28.23,1.92,0,.25.08.49.13.74a24,24,0,0,0,.56,2.37c.08.29.16.58.26.86s.17.54.27.8c0,.09.06.19.1.28a.42.42,0,0,0,0,.1c.09.24.18.48.28.72a25.64,25.64,0,0,0,1.82,3.63c.18.3.37.6.56.9a28.45,28.45,0,0,0,2.16,2.85l.62.69c.19.2.37.4.57.59a26,26,0,0,0,2.41,2.15q.53.42,1.08.81t1,.69l.22.15.45.27.3.17.31.17A25.69,25.69,0,0,1,58.62,94.82ZM60.4,51.53l-.1.06-.14.11.8-.52ZM61.9,97a.18.18,0,0,1,.07,0s0,0,0,0Zm.92.5,0,0,0,0,.84.41Q63.24,97.76,62.82,97.53ZM61.9,97a.18.18,0,0,1,.07,0s0,0,0,0Zm-3.28-2.21c-.23-.17-.46-.36-.69-.55A25.93,25.93,0,0,1,55,91.43c-.29-.32-.56-.65-.83-1l-.3-.38c-.25-.32-.5-.66-.74-1-.36-.51-.69-1-1-1.56-.19-.32-.38-.65-.56-1s-.29-.54-.42-.81c-.3-.59-.57-1.2-.82-1.82s-.49-1.25-.69-1.89c-.1-.32-.2-.64-.29-1s-.12-.43-.17-.65-.11-.41-.15-.62a26.67,26.67,0,0,1-.66-5.9c0-.63,0-1.25.07-1.87,0-.31,0-.62.08-.93s.07-.61.11-.91.05-.37.08-.55c.12-.76.27-1.5.46-2.23q.08-.34.18-.69c.08-.29.16-.57.25-.85s.18-.56.28-.84.18-.51.28-.77c.2-.51.41-1,.64-1.5.12-.28.26-.56.4-.84s.43-.83.66-1.23.47-.8.72-1.19.69-1,1-1.52.75-1,1.15-1.44c.2-.23.4-.47.62-.69a27.13,27.13,0,0,1,2.44-2.35c.31-.26.63-.51,1-.76s.89-.66,1.35-1a5.39,5.39,0,0,0-.5.33c-.25.17-.49.35-.73.53s-.43.33-.64.51-.51.4-.76.62l-.55.49c-.49.44-1,.9-1.4,1.38-.15.15-.29.3-.43.46l-.65.75c-.21.25-.41.5-.61.76s-.28.35-.4.53-.26.35-.38.53A26.23,26.23,0,0,0,49.8,65a5.05,5.05,0,0,0-.18.55c-.21.63-.39,1.27-.55,1.92-.07.29-.14.58-.2.87s-.11.53-.15.8c-.1.52-.17,1-.23,1.59,0,.24-.05.47-.07.71s0,.35-.05.52,0,.56,0,.85,0,.66,0,1,0,.71,0,1.06l0,.61c0,.2,0,.4,0,.6.05.64.13,1.28.23,1.92,0,.25.08.49.13.74a24,24,0,0,0,.56,2.37c.08.29.16.58.26.86s.17.54.27.8c0,.09.06.19.1.28a.42.42,0,0,0,0,.1c.09.24.18.48.28.72a25.64,25.64,0,0,0,1.82,3.63c.18.3.37.6.56.9a28.45,28.45,0,0,0,2.16,2.85l.62.69c.19.2.37.4.57.59a26,26,0,0,0,2.41,2.15q.53.42,1.08.81t1,.69l.22.15.45.27.3.17.31.17A25.69,25.69,0,0,1,58.62,94.82ZM60.4,51.53l-.1.06-.14.11.8-.52Zm2.42,46,0,0,0,0,.84.41Q63.24,97.76,62.82,97.53Zm1.61-48.16c.67-.29,1.36-.55,2.06-.79A21.34,21.34,0,0,0,64.43,49.37Zm0,11.78-.21.19.35-.3Zm4,28.19c-.22-.09-.43-.19-.65-.3s-.48-.24-.71-.37-.73-.42-1.08-.65-.68-.47-1-.72a6.25,6.25,0,0,1-.5-.4,16.23,16.23,0,0,1-1.75-1.67,17.57,17.57,0,0,1-1.31-1.65.22.22,0,0,1-.05-.08q-.22-.31-.42-.63c-.1-.16-.2-.32-.29-.49s-.15-.26-.22-.39-.16-.29-.23-.44A13.59,13.59,0,0,1,59.47,80c-.08-.2-.15-.4-.22-.6L59.1,79c-.06-.19-.11-.38-.16-.57s-.09-.33-.13-.5-.1-.42-.14-.62l0-.15c0-.19-.07-.39-.09-.58a16.36,16.36,0,0,1,0-5.1c0-.19.06-.39.09-.58l0-.15c0-.21.09-.41.14-.62s.08-.33.13-.5.1-.38.16-.57l.15-.44c.07-.2.14-.4.22-.6a13.59,13.59,0,0,1,.67-1.51c.09-.2.2-.39.3-.57s.29-.51.44-.75.25-.4.39-.59.3-.44.47-.66c.29-.39.6-.76.92-1.12.18-.2.37-.39.56-.58s.35-.35.54-.52l.36-.32c-.18.14-.35.27-.51.42l-.56.54a6.92,6.92,0,0,0-.53.56l-.45.53a.28.28,0,0,0-.07.09c-.16.19-.31.39-.45.58a17.84,17.84,0,0,0-1.13,1.74h0c-.16.3-.32.6-.47.91-.07.16-.15.31-.22.47a5.16,5.16,0,0,0-.21.49c-.13.32-.25.65-.36,1s-.2.62-.28.94a14.54,14.54,0,0,0-.45,2.2c0,.3-.07.6-.09.91s0,.84,0,1.26A16.69,16.69,0,0,0,70,90C69.46,89.79,68.91,89.58,68.36,89.34ZM66.74,59.52a1.49,1.49,0,0,0-.24.14.1.1,0,0,0-.07.05l-.37.23.75-.45S66.76,59.5,66.74,59.52ZM70.29,58c.49-.15,1-.27,1.5-.38A12.67,12.67,0,0,0,70.29,58ZM91.75,73.27c0-.12,0-.25,0-.37l0-.38c0-.25,0-.49-.08-.74l-.09-.63c-.1-.52-.21-1-.35-1.53l-.09-.32L91,68.9c0-.08,0-.16-.08-.24l-.15-.42c0-.11-.08-.22-.13-.33a16.18,16.18,0,0,0-1.75-3.32l-.09-.13-.16-.22-.38-.51c-.4-.5-.82-1-1.26-1.43q-.45-.45-.93-.87l-.49-.4-.46-.37,0,0c-.34-.26-.69-.5-1-.73s-.67-.41-1-.59l-.09,0a1.43,1.43,0,0,0-.28-.13q.33.16.66.36c.22.12.44.25.65.39l.5.32a16.43,16.43,0,0,1,1.32,1c.2.16.38.33.57.5a16.74,16.74,0,0,1,2.91,3.52c.12.19.24.39.35.6s.25.44.36.67a17.61,17.61,0,0,1,.81,1.89c.06.18.13.36.18.54s.18.59.26.89l.12.51.12.56a5.81,5.81,0,0,1,.09.58,16.36,16.36,0,0,1,0,5.1,5.81,5.81,0,0,1-.09.58l-.12.56-.12.51c-.08.3-.17.6-.26.89l-.18.54c-.06.17-.12.34-.19.5s-.15.38-.24.57a16.69,16.69,0,0,1-3.9,5.51l-.32.29a12.51,12.51,0,0,1-1,.81c-.17.14-.35.27-.52.39a17,17,0,0,1-2.66,1.52l-.7.3-.72.27-.29.09.16,0h0A16.68,16.68,0,0,0,91.77,74C91.77,73.78,91.76,73.52,91.75,73.27Zm9.83-.64c0-.4,0-.8-.08-1.19s-.06-.68-.11-1a1.38,1.38,0,0,0,0-.2c0-.23-.06-.45-.1-.67s-.07-.46-.12-.69a2.07,2.07,0,0,0,0-.22c-.06-.32-.13-.64-.2-1l-.08-.32c-.08-.31-.16-.62-.25-.93l-.06-.18c-.07-.27-.16-.54-.25-.81s-.16-.48-.25-.71a.9.9,0,0,0-.08-.21c-.08-.24-.17-.47-.27-.7s-.15-.38-.24-.57-.21-.49-.33-.74-.33-.68-.5-1-.36-.67-.55-1-.38-.65-.59-1-.41-.63-.62-.94A25.79,25.79,0,0,0,94,55.15c-.26-.27-.53-.53-.8-.78s-.38-.36-.58-.52-.3-.27-.45-.39-.5-.42-.76-.62l-.67-.51-.23-.17-.63-.43c-.46-.31-.93-.61-1.41-.88q-.28-.18-.57-.33c-.12-.07-.24-.14-.37-.2s-.46-.25-.7-.36-.58-.28-.88-.42l-.71-.3c-.17-.08-.35-.15-.52-.21-.32-.13-.64-.24-1-.35s-.77-.26-1.17-.38-.74-.21-1.12-.3-.86-.21-1.29-.29c-.81-.16-1.64-.28-2.48-.36a26.62,26.62,0,0,1,0,53c.84-.08,1.67-.2,2.48-.36.43-.08.86-.18,1.29-.29s.75-.19,1.12-.3.64-.19,1-.3l.55-.2c.27-.09.54-.19.8-.3h0c.37-.15.73-.3,1.09-.47s.71-.33,1.06-.51l.07,0c.35-.18.69-.36,1-.56l.88-.52.28-.18.79-.52a.71.71,0,0,0,.14-.1c.29-.2.59-.42.88-.64l.06,0c.27-.2.54-.41.8-.63l.15-.13c.2-.16.39-.33.58-.5a25.42,25.42,0,0,0,2-2c.51-.56,1-1.14,1.44-1.73s.9-1.23,1.3-1.87c.2-.31.4-.63.58-1s.35-.62.52-.94a.3.3,0,0,0,0-.08c.17-.33.34-.66.49-1s.25-.54.37-.82.13-.3.19-.46.22-.55.32-.83.21-.56.29-.84.16-.47.23-.7l.09-.32c.09-.29.17-.57.23-.86l.09-.35c.07-.29.14-.59.19-.89a2.56,2.56,0,0,0,0-.27,6.71,6.71,0,0,0,.13-.76c0-.29.1-.58.13-.87s.08-.63.1-.94.07-.79.08-1.19,0-.81,0-1.21S101.6,73,101.58,72.63ZM61.9,97a.18.18,0,0,1,.07,0s0,0,0,0Zm-3.28-2.21c-.23-.17-.46-.36-.69-.55A25.93,25.93,0,0,1,55,91.43c-.29-.32-.56-.65-.83-1l-.3-.38c-.25-.32-.5-.66-.74-1-.36-.51-.69-1-1-1.56-.19-.32-.38-.65-.56-1s-.29-.54-.42-.81c-.3-.59-.57-1.2-.82-1.82s-.49-1.25-.69-1.89c-.1-.32-.2-.64-.29-1s-.12-.43-.17-.65-.11-.41-.15-.62a26.67,26.67,0,0,1-.66-5.9c0-.63,0-1.25.07-1.87,0-.31,0-.62.08-.93s.07-.61.11-.91.05-.37.08-.55c.12-.76.27-1.5.46-2.23q.08-.34.18-.69c.08-.29.16-.57.25-.85s.18-.56.28-.84.18-.51.28-.77c.2-.51.41-1,.64-1.5.12-.28.26-.56.4-.84s.43-.83.66-1.23.47-.8.72-1.19.69-1,1-1.52.75-1,1.15-1.44c.2-.23.4-.47.62-.69a27.13,27.13,0,0,1,2.44-2.35c.31-.26.63-.51,1-.76s.89-.66,1.35-1a5.39,5.39,0,0,0-.5.33c-.25.17-.49.35-.73.53s-.43.33-.64.51-.51.4-.76.62l-.55.49c-.49.44-1,.9-1.4,1.38-.15.15-.29.3-.43.46l-.65.75c-.21.25-.41.5-.61.76s-.28.35-.4.53-.26.35-.38.53A26.23,26.23,0,0,0,49.8,65a5.05,5.05,0,0,0-.18.55c-.21.63-.39,1.27-.55,1.92-.07.29-.14.58-.2.87s-.11.53-.15.8c-.1.52-.17,1-.23,1.59,0,.24-.05.47-.07.71s0,.35-.05.52,0,.56,0,.85,0,.66,0,1,0,.71,0,1.06l0,.61c0,.2,0,.4,0,.6.05.64.13,1.28.23,1.92,0,.25.08.49.13.74a24,24,0,0,0,.56,2.37c.08.29.16.58.26.86s.17.54.27.8c0,.09.06.19.1.28a.42.42,0,0,0,0,.1c.09.24.18.48.28.72a25.64,25.64,0,0,0,1.82,3.63c.18.3.37.6.56.9a28.45,28.45,0,0,0,2.16,2.85l.62.69c.19.2.37.4.57.59a26,26,0,0,0,2.41,2.15q.53.42,1.08.81t1,.69l.22.15.45.27.3.17.31.17A25.69,25.69,0,0,1,58.62,94.82ZM60.4,51.53l-.1.06-.14.11.8-.52Zm2.42,46,0,0,0,0,.84.41Q63.24,97.76,62.82,97.53Zm1.61-48.16c.67-.29,1.36-.55,2.06-.79A21.34,21.34,0,0,0,64.43,49.37Zm0,11.78-.21.19.35-.3Zm4,28.19c-.22-.09-.43-.19-.65-.3s-.48-.24-.71-.37-.73-.42-1.08-.65-.68-.47-1-.72a6.25,6.25,0,0,1-.5-.4,16.23,16.23,0,0,1-1.75-1.67,17.57,17.57,0,0,1-1.31-1.65.22.22,0,0,1-.05-.08q-.22-.31-.42-.63c-.1-.16-.2-.32-.29-.49s-.15-.26-.22-.39-.16-.29-.23-.44A13.59,13.59,0,0,1,59.47,80c-.08-.2-.15-.4-.22-.6L59.1,79c-.06-.19-.11-.38-.16-.57s-.09-.33-.13-.5-.1-.42-.14-.62l0-.15c0-.19-.07-.39-.09-.58a16.36,16.36,0,0,1,0-5.1c0-.19.06-.39.09-.58l0-.15c0-.21.09-.41.14-.62s.08-.33.13-.5.1-.38.16-.57l.15-.44c.07-.2.14-.4.22-.6a13.59,13.59,0,0,1,.67-1.51c.09-.2.2-.39.3-.57s.29-.51.44-.75.25-.4.39-.59.3-.44.47-.66c.29-.39.6-.76.92-1.12.18-.2.37-.39.56-.58s.35-.35.54-.52l.36-.32c-.18.14-.35.27-.51.42l-.56.54a6.92,6.92,0,0,0-.53.56l-.45.53a.28.28,0,0,0-.07.09c-.16.19-.31.39-.45.58a17.84,17.84,0,0,0-1.13,1.74h0c-.16.3-.32.6-.47.91-.07.16-.15.31-.22.47a5.16,5.16,0,0,0-.21.49c-.13.32-.25.65-.36,1s-.2.62-.28.94a14.54,14.54,0,0,0-.45,2.2c0,.3-.07.6-.09.91s0,.84,0,1.26A16.69,16.69,0,0,0,70,90C69.46,89.79,68.91,89.58,68.36,89.34ZM66.74,59.52a1.49,1.49,0,0,0-.24.14.1.1,0,0,0-.07.05l-.37.23.75-.45S66.76,59.5,66.74,59.52ZM70.29,58c.49-.15,1-.27,1.5-.38A12.67,12.67,0,0,0,70.29,58ZM91.75,73.27c0-.12,0-.25,0-.37l0-.38c0-.25,0-.49-.08-.74l-.09-.63c-.1-.52-.21-1-.35-1.53l-.09-.32L91,68.9c0-.08,0-.16-.08-.24l-.15-.42c0-.11-.08-.22-.13-.33a16.18,16.18,0,0,0-1.75-3.32l-.09-.13-.16-.22-.38-.51c-.4-.5-.82-1-1.26-1.43q-.45-.45-.93-.87l-.49-.4-.46-.37,0,0c-.34-.26-.69-.5-1-.73s-.67-.41-1-.59l-.09,0a1.43,1.43,0,0,0-.28-.13q.33.16.66.36c.22.12.44.25.65.39l.5.32a16.43,16.43,0,0,1,1.32,1c.2.16.38.33.57.5a16.74,16.74,0,0,1,2.91,3.52c.12.19.24.39.35.6s.25.44.36.67a17.61,17.61,0,0,1,.81,1.89c.06.18.13.36.18.54s.18.59.26.89l.12.51.12.56a5.81,5.81,0,0,1,.09.58,16.36,16.36,0,0,1,0,5.1,5.81,5.81,0,0,1-.09.58l-.12.56-.12.51c-.08.3-.17.6-.26.89l-.18.54c-.06.17-.12.34-.19.5s-.15.38-.24.57a16.69,16.69,0,0,1-3.9,5.51l-.32.29a12.51,12.51,0,0,1-1,.81c-.17.14-.35.27-.52.39a17,17,0,0,1-2.66,1.52l-.7.3-.72.27-.29.09.16,0h0A16.68,16.68,0,0,0,91.77,74C91.77,73.78,91.76,73.52,91.75,73.27Zm9.83-.64c0-.4,0-.8-.08-1.19s-.06-.68-.11-1a1.38,1.38,0,0,0,0-.2c0-.23-.06-.45-.1-.67s-.07-.46-.12-.69a2.07,2.07,0,0,0,0-.22c-.06-.32-.13-.64-.2-1l-.08-.32c-.08-.31-.16-.62-.25-.93l-.06-.18c-.07-.27-.16-.54-.25-.81s-.16-.48-.25-.71a.9.9,0,0,0-.08-.21c-.08-.24-.17-.47-.27-.7s-.15-.38-.24-.57-.21-.49-.33-.74-.33-.68-.5-1-.36-.67-.55-1-.38-.65-.59-1-.41-.63-.62-.94A25.79,25.79,0,0,0,94,55.15c-.26-.27-.53-.53-.8-.78s-.38-.36-.58-.52-.3-.27-.45-.39-.5-.42-.76-.62l-.67-.51-.23-.17-.63-.43c-.46-.31-.93-.61-1.41-.88q-.28-.18-.57-.33c-.12-.07-.24-.14-.37-.2s-.46-.25-.7-.36-.58-.28-.88-.42l-.71-.3c-.17-.08-.35-.15-.52-.21-.32-.13-.64-.24-1-.35s-.77-.26-1.17-.38-.74-.21-1.12-.3-.86-.21-1.29-.29c-.81-.16-1.64-.28-2.48-.36a26.62,26.62,0,0,1,0,53c.84-.08,1.67-.2,2.48-.36.43-.08.86-.18,1.29-.29s.75-.19,1.12-.3.64-.19,1-.3l.55-.2c.27-.09.54-.19.8-.3h0c.37-.15.73-.3,1.09-.47s.71-.33,1.06-.51l.07,0c.35-.18.69-.36,1-.56l.88-.52.28-.18.79-.52a.71.71,0,0,0,.14-.1c.29-.2.59-.42.88-.64l.06,0c.27-.2.54-.41.8-.63l.15-.13c.2-.16.39-.33.58-.5a25.42,25.42,0,0,0,2-2c.51-.56,1-1.14,1.44-1.73s.9-1.23,1.3-1.87c.2-.31.4-.63.58-1s.35-.62.52-.94a.3.3,0,0,0,0-.08c.17-.33.34-.66.49-1s.25-.54.37-.82.13-.3.19-.46.22-.55.32-.83.21-.56.29-.84.16-.47.23-.7l.09-.32c.09-.29.17-.57.23-.86l.09-.35c.07-.29.14-.59.19-.89a2.56,2.56,0,0,0,0-.27,6.71,6.71,0,0,0,.13-.76c0-.29.1-.58.13-.87s.08-.63.1-.94.07-.79.08-1.19,0-.81,0-1.21S101.6,73,101.58,72.63Z"/><path class="cls-2" d="M96.83,58.61A25.18,25.18,0,0,0,94,55.15,25.79,25.79,0,0,1,96.83,58.61Z"/><path class="cls-1" d="M95.54,32.31H54.47A21.18,21.18,0,0,0,33.28,53.48V94.57a21.19,21.19,0,0,0,21.19,21.18H95.54a21.17,21.17,0,0,0,21.17-21.18V53.48A21.17,21.17,0,0,0,95.54,32.31Zm6,42.74c0,.4,0,.79-.08,1.19s-.06.63-.1.94-.08.58-.13.87a6.71,6.71,0,0,1-.13.76,2.56,2.56,0,0,1,0,.27c0,.3-.12.6-.19.89l-.09.35c-.06.29-.14.57-.23.86l-.09.32c-.07.23-.14.47-.23.7s-.18.56-.29.84-.2.56-.32.83-.12.31-.19.46a8.58,8.58,0,0,1-.37.82c-.15.34-.31.67-.49,1a.3.3,0,0,1,0,.08c-.16.32-.34.63-.52.94s-.38.64-.58,1c-.4.64-.83,1.26-1.3,1.87s-.93,1.17-1.44,1.73a25.42,25.42,0,0,1-2,2c-.19.17-.38.34-.58.5l-.15.13c-.26.22-.53.43-.8.63l-.06,0c-.29.22-.59.44-.88.64a.71.71,0,0,1-.14.1c-.26.18-.52.36-.79.52l-.28.18c-.29.18-.58.36-.88.52s-.68.38-1,.56l-.07,0c-.35.18-.7.35-1.06.51s-.72.32-1.09.47h0c-.26.11-.53.21-.8.3l-.55.2q-.48.16-1,.3c-.37.11-.74.21-1.12.3s-.86.21-1.29.29c-.81.16-1.64.28-2.48.36a23.58,23.58,0,0,1-2.66.14,24.4,24.4,0,0,1-2.72-.14q-1.26-.12-2.49-.36c-.38-.07-.76-.16-1.14-.25s-.73-.18-1.08-.29c-.69-.2-1.38-.43-2-.68s-1.24-.5-1.84-.78h0l-.84-.41,0,0a4.67,4.67,0,0,1-.49-.27L62,97.09h0a5.5,5.5,0,0,1-.48-.28l-.3-.17-.45-.27-.22-.15q-.52-.33-1-.69t-1.08-.81A26,26,0,0,1,56,92.56c-.2-.19-.38-.39-.57-.59l-.62-.69a28.45,28.45,0,0,1-2.16-2.85c-.19-.3-.38-.6-.56-.9a25.64,25.64,0,0,1-1.82-3.63,6.3,6.3,0,0,1-.28-.72.42.42,0,0,1,0-.1c0-.09-.07-.19-.1-.28-.1-.26-.19-.53-.27-.8s-.18-.57-.26-.86a24,24,0,0,1-.56-2.37c-.05-.25-.09-.49-.13-.74-.1-.64-.18-1.28-.23-1.92,0-.2,0-.4,0-.6l0-.61c0-.35,0-.7,0-1.06s0-.66,0-1,0-.57,0-.85,0-.35.05-.52,0-.47.07-.71c.06-.54.13-1.07.23-1.59,0-.27.09-.54.15-.8s.13-.58.2-.87c.16-.65.34-1.29.55-1.92A5.05,5.05,0,0,1,49.8,65a26.23,26.23,0,0,1,3.31-6.45c.12-.18.24-.35.38-.53s.26-.35.4-.53.4-.51.61-.76l.65-.75c.14-.16.28-.31.43-.46.44-.48.91-.94,1.4-1.38l.55-.49c.25-.22.5-.43.76-.62s.42-.35.64-.51.48-.36.73-.53a5.39,5.39,0,0,1,.5-.33l.14-.11.1-.06.56-.35.33-.2.6-.35c.54-.31,1.09-.59,1.65-.86l.88-.4h0a21.34,21.34,0,0,1,2.06-.79c.7-.24,1.42-.44,2.15-.62.38-.09.76-.18,1.14-.25q1.23-.24,2.49-.36A27.06,27.06,0,0,1,75,47.21a26.18,26.18,0,0,1,2.66.14c.84.08,1.67.2,2.48.36.43.08.86.18,1.29.29s.75.19,1.12.3.79.24,1.17.38.64.22,1,.35c.17.06.35.13.52.21l.71.3c.3.14.59.27.88.42s.47.23.7.36.25.13.37.2.38.21.57.33c.48.27,1,.57,1.41.88l.63.43.23.17.67.51c.26.2.51.4.76.62s.3.25.45.39.39.34.58.52.55.51.8.78a25.79,25.79,0,0,1,2.88,3.46c.22.31.43.62.62.94s.41.63.59,1,.38.66.55,1,.35.67.5,1,.23.49.33.74.17.38.24.57.19.46.27.7a.9.9,0,0,1,.08.21c.09.23.17.47.25.71s.18.54.25.81l.06.18c.09.31.17.62.25.93l.08.32c.07.31.14.63.2,1a2.07,2.07,0,0,1,0,.22q.08.35.12.69c0,.22.08.44.1.67a1.38,1.38,0,0,1,0,.2c0,.34.08.68.11,1s.07.79.08,1.19,0,.81,0,1.21S101.6,74.65,101.58,75.05Zm.85-20.51a7,7,0,1,1,7-7A7,7,0,0,1,102.43,54.54Z"/><path class="cls-2" d="M62,97.09,61.9,97,61.8,97a25.69,25.69,0,0,1-3.18-2.15c-.24-.18-.47-.37-.69-.55A25.93,25.93,0,0,1,55,91.43c-.28-.32-.56-.65-.83-1l-.3-.38c-.25-.32-.5-.66-.74-1-.35-.51-.69-1-1-1.56-.19-.32-.38-.65-.56-1s-.28-.53-.42-.81c-.3-.59-.57-1.2-.82-1.82s-.49-1.25-.69-1.89c-.1-.32-.2-.64-.29-1s-.12-.43-.17-.65-.11-.41-.15-.62a26.67,26.67,0,0,1-.66-5.9c0-.63,0-1.25.07-1.87,0-.31,0-.62.08-.93s.06-.61.11-.91.05-.37.08-.55c.12-.76.27-1.5.46-2.23q.08-.34.18-.69c.08-.29.16-.57.25-.85s.18-.56.28-.84.18-.52.28-.77c.2-.51.41-1,.64-1.5.13-.29.26-.57.4-.84s.43-.83.66-1.23.47-.8.72-1.19.69-1,1-1.52.75-1,1.15-1.44c.2-.24.41-.47.62-.69a27.13,27.13,0,0,1,2.44-2.35c.31-.26.63-.51,1-.76s.89-.66,1.35-1l.55-.35c.39-.25.78-.5,1.18-.72l-.93.55-.56.35-.1.06c-.22.14-.43.29-.64.44s-.49.35-.73.53-.43.33-.64.51-.51.4-.76.62l-.55.49c-.49.44-1,.9-1.4,1.38-.15.15-.29.3-.43.46l-.65.75c-.21.25-.41.5-.61.76s-.28.35-.4.53-.26.35-.38.53A26.23,26.23,0,0,0,49.8,65a5.05,5.05,0,0,0-.18.55c-.21.63-.39,1.27-.55,1.92-.07.29-.14.58-.2.87s-.11.53-.15.8c-.1.52-.17,1-.23,1.59,0,.24-.05.47-.07.71s0,.35-.05.52,0,.56,0,.85,0,.66,0,1,0,.71,0,1.06l0,.61c0,.2,0,.4,0,.6.05.64.13,1.28.23,1.92,0,.25.08.49.13.74a24,24,0,0,0,.56,2.37c.08.29.16.58.26.86s.17.54.27.8c0,.09.06.19.1.28a.42.42,0,0,0,0,.1c.09.24.18.48.28.72a25.64,25.64,0,0,0,1.82,3.63c.18.3.37.6.56.9a28.45,28.45,0,0,0,2.16,2.85l.62.69c.19.2.37.4.57.59a26,26,0,0,0,2.41,2.15q.53.42,1.08.81t1,.69l.22.15.45.27.3.17a5.5,5.5,0,0,0,.48.28c.26.15.53.3.8.43l0,0h0l.84.41c-.47-.23-.93-.47-1.38-.71Zm2.43-47.72c.67-.29,1.36-.55,2.06-.79A21.34,21.34,0,0,0,64.43,49.37Zm3.93,40c-.22-.09-.43-.19-.65-.3s-.48-.24-.71-.37-.73-.42-1.08-.65-.68-.47-1-.72c-.17-.13-.34-.26-.5-.4a16.23,16.23,0,0,1-1.75-1.67,17.57,17.57,0,0,1-1.31-1.65.22.22,0,0,1-.05-.08q-.22-.31-.42-.63c-.1-.16-.2-.32-.29-.49s-.15-.26-.22-.39-.16-.29-.23-.44A13.59,13.59,0,0,1,59.47,80c-.08-.2-.15-.4-.22-.6L59.1,79c-.06-.19-.11-.38-.16-.57s-.09-.33-.13-.5-.1-.42-.14-.62l0-.15c0-.19-.07-.39-.09-.58a16.36,16.36,0,0,1,0-5.1c0-.19.06-.39.09-.58l0-.15c0-.21.09-.41.14-.62s.08-.33.13-.5.1-.38.16-.57l.15-.44c.06-.2.14-.4.22-.6a13.59,13.59,0,0,1,.67-1.51c.09-.2.2-.39.3-.57s.29-.51.44-.75.25-.4.39-.59.3-.44.47-.66c.29-.39.6-.76.92-1.12.18-.2.37-.39.56-.58s.36-.36.54-.52l.36-.32a.16.16,0,0,1,.08-.06l.21-.19.14-.11.36-.29.58-.42a14.81,14.81,0,0,0-1.88,1.49l-.56.54a6.92,6.92,0,0,0-.53.56l-.45.53a.28.28,0,0,0-.07.09c-.16.19-.31.39-.45.58a14.77,14.77,0,0,0-1.13,1.74h0c-.16.3-.32.6-.47.91-.07.16-.15.31-.22.47a5.16,5.16,0,0,0-.21.49c-.13.32-.25.65-.36,1s-.2.62-.28.94a14.54,14.54,0,0,0-.45,2.2c0,.3-.07.6-.09.91s0,.84,0,1.26A16.69,16.69,0,0,0,70,90C69.46,89.79,68.91,89.58,68.36,89.34ZM66.81,59.49s0,0-.07,0a1.49,1.49,0,0,0-.24.14.1.1,0,0,0-.07.05l-.37.23-.38.25-.19.14c.26-.18.53-.37.8-.53ZM70.29,58c.49-.15,1-.27,1.5-.38A12.67,12.67,0,0,0,70.29,58ZM91.75,73.27c0-.12,0-.25,0-.37l0-.38c0-.25,0-.49-.08-.74l-.09-.63c-.1-.52-.21-1-.35-1.53l-.09-.32L91,68.9a2.25,2.25,0,0,0-.08-.24l-.15-.42c0-.11-.08-.22-.13-.33a16.18,16.18,0,0,0-1.75-3.32l-.09-.13-.16-.22-.38-.51c-.4-.5-.82-1-1.26-1.43q-.45-.45-.93-.87l-.49-.4a6.12,6.12,0,0,0-.5-.39c-.34-.26-.69-.5-1-.73s-.67-.41-1-.59l-.09,0c-.31-.17-.64-.33-1-.47l.69.34c.23.11.44.23.66.36s.44.25.65.39l.5.32a16.43,16.43,0,0,1,1.32,1c.2.16.38.33.57.5a16.74,16.74,0,0,1,2.91,3.52c.12.19.24.39.35.6s.25.44.36.67a17.61,17.61,0,0,1,.81,1.89c.06.18.13.36.18.54s.18.59.26.89l.12.51.12.56a5.81,5.81,0,0,1,.09.58,16.36,16.36,0,0,1,0,5.1,5.81,5.81,0,0,1-.09.58l-.12.56-.12.51c-.08.3-.17.6-.26.89l-.18.54c-.06.17-.12.34-.19.5s-.15.38-.24.57a16.69,16.69,0,0,1-3.9,5.51l-.32.29a12.51,12.51,0,0,1-1,.81c-.17.14-.35.27-.52.39a17,17,0,0,1-2.66,1.52l-.7.3-.72.27-.12.05A16.68,16.68,0,0,0,91.77,74C91.77,73.78,91.76,73.52,91.75,73.27Zm9.83-.64c0-.4,0-.8-.08-1.19s-.06-.68-.11-1a1.38,1.38,0,0,0,0-.2c0-.23-.06-.45-.1-.67s-.07-.46-.12-.69a2.07,2.07,0,0,0,0-.22c-.06-.32-.13-.64-.2-1l-.08-.32c-.08-.31-.16-.62-.25-.93l-.06-.18c-.07-.27-.16-.54-.25-.81s-.16-.48-.25-.71a.9.9,0,0,0-.08-.21c-.08-.24-.17-.47-.27-.7s-.15-.38-.24-.57-.21-.49-.33-.74-.33-.68-.5-1-.36-.67-.55-1-.38-.65-.59-1-.41-.63-.62-.94A25.79,25.79,0,0,0,94,55.15c-.26-.27-.53-.53-.8-.78s-.38-.36-.58-.52-.3-.27-.45-.39-.5-.42-.76-.62l-.67-.51-.23-.17-.63-.43c-.46-.31-.93-.61-1.41-.88q-.28-.18-.57-.33c-.12-.07-.24-.14-.37-.2s-.46-.25-.7-.36-.58-.28-.88-.42l-.71-.3c-.17-.08-.35-.15-.52-.21-.32-.13-.64-.24-1-.35s-.77-.26-1.17-.38-.74-.21-1.12-.3-.86-.21-1.29-.29c-.81-.16-1.64-.28-2.48-.36a26.62,26.62,0,0,1,0,53c.84-.08,1.67-.2,2.48-.36.43-.08.86-.18,1.29-.29s.75-.19,1.12-.3.64-.19,1-.3l.55-.2c.27-.09.54-.19.8-.3h0c.37-.15.73-.3,1.09-.47s.71-.33,1.06-.51l.07,0c.35-.18.69-.36,1-.56l.88-.52.28-.18.79-.52a.71.71,0,0,0,.14-.1c.29-.2.59-.42.88-.64l.06,0c.27-.2.54-.41.8-.63l.15-.13c.2-.16.39-.33.58-.5a25.42,25.42,0,0,0,2-2c.51-.56,1-1.14,1.44-1.73s.9-1.23,1.3-1.87c.2-.31.4-.63.58-1s.35-.62.52-.94a.3.3,0,0,0,0-.08c.17-.33.34-.66.49-1s.25-.54.37-.82.13-.3.19-.46.22-.55.32-.83.21-.56.29-.84.16-.47.23-.7l.09-.32c.09-.29.17-.57.23-.86l.09-.35c.07-.29.14-.59.19-.89a2.56,2.56,0,0,0,0-.27,6.71,6.71,0,0,0,.13-.76c0-.29.1-.58.13-.87s.08-.63.1-.94.07-.79.08-1.19,0-.81,0-1.21S101.6,73,101.58,72.63Z"/><path class="cls-1" d="M91.71,74l-.29,3.13-.12.56-.12.51c-.08.3-.17.6-.26.89l-.18.54c-.06.17-.12.34-.19.5s-.15.38-.24.57a16.69,16.69,0,0,1-3.9,5.51l-.32.29a12.51,12.51,0,0,1-1,.81c-.17.14-.35.27-.52.39a17,17,0,0,1-2.66,1.52l-.7.3-.72.27-.29.09c-.1,0-.2.07-.3.09a.32.32,0,0,1-.09,0l0,0-.45.13a16.17,16.17,0,0,1-4.32.56,15,15,0,0,1-1.65-.08c-.53,0-1-.13-1.56-.23s-.71-.16-1.06-.25L70,90c-.57-.19-1.12-.4-1.67-.64-.22-.09-.43-.19-.65-.3s-.48-.24-.71-.37-.73-.42-1.08-.65-.68-.47-1-.72c-.17-.13-.34-.26-.5-.4a16.23,16.23,0,0,1-1.75-1.67,17.57,17.57,0,0,1-1.31-1.65.22.22,0,0,1-.05-.08q-.22-.31-.42-.63c-.1-.16-.2-.32-.29-.49s-.15-.26-.22-.39-.16-.29-.23-.44A13.59,13.59,0,0,1,59.47,80c-.08-.2-.15-.4-.22-.6L59.1,79c-.06-.19-.11-.38-.16-.57s-.09-.33-.13-.5-.1-.42-.14-.62l0-.15c0-.19-.07-.39-.09-.58a16.36,16.36,0,0,1,0-5.1c0-.19.06-.39.09-.58l0-.15c0-.21.09-.41.14-.62s.08-.33.13-.5.1-.38.16-.57l.15-.44c.07-.2.14-.4.22-.6a13.59,13.59,0,0,1,.67-1.51c.09-.2.2-.39.3-.57s.29-.51.44-.75.25-.4.39-.59.3-.44.47-.66c.29-.39.6-.76.92-1.12.18-.2.37-.39.56-.58s.35-.35.54-.52l.36-.32a.16.16,0,0,1,.08-.06l.21-.19.14-.11.36-.29c.25-.19.5-.38.77-.56l.38-.25.75-.45.53-.29.76-.38c.43-.2.86-.37,1.3-.53l.16-.06.73-.23c.49-.15,1-.27,1.5-.38s1-.18,1.56-.23,1.09-.08,1.65-.08,1.15,0,1.71.08,1.05.13,1.56.23l.65.14.23.06.58.17h0l.73.23.72.27.07,0,.63.27.69.34q.33.16.66.36c.22.12.44.25.65.39l.5.32a16.43,16.43,0,0,1,1.32,1c.2.16.38.33.57.5a16.74,16.74,0,0,1,2.91,3.52c.12.19.24.39.35.6s.25.44.36.67a17.61,17.61,0,0,1,.81,1.89c.06.18.13.36.18.54s.18.59.26.89l.12.51.12.56a5.81,5.81,0,0,1,.09.58A16.45,16.45,0,0,1,91.71,74Z"/></g></svg>