<svg xmlns="http://www.w3.org/2000/svg" viewBox="0 0 83.05 78.37"><defs><style>.cls-1{fill:#1d1d1b;}</style></defs><g id="like"><rect class="cls-1" x="12.04" y="37.96" width="11.15" height="33.59"/><path class="cls-1" d="M61.56,71.55H24.2V34.24L29.39,29a3.84,3.84,0,0,0,1-1.77c.78-3,2.32-5.75,2.91-8.85.48-2.54-.15-6.29-.18-9.39A2.13,2.13,0,0,1,35.6,6.86L37,7.13a6.38,6.38,0,0,1,5.1,5.21l2.26,13.41a2.94,2.94,0,0,0,2.9,2.46h20.4a3.3,3.3,0,0,1,3.28,3l.06.56a8.71,8.71,0,0,1-.85,4.6l-.38.78a6.78,6.78,0,0,0-.67,3.49l.18,2.14a8.57,8.57,0,0,1-.82,4.4l-.49,1a6.65,6.65,0,0,0-.63,3.51l.17,1.77A8.68,8.68,0,0,1,66.69,58l-.51,1.07a6.69,6.69,0,0,0-.62,3.49l.17,1.78a8.58,8.58,0,0,1-.79,4.49l-.4.85A3.31,3.31,0,0,1,61.56,71.55Z"/></g></svg>