<svg xmlns="http://www.w3.org/2000/svg" viewBox="0 0 150 137.89"><defs><style>.cls-1{fill:#1d1d1b;}</style></defs><g id="amazon"><path class="cls-1" d="M110.88,43.54c0,6.56.1,12.15,0,17.73a19.62,19.62,0,0,0,4.73,13.42,7.94,7.94,0,0,1,1.91,3,2.54,2.54,0,0,1-.73,2.68q-6,5.43-12.28,10.58a3.47,3.47,0,0,1-4.42-.21,40.7,40.7,0,0,1-7.73-8.93c-.73-1.11-.75-1.09-1.68-.14C87,85.38,83.11,88.79,78.1,90.42c-7.07,2.3-14.32,2.86-21.5.52a19.67,19.67,0,0,1-13.45-13.6c-2.92-9.82-2-19.16,4.51-27.49a25.55,25.55,0,0,1,8.81-7,54.78,54.78,0,0,1,16.93-5c4.74-.7,9.51-1.12,14.28-1.51.42,0,.89.06.87-.64-.06-3,.22-6-.32-9-.94-5.15-4.62-8.2-10.12-8.38-5.13-.17-11.83,2.57-13.4,9.94A3,3,0,0,1,61,30.93q-7.12-.84-14.24-1.78a2.56,2.56,0,0,1-2.36-3.33C46.48,15.27,52.67,8.14,62.65,4.47a45.94,45.94,0,0,1,33,.07c5.15,2,9.47,5,12.2,10a26,26,0,0,1,2.86,11C111.13,31.82,110.74,38.17,110.88,43.54ZM88.55,54.7c0-1.56,0-3.12,0-4.68,0-.83-.26-1.05-1-1a51,51,0,0,0-10,.94c-4,.87-7.69,2.6-10.11,6.08-3.21,4.6-3.49,9.67-1.6,14.83a8.61,8.61,0,0,0,8.92,5.79,11.63,11.63,0,0,0,7.29-3,19.93,19.93,0,0,0,6-11.1A37.61,37.61,0,0,0,88.55,54.7Z"/><path class="cls-1" d="M74.82,136.45C53.71,136,35.66,131.09,19,121.23A106.87,106.87,0,0,1,1.89,108.59l-.24-.22c-.55-.56-1.12-1.16-.51-2s1.39-.63,2.14-.22c1.41.76,2.78,1.56,4.19,2.32a144.53,144.53,0,0,0,38.28,13.89,146.74,146.74,0,0,0,33.17,3.24,144.15,144.15,0,0,0,41.36-6.88q5.86-1.87,11.53-4.25a7.13,7.13,0,0,1,1.55-.48,2.2,2.2,0,0,1,2.45,1.22,2,2,0,0,1-.72,2.51,46.33,46.33,0,0,1-5.19,3.57,105.43,105.43,0,0,1-39.53,13.9A107.54,107.54,0,0,1,74.82,136.45Z"/><path class="cls-1" d="M132.88,108.7a92.9,92.9,0,0,0-9.83.93c-.61.08-1.31.31-1.63-.42s.23-1.26.76-1.63a21.92,21.92,0,0,1,8-3.62,34.19,34.19,0,0,1,15.84-.14c2.61.63,3.28,1.38,3.11,4-.53,8.05-3.14,15.28-8.89,21.16a4.32,4.32,0,0,1-1.65,1.21,1.05,1.05,0,0,1-1.13-.1,1,1,0,0,1-.21-1.19c.72-1.86,1.46-3.71,2.15-5.58a48.4,48.4,0,0,0,2.62-9.06c.6-3.72-.38-5-4.1-5.44A31.67,31.67,0,0,0,132.88,108.7Z"/></g></svg>