<svg xmlns="http://www.w3.org/2000/svg" viewBox="0 0 83.05 78.37"><defs><style>.cls-1{fill:none;}.cls-1,.cls-2{stroke:#1d1d1b;stroke-miterlimit:10;}.cls-2,.cls-3{fill:#1d1d1b;}</style></defs><g id="cartao-credito"><path class="cls-1" d="M77.44,19.57v34.3a5.29,5.29,0,0,1-5.28,5.28H5.62A5.29,5.29,0,0,1,.74,53.87V19.57A5.28,5.28,0,0,1,6,14.29H72.16a5.28,5.28,0,0,1,5.27,5C77.44,19.35,77.44,19.46,77.44,19.57Z"/><rect class="cls-2" x="0.74" y="21.87" width="76.7" height="10.06"/><rect class="cls-3" x="4.7" y="35.4" width="24.9" height="3.96"/><path class="cls-1" d="M82.29,36.88V58.82A5.26,5.26,0,0,1,77,64.09H10.89a5.26,5.26,0,0,1-5.27-5H72.16a5.29,5.29,0,0,0,5.28-5.28v-17Z"/><path class="cls-1" d="M82.29,24.51v2.31H77.44V19.57c0-.11,0-.22,0-.32A5.26,5.26,0,0,1,82.29,24.51Z"/><rect class="cls-2" x="77.44" y="26.82" width="4.85" height="10.06"/><rect class="cls-2" x="82.29" y="26.82" width="0.01" height="10.06"/></g></svg>