<svg xmlns="http://www.w3.org/2000/svg" viewBox="0 0 150 150"><defs><style>.cls-1{fill:#1d1d1b;}</style></defs><g id="cadeado"><path class="cls-1" d="M127.41,61.5h-1.34V39.23a38,38,0,0,0-38-38H62a38,38,0,0,0-38,38V61.5H22.59A13.5,13.5,0,0,0,9.08,75v60.3a13.5,13.5,0,0,0,13.51,13.49H127.41a13.5,13.5,0,0,0,13.51-13.49V75A13.5,13.5,0,0,0,127.41,61.5ZM81.19,108v6.7a5.46,5.46,0,0,1-5.45,5.47H74.28a5.46,5.46,0,0,1-5.47-5.47V108A9.93,9.93,0,0,1,65,100.14a10,10,0,1,1,20,0A9.93,9.93,0,0,1,81.19,108ZM116.81,61.5H33.19V41.19A28.76,28.76,0,0,1,62,12.45h26.1a28.76,28.76,0,0,1,28.76,28.74Z"/></g></svg>