<svg id="Camada_1" data-name="Camada 1" xmlns="http://www.w3.org/2000/svg" viewBox="0 0 150 150"><defs><style>.cls-1{fill:#3dc44f;}.cls-2{fill:#fff;}</style></defs><g id="Whatsapp"><path class="cls-1" d="M74.9,149a73.51,73.51,0,0,1-39.24-11.33v-.45h-1c-.7,0-14.43,3.86-26.54,7.3l7.44-25.45-.29-.4A74,74,0,1,1,75,149Z" transform="translate(0 0)"/><path class="cls-2" d="M75,0V2a73.64,73.64,0,0,1,32.57,7.63,73.06,73.06,0,0,1,39.61,76.59A73,73,0,0,1,75,148H74.9a72.46,72.46,0,0,1-38.25-10.89v-.9h-2c-.34,0-1.09,0-25.06,6.84l6.79-23.24.28-.94-.59-.8A73,73,0,0,1,74.94,2V0m0,0A75,75,0,0,0,14.45,119.25L6.64,146s27.26-7.75,28-7.75h0A74.58,74.58,0,0,0,74.9,150H75A75,75,0,1,0,74.94,0Z" transform="translate(0 0)"/><path class="cls-2" d="M122.78,98.63a18.07,18.07,0,0,1-15.91,17.87c-41,4.28-74.63-25.69-75.16-66.89a18.06,18.06,0,0,1,15.9-17.87,15.43,15.43,0,0,1,8.4,1.5l4.16,24a18.15,18.15,0,0,1-10,6.54,51.64,51.64,0,0,0,40.55,36,18,18,0,0,1,5.33-10.62l24.26,1.34a14.7,14.7,0,0,1,2.27,6A16.49,16.49,0,0,1,122.78,98.63Z" transform="translate(0 0)"/></g></svg>