<svg xmlns="http://www.w3.org/2000/svg" xmlns:xlink="http://www.w3.org/1999/xlink" viewBox="0 0 1080 1080"><defs><style>.cls-1{fill:url(#Gradiente_sem_nome_512);}.cls-2{fill:url(#Gradiente_sem_nome_506);}.cls-3{fill:url(#Gradiente_sem_nome_264);}</style><linearGradient id="Gradiente_sem_nome_512" x1="54.48" y1="869.18" x2="508.2" y2="869.18" gradientUnits="userSpaceOnUse"><stop offset="0" stop-color="#ff8232"/><stop offset="1" stop-color="#ffa050"/></linearGradient><linearGradient id="Gradiente_sem_nome_506" x1="54.48" y1="460.02" x2="1025.52" y2="460.02" gradientUnits="userSpaceOnUse"><stop offset="0" stop-color="#ff8250"/><stop offset="0.33" stop-color="#ff884b"/><stop offset="0.74" stop-color="#ff973e"/><stop offset="1" stop-color="#ffa532"/></linearGradient><linearGradient id="Gradiente_sem_nome_264" x1="54.48" y1="351.94" x2="985.47" y2="351.94" gradientUnits="userSpaceOnUse"><stop offset="0" stop-color="#ffa050"/><stop offset="1" stop-color="#ff8232"/></linearGradient></defs><g id="Camada_3" data-name="Camada 3"><path class="cls-1" d="M508.2,658.35l-8.88.1V940.13A139.85,139.85,0,0,1,359.49,1080h-305V795.91A277.23,277.23,0,0,1,227.07,663.23a150.44,150.44,0,0,1,38.09-4.88Z"/><path class="cls-2" d="M1025.52,328.13A328.14,328.14,0,0,1,701,656.24l-191.52,2.11H265.16a150.44,150.44,0,0,0-38.09,4.88A277.23,277.23,0,0,0,54.48,795.91v-92A262.6,262.6,0,0,1,244.05,599.8l236.8.1L680,597.69c88.8-1,168.95-38.06,226.88-97.36a328,328,0,0,0,50.32-66.71,216.83,216.83,0,0,0,28.23-104.51A643.68,643.68,0,0,0,983,264.38a638.62,638.62,0,0,0-28.62-140.26A326.68,326.68,0,0,1,1025.52,328.13Z"/><path class="cls-3" d="M985.41,329.11a216.83,216.83,0,0,1-28.23,104.51,328,328,0,0,1-50.32,66.71c-57.93,59.3-138.08,96.35-226.88,97.36L480.85,599.9l-236.8-.1A262.6,262.6,0,0,0,54.48,703.89V552.41A114.44,114.44,0,0,1,169,438H438.6V540L672.43,343.36,438.6,146.7v99.92H169A114.44,114.44,0,0,1,54.48,132.16v-17.7A114.44,114.44,0,0,1,169,0H697.38a327.54,327.54,0,0,1,257,124.06s0,0,0,.06A638.62,638.62,0,0,1,983,264.38,643.68,643.68,0,0,1,985.41,329.11Z"/></g></svg>