<svg id="Camada_2" data-name="Camada 2"
    xmlns="http://www.w3.org/2000/svg"
    xmlns:xlink="http://www.w3.org/1999/xlink" viewBox="0 0 944.19 332.03">
    <defs>
        <style>
			.cls-1{fill:url(#Gradiente_sem_nome_512);}.cls-2{fill:url(#Gradiente_sem_nome_506);}.cls-3{fill:url(#Gradiente_sem_nome_3);}.cls-4{fill:#ff8232;}
        </style>
        <linearGradient id="Gradiente_sem_nome_512" y1="267.21" x2="139.49" y2="267.21" gradientUnits="userSpaceOnUse">
            <stop offset="0" stop-color="#ff8232" />
            <stop offset="1" stop-color="#ffa050" />
        </linearGradient>
        <linearGradient id="Gradiente_sem_nome_506" y1="141.42" x2="298.53" y2="141.42" gradientUnits="userSpaceOnUse">
            <stop offset="0" stop-color="#ff8250" />
            <stop offset="0.33" stop-color="#ff884b" />
            <stop offset="0.74" stop-color="#ff973e" />
            <stop offset="1" stop-color="#ffa532" />
        </linearGradient>
        <linearGradient id="Gradiente_sem_nome_3" y1="108.2" x2="286.22" y2="108.2" gradientUnits="userSpaceOnUse">
            <stop offset="0" stop-color="#ffa050" />
            <stop offset="1" stop-color="#ff8232" />
        </linearGradient>
    </defs>
    <path class="cls-1" d="M139.49,202.4l-2.73,0V289a43,43,0,0,1-43,43H0V244.69A85.23,85.23,0,0,1,53.06,203.9a46.2,46.2,0,0,1,11.71-1.5Z" />
    <path class="cls-2" d="M298.53,100.88a100.88,100.88,0,0,1-99.78,100.87l-58.88.65H64.77a46.2,46.2,0,0,0-11.71,1.5A85.23,85.23,0,0,0,0,244.69V216.4a80.73,80.73,0,0,1,58.28-32l72.8,0,61.22-.68a98.78,98.78,0,0,0,69.75-29.93,101,101,0,0,0,15.47-20.51,66.66,66.66,0,0,0,8.68-32.13,198.13,198.13,0,0,0-.74-19.9,196.44,196.44,0,0,0-8.8-43.12A100.43,100.43,0,0,1,298.53,100.88Z" />
    <path class="cls-3" d="M286.2,101.18a66.66,66.66,0,0,1-8.68,32.13,101,101,0,0,1-15.47,20.51,98.78,98.78,0,0,1-69.75,29.93l-61.22.68-72.8,0A80.73,80.73,0,0,0,0,216.4V169.83a35.18,35.18,0,0,1,35.19-35.19h82.9V166L190,105.56,118.09,45.1V75.82H35.19A35.18,35.18,0,0,1,0,40.63V35.19A35.18,35.18,0,0,1,35.19,0H197.65a100.69,100.69,0,0,1,79,38.14v0a196.44,196.44,0,0,1,8.8,43.12A198.13,198.13,0,0,1,286.2,101.18Z" />
    <path class="cls-4" d="M354.34,222.22V112.88h40.73q12.65,0,21.78,4.76A33.58,33.58,0,0,1,431,131.31q5,8.91,5,21.09,0,12.33-5,21.16a34.18,34.18,0,0,1-14.11,13.67q-9.15,4.85-21.78,4.84H366.31l9.94-11.4v41.55Zm21.91-38.74-9.94-12h27.55q9.94,0,15.06-5t5.11-14q0-9.06-5.11-14t-15.06-4.92H366.31l9.94-12Z" />
    <path class="cls-4" d="M452.6,222.22V112.88h40.73q12.63,0,21.78,4.76a33.64,33.64,0,0,1,14.11,13.67q5,8.91,5,21.09,0,12.33-5,21.16A32.77,32.77,0,0,1,515.11,187q-9.15,4.6-21.78,4.6H464.57l9.94-10.93v41.55Zm21.91-38.74-9.94-12h27.55q9.94,0,15.06-5t5.1-14q0-9.06-5.1-14t-15.06-4.92H464.57l9.94-12Zm38,38.74-23.66-39.68h23.39l23.66,39.68Z" />
    <path class="cls-4" d="M597.23,224.09a48.93,48.93,0,0,1-37-16.08,54.51,54.51,0,0,1-10.82-18,68.18,68.18,0,0,1,0-45.06,54.65,54.65,0,0,1,10.82-17.89A48.68,48.68,0,0,1,597.1,111a50.2,50.2,0,0,1,20.5,4.14,48.57,48.57,0,0,1,16.33,11.8,54.36,54.36,0,0,1,10.82,18,68.65,68.65,0,0,1,0,45.22,54.12,54.12,0,0,1-10.82,18A48.41,48.41,0,0,1,617.6,220,49.72,49.72,0,0,1,597.23,224.09Zm-.13-21.4a26.4,26.4,0,0,0,11.63-2.57,28.45,28.45,0,0,0,9.34-7.35,34.7,34.7,0,0,0,6.25-11.09,46.11,46.11,0,0,0,0-28.27,34.8,34.8,0,0,0-6.25-11.09,28.55,28.55,0,0,0-9.34-7.34,26.26,26.26,0,0,0-11.63-2.58A26.65,26.65,0,0,0,585.41,135a27.69,27.69,0,0,0-9.35,7.34,35.63,35.63,0,0,0-6.18,11.09,46.11,46.11,0,0,0,0,28.27,35.52,35.52,0,0,0,6.18,11.09,27.59,27.59,0,0,0,9.35,7.35A26.78,26.78,0,0,0,597.1,202.69Z" />
    <path class="cls-4" d="M665,222.22V112.88h21.91V201.6H733.8v20.62Z" />
    <path class="cls-4" d="M792,224.09A48.93,48.93,0,0,1,755,208a54.51,54.51,0,0,1-10.82-18,68.18,68.18,0,0,1,0-45.06A54.65,54.65,0,0,1,755,127.09,48.68,48.68,0,0,1,791.87,111a50.2,50.2,0,0,1,20.5,4.14,48.57,48.57,0,0,1,16.33,11.8,54.36,54.36,0,0,1,10.82,18,68.65,68.65,0,0,1,0,45.22,54.12,54.12,0,0,1-10.82,18A48.41,48.41,0,0,1,812.37,220,49.72,49.72,0,0,1,792,224.09Zm-.13-21.4a26.4,26.4,0,0,0,11.63-2.57,28.45,28.45,0,0,0,9.34-7.35,34.7,34.7,0,0,0,6.25-11.09,46.11,46.11,0,0,0,0-28.27,34.8,34.8,0,0,0-6.25-11.09A28.55,28.55,0,0,0,803.5,135a26.26,26.26,0,0,0-11.63-2.58A26.65,26.65,0,0,0,780.18,135a27.69,27.69,0,0,0-9.35,7.34,35.63,35.63,0,0,0-6.18,11.09,46.11,46.11,0,0,0,0,28.27,35.52,35.52,0,0,0,6.18,11.09,27.59,27.59,0,0,0,9.35,7.35A26.78,26.78,0,0,0,791.87,202.69Z" />
    <path class="cls-4" d="M905.18,224.09A50.45,50.45,0,0,1,884.62,220a46.85,46.85,0,0,1-16.27-11.79,55.59,55.59,0,0,1-10.68-18,68.89,68.89,0,0,1,0-45.3,54.36,54.36,0,0,1,10.82-18,48.35,48.35,0,0,1,16.4-11.8,54.26,54.26,0,0,1,43.21.71A45.37,45.37,0,0,1,945,129.9l-13.84,15a35.33,35.33,0,0,0-11.3-9.45,30.72,30.72,0,0,0-25.67-.47,28.63,28.63,0,0,0-9.74,7.26,33.13,33.13,0,0,0-6.32,11.09,45.88,45.88,0,0,0,0,28.2,32.93,32.93,0,0,0,6.32,11.17,29.77,29.77,0,0,0,9.67,7.34,28.26,28.26,0,0,0,12.3,2.65,32.89,32.89,0,0,0,12.57-2.5,36.64,36.64,0,0,0,11.9-8.27l12.36,18.27a53.15,53.15,0,0,1-17.87,10.39A61,61,0,0,1,905.18,224.09Zm18.15-17.18V165.83h19.89v44.36Z" />
    <path class="cls-4" d="M361.78,277.62a15.48,15.48,0,0,1-4.69-.7,10.67,10.67,0,0,1-3.59-1.82l1.35-3a10.93,10.93,0,0,0,3.12,1.65,11.31,11.31,0,0,0,3.81.66,8.19,8.19,0,0,0,2.67-.36,3.18,3.18,0,0,0,1.5-1,2.22,2.22,0,0,0,.48-1.4,1.92,1.92,0,0,0-.69-1.54,5.07,5.07,0,0,0-1.78-.93q-1.09-.35-2.43-.63c-.89-.19-1.78-.43-2.67-.71a12.07,12.07,0,0,1-2.45-1.06,4.83,4.83,0,0,1-2.46-4.49,5.67,5.67,0,0,1,.92-3.13,6.3,6.3,0,0,1,2.79-2.28,11.46,11.46,0,0,1,4.75-.86,15,15,0,0,1,3.75.48,10.85,10.85,0,0,1,3.24,1.38l-1.23,3a11.54,11.54,0,0,0-2.91-1.24,11.06,11.06,0,0,0-2.88-.41,7.4,7.4,0,0,0-2.61.39,3.14,3.14,0,0,0-1.48,1,2.37,2.37,0,0,0-.47,1.42,2,2,0,0,0,.68,1.55,4.76,4.76,0,0,0,1.77.91c.73.22,1.54.43,2.44.63s1.79.44,2.67.71a11.57,11.57,0,0,1,2.43,1,5.15,5.15,0,0,1,1.79,1.71,5,5,0,0,1,.67,2.71,5.65,5.65,0,0,1-.91,3.11,6.31,6.31,0,0,1-2.81,2.28A11.6,11.6,0,0,1,361.78,277.62Z" />
    <path class="cls-4" d="M384,277.62a12.33,12.33,0,0,1-4.51-.81,10.82,10.82,0,0,1-3.62-2.28,10.34,10.34,0,0,1-2.37-3.43,11.37,11.37,0,0,1,0-8.58,10.2,10.2,0,0,1,2.37-3.42,11,11,0,0,1,3.6-2.27,13.06,13.06,0,0,1,9,0,10.61,10.61,0,0,1,3.59,2.25,10.23,10.23,0,0,1,2.35,3.43,11.5,11.5,0,0,1,0,8.63,10.42,10.42,0,0,1-5.94,5.7A12.45,12.45,0,0,1,384,277.62Zm0-3.42a7.76,7.76,0,0,0,2.93-.54,6.9,6.9,0,0,0,2.32-1.53,7.09,7.09,0,0,0,1.55-2.34,7.74,7.74,0,0,0,.55-3,7.93,7.93,0,0,0-.54-3,6.76,6.76,0,0,0-1.54-2.34,7.08,7.08,0,0,0-2.34-1.53,7.76,7.76,0,0,0-2.93-.54,7.93,7.93,0,0,0-3,.54,6.78,6.78,0,0,0-2.36,1.55,7.6,7.6,0,0,0,0,10.59,6.75,6.75,0,0,0,2.36,1.54A7.93,7.93,0,0,0,384,274.2Z" />
    <path class="cls-4" d="M399.4,277.32v-21h3.9V274h11v3.3Z" />
    <path class="cls-4" d="M426.37,277.62a9.12,9.12,0,0,1-6.73-2.43q-2.44-2.43-2.45-7.05V256.32h3.9V268q0,3.24,1.4,4.71a6,6,0,0,0,7.87,0q1.38-1.47,1.38-4.71v-11.7h3.84v11.82q0,4.62-2.44,7.05A9.19,9.19,0,0,1,426.37,277.62Z" />
    <path class="cls-4" d="M450.79,277.62a12.21,12.21,0,0,1-4.47-.79,10.59,10.59,0,0,1-5.91-5.69,11.53,11.53,0,0,1,0-8.64,10.4,10.4,0,0,1,2.37-3.42,10.69,10.69,0,0,1,3.57-2.26,12.9,12.9,0,0,1,9.18.09,9.32,9.32,0,0,1,3.6,2.62l-2.52,2.37a7.92,7.92,0,0,0-2.58-1.84,7.5,7.5,0,0,0-3-.62,8.1,8.1,0,0,0-3,.54,7,7,0,0,0-2.37,1.53,7.16,7.16,0,0,0-1.58,2.34,8,8,0,0,0,0,5.94,7.16,7.16,0,0,0,1.58,2.34,7,7,0,0,0,2.37,1.53,8.1,8.1,0,0,0,3,.54,7.49,7.49,0,0,0,3-.61,7.77,7.77,0,0,0,2.58-1.88l2.52,2.37a9.47,9.47,0,0,1-3.6,2.64A12.06,12.06,0,0,1,450.79,277.62Zm-1.41,6.51a7.06,7.06,0,0,1-1.5-.15,4.48,4.48,0,0,1-1.23-.45l.66-1.77a5.42,5.42,0,0,0,1,.36,4.32,4.32,0,0,0,1.05.12,2,2,0,0,0,1.25-.3.92.92,0,0,0,.37-.75.86.86,0,0,0-.39-.75,2.2,2.2,0,0,0-1.23-.27h-.93l.81-3.09h2l-.39,1.71a3,3,0,0,1,2,.86,2.48,2.48,0,0,1-.47,3.73A5.23,5.23,0,0,1,449.38,284.13Z" />
    <path class="cls-4" d="M472.72,277.62a12.33,12.33,0,0,1-4.51-.81,10.82,10.82,0,0,1-3.62-2.28,10.34,10.34,0,0,1-2.37-3.43,11.37,11.37,0,0,1,0-8.58,10.2,10.2,0,0,1,2.37-3.42,11,11,0,0,1,3.6-2.27,13.06,13.06,0,0,1,9,0,10.61,10.61,0,0,1,3.59,2.25,10.23,10.23,0,0,1,2.35,3.43,11.5,11.5,0,0,1,0,8.63,10.42,10.42,0,0,1-5.94,5.7A12.45,12.45,0,0,1,472.72,277.62Zm0-3.42a7.76,7.76,0,0,0,2.93-.54,6.9,6.9,0,0,0,2.32-1.53,7.09,7.09,0,0,0,1.55-2.34,7.74,7.74,0,0,0,.55-3,7.93,7.93,0,0,0-.54-3,6.76,6.76,0,0,0-1.54-2.34,7.08,7.08,0,0,0-2.34-1.53,7.76,7.76,0,0,0-2.93-.54,7.93,7.93,0,0,0-3,.54,6.78,6.78,0,0,0-2.36,1.55,7.6,7.6,0,0,0,0,10.59,6.75,6.75,0,0,0,2.36,1.54A7.93,7.93,0,0,0,472.72,274.2Zm2.16-19.56a2.68,2.68,0,0,1-1.32-.31,6.46,6.46,0,0,1-1-.71c-.31-.26-.61-.49-.89-.69a1.44,1.44,0,0,0-.84-.3,1.25,1.25,0,0,0-1,.48,2.31,2.31,0,0,0-.45,1.32h-2a4.77,4.77,0,0,1,.93-2.91,2.82,2.82,0,0,1,2.31-1.08,3,3,0,0,1,1.34.29,4.77,4.77,0,0,1,1.05.69,10.84,10.84,0,0,0,.87.69,1.4,1.4,0,0,0,.82.28,1.34,1.34,0,0,0,1-.45,1.93,1.93,0,0,0,.43-1.26h2a4.56,4.56,0,0,1-.91,2.87A2.85,2.85,0,0,1,474.88,254.64Z" />
    <path class="cls-4" d="M492,274h11.85v3.3H488.14v-21h15.33v3.3H492Zm-.3-9h10.44v3.21H491.74Z" />
    <path class="cls-4" d="M514.78,277.62a15.48,15.48,0,0,1-4.69-.7,10.67,10.67,0,0,1-3.59-1.82l1.35-3a10.93,10.93,0,0,0,3.12,1.65,11.31,11.31,0,0,0,3.81.66,8.19,8.19,0,0,0,2.67-.36,3.18,3.18,0,0,0,1.5-1,2.22,2.22,0,0,0,.48-1.4,1.92,1.92,0,0,0-.69-1.54,5.07,5.07,0,0,0-1.78-.93q-1.1-.35-2.43-.63c-.89-.19-1.78-.43-2.67-.71a12.07,12.07,0,0,1-2.45-1.06,4.83,4.83,0,0,1-2.46-4.49,5.67,5.67,0,0,1,.92-3.13,6.3,6.3,0,0,1,2.79-2.28,11.46,11.46,0,0,1,4.75-.86,15,15,0,0,1,3.75.48,10.85,10.85,0,0,1,3.24,1.38l-1.23,3a11.54,11.54,0,0,0-2.91-1.24,11.06,11.06,0,0,0-2.88-.41,7.4,7.4,0,0,0-2.61.39,3.14,3.14,0,0,0-1.48,1,2.37,2.37,0,0,0-.47,1.42,2,2,0,0,0,.68,1.55,4.76,4.76,0,0,0,1.77.91c.73.22,1.54.43,2.44.63s1.79.44,2.67.71a11.57,11.57,0,0,1,2.43,1,5.15,5.15,0,0,1,1.79,1.71,5,5,0,0,1,.67,2.71,5.65,5.65,0,0,1-.91,3.11,6.31,6.31,0,0,1-2.81,2.28A11.6,11.6,0,0,1,514.78,277.62Z" />
    <path class="cls-4" d="M535.39,277.32v-21H544a11.77,11.77,0,0,1,4.79.89,6.82,6.82,0,0,1,3.07,2.56,7.27,7.27,0,0,1,1.08,4,7.16,7.16,0,0,1-1.08,4,7.06,7.06,0,0,1-3.07,2.58,11.44,11.44,0,0,1-4.79.91h-6.45l1.71-1.8v7.86Zm3.9-7.44L537.58,268h6.27a5.94,5.94,0,0,0,3.89-1.09,4.29,4.29,0,0,0,0-6.15,5.94,5.94,0,0,0-3.89-1.1h-6.27l1.71-1.92Z" />
    <path class="cls-4" d="M554.2,277.32l9.45-21h3.84l9.48,21h-4.11l-8.1-18.93h1.56l-8.13,18.93Zm4.35-4.86,1.08-3.06h11.31l1,3.06Z" />
    <path class="cls-4" d="M579.61,277.32v-21h8.64a11.77,11.77,0,0,1,4.79.89,6.82,6.82,0,0,1,3.07,2.56,7.27,7.27,0,0,1,1.08,4,7.07,7.07,0,0,1-1.08,4A7,7,0,0,1,593,270.3a11.6,11.6,0,0,1-4.79.9H581.8l1.71-1.74v7.86Zm3.9-7.44L581.8,268h6.27a5.88,5.88,0,0,0,3.89-1.11,3.83,3.83,0,0,0,1.3-3.09,3.78,3.78,0,0,0-1.3-3.07,5.94,5.94,0,0,0-3.89-1.1H581.8l1.71-1.92Zm9.84,7.44L588,269.7h4.17l5.34,7.62Z" />
    <path class="cls-4" d="M598.57,277.32l9.45-21h3.84l9.48,21h-4.11l-8.1-18.93h1.56l-8.13,18.93Zm4.35-4.86L604,269.4h11.31l1.05,3.06Z" />
    <path class="cls-4" d="M632.23,277.32v-21h3.9V274h11v3.3Z" />
    <path class="cls-4" d="M660,277.62a12.43,12.43,0,0,1-4.52-.81,10.77,10.77,0,0,1-3.61-2.28,10.34,10.34,0,0,1-2.37-3.43,11.37,11.37,0,0,1,0-8.58,10.2,10.2,0,0,1,2.37-3.42,11,11,0,0,1,3.6-2.27,13.06,13.06,0,0,1,9,0,10.71,10.71,0,0,1,3.59,2.25,10.38,10.38,0,0,1,2.35,3.43,11.5,11.5,0,0,1,0,8.63,10.42,10.42,0,0,1-5.94,5.7A12.45,12.45,0,0,1,660,277.62Zm0-3.42a7.67,7.67,0,0,0,2.92-.54,6.94,6.94,0,0,0,2.33-1.53,7.06,7.06,0,0,0,1.54-2.34,7.56,7.56,0,0,0,.56-3,7.93,7.93,0,0,0-.54-3,6.79,6.79,0,0,0-1.55-2.34A7.08,7.08,0,0,0,663,260a7.67,7.67,0,0,0-2.92-.54,8,8,0,0,0-3,.54,6.74,6.74,0,0,0-2.35,1.55,7.6,7.6,0,0,0,0,10.59,6.71,6.71,0,0,0,2.35,1.54A8,8,0,0,0,660,274.2Z" />
    <path class="cls-4" d="M685.27,277.62a12.44,12.44,0,0,1-4.52-.79,10.66,10.66,0,0,1-3.58-2.27,10.4,10.4,0,0,1-2.37-3.42,11.53,11.53,0,0,1,0-8.64,10.28,10.28,0,0,1,2.38-3.42,10.82,10.82,0,0,1,3.6-2.26,13.54,13.54,0,0,1,9.36.07,9.46,9.46,0,0,1,3.62,2.55l-2.46,2.4a7.84,7.84,0,0,0-5.79-2.4,8.48,8.48,0,0,0-3.08.54,7,7,0,0,0-4,3.87,8,8,0,0,0,0,5.93,7,7,0,0,0,1.59,2.35,7.14,7.14,0,0,0,2.4,1.53,8.33,8.33,0,0,0,3.06.54,9.37,9.37,0,0,0,3-.49,8.24,8.24,0,0,0,2.77-1.67l2.19,2.91a11.21,11.21,0,0,1-3.78,2A14.7,14.7,0,0,1,685.27,277.62Zm4.53-3.18v-7.83h3.66V275Z" />
    <path class="cls-4" d="M698,254.61l4.05-4.11h4.44l-5.25,4.11Zm.57,22.71v-21h3.9v21Z" />
    <path class="cls-4" d="M714.64,277.62a15.55,15.55,0,0,1-4.7-.7,10.62,10.62,0,0,1-3.58-1.82l1.35-3a10.93,10.93,0,0,0,3.12,1.65,11.31,11.31,0,0,0,3.81.66,8.19,8.19,0,0,0,2.67-.36,3.18,3.18,0,0,0,1.5-1,2.22,2.22,0,0,0,.48-1.4,1.92,1.92,0,0,0-.69-1.54,5.12,5.12,0,0,0-1.79-.93q-1.09-.35-2.43-.63c-.89-.19-1.78-.43-2.67-.71a12,12,0,0,1-2.44-1.06,4.79,4.79,0,0,1-2.46-4.49,5.66,5.66,0,0,1,.91-3.13,6.3,6.3,0,0,1,2.79-2.28,11.51,11.51,0,0,1,4.76-.86,15,15,0,0,1,3.75.48,10.85,10.85,0,0,1,3.24,1.38l-1.23,3a11.54,11.54,0,0,0-2.91-1.24,11.06,11.06,0,0,0-2.88-.41,7.4,7.4,0,0,0-2.61.39,3.18,3.18,0,0,0-1.49,1,2.36,2.36,0,0,0-.46,1.42,2,2,0,0,0,.67,1.55,4.73,4.73,0,0,0,1.78.91c.72.22,1.54.43,2.44.63s1.79.44,2.67.71a11.57,11.57,0,0,1,2.43,1,5.12,5.12,0,0,1,1.78,1.71,5,5,0,0,1,.68,2.71,5.66,5.66,0,0,1-.92,3.11,6.28,6.28,0,0,1-2.8,2.28A11.6,11.6,0,0,1,714.64,277.62Z" />
    <path class="cls-4" d="M731.26,277.32v-17.7h-7v-3.3h17.82v3.3h-7v17.7Z" />
    <path class="cls-4" d="M745.06,277.32v-21H749v21Z" />
    <path class="cls-4" d="M764.32,277.62a12.21,12.21,0,0,1-4.47-.79,10.51,10.51,0,0,1-5.91-5.69,11.53,11.53,0,0,1,0-8.64,10.4,10.4,0,0,1,2.37-3.42,10.69,10.69,0,0,1,3.57-2.26,12.9,12.9,0,0,1,9.18.09,9.32,9.32,0,0,1,3.6,2.62l-2.52,2.37a7.92,7.92,0,0,0-2.58-1.84,7.5,7.5,0,0,0-3-.62,8.16,8.16,0,0,0-3,.54,7,7,0,0,0-2.37,1.53,7.14,7.14,0,0,0-1.57,2.34,8,8,0,0,0,0,5.94,7.14,7.14,0,0,0,1.57,2.34,7,7,0,0,0,2.37,1.53,8.16,8.16,0,0,0,3,.54,7.49,7.49,0,0,0,3-.61,7.77,7.77,0,0,0,2.58-1.88l2.52,2.37a9.47,9.47,0,0,1-3.6,2.64A12.06,12.06,0,0,1,764.32,277.62Z" />
    <path class="cls-4" d="M773.44,277.32l9.45-21h3.84l9.48,21H792.1L784,258.39h1.56l-8.13,18.93Zm4.35-4.86,1.08-3.06h11.31l1.05,3.06Z" />
</svg>