<svg xmlns="http://www.w3.org/2000/svg" viewBox="0 0 150 150"><defs><style>.cls-1{fill:#1d1d1b;}</style></defs><g id="entrar"><path class="cls-1" d="M138,34.16v81.68c0,7.14-7.43,12.92-16.57,12.92H83.6a2.39,2.39,0,0,1-2.4-2.4v-1.93a2.39,2.39,0,0,1,2.4-2.4h29.63c9.16,0,16.57-5.79,16.57-12.92V40.89c0-7.13-7.41-12.92-16.57-12.92H83.6a2.39,2.39,0,0,1-2.4-2.4V23.64a2.39,2.39,0,0,1,2.4-2.4h37.79C130.53,21.24,138,27,138,34.16Z"/><path class="cls-1" d="M112.06,86,93.79,100.22l-13.3,10.36-4.95,3.86s0,0-.06,0c-6.27,4.79-14.06-1.3-14.06-11V83.57H14.57a8.57,8.57,0,1,1,0-17.14H61.42V46.55c0-9.74,7.79-15.83,14.06-11,0,0,0,0,.06.05l4.95,3.86,13.3,10.36L112.06,64C118.33,68.89,118.33,81.11,112.06,86Z"/></g></svg>