<svg xmlns="http://www.w3.org/2000/svg" viewBox="0 0 83.05 78.37"><defs><style>.cls-1{fill:none;stroke:#1d1d1b;stroke-miterlimit:10;}.cls-2{fill:#1d1d1b;}</style></defs><g id="promocao"><path class="cls-1" d="M42.77,6.93l5.95-4.25a2.15,2.15,0,0,1,3.16.78L55.17,10a2.15,2.15,0,0,0,2.21,1.16l7.24-1a2.15,2.15,0,0,1,2.44,2.16l-.12,7.31a2.13,2.13,0,0,0,1.42,2.05l6.87,2.48a2.15,2.15,0,0,1,1.15,3.05l-3.5,6.41a2.16,2.16,0,0,0,.3,2.48l4.94,5.39a2.14,2.14,0,0,1-.4,3.23l-6.07,4a2.15,2.15,0,0,0-.89,2.34l1.86,7.06a2.14,2.14,0,0,1-1.85,2.68l-7.26.77a2.13,2.13,0,0,0-1.87,1.65L60,70.38a2.14,2.14,0,0,1-2.88,1.52l-6.79-2.7a2.15,2.15,0,0,0-2.42.59l-4.76,5.55a2.15,2.15,0,0,1-3.26,0l-4.75-5.55a2.16,2.16,0,0,0-2.43-.59l-6.78,2.7A2.15,2.15,0,0,1,23,70.38l-1.63-7.12a2.15,2.15,0,0,0-1.87-1.65l-7.27-.77a2.14,2.14,0,0,1-1.85-2.68l1.86-7.06a2.15,2.15,0,0,0-.88-2.34l-6.08-4a2.14,2.14,0,0,1-.39-3.23l4.93-5.39a2.15,2.15,0,0,0,.3-2.48L6.66,27.2a2.15,2.15,0,0,1,1.16-3.05l6.87-2.48a2.16,2.16,0,0,0,1.42-2.05L16,12.31a2.14,2.14,0,0,1,2.44-2.16l7.24,1A2.17,2.17,0,0,0,27.88,10l3.29-6.53a2.15,2.15,0,0,1,3.16-.78l6,4.25A2.15,2.15,0,0,0,42.77,6.93Z"/><path class="cls-2" d="M30.35,40.53a7.6,7.6,0,0,1-4.25-1.21,7.89,7.89,0,0,1-2.88-3.46,12.31,12.31,0,0,1-1-5.18,12.31,12.31,0,0,1,1-5.18,7.8,7.8,0,0,1,2.88-3.45,7.53,7.53,0,0,1,4.25-1.22,7.61,7.61,0,0,1,4.33,1.22,8.15,8.15,0,0,1,2.87,3.42,12,12,0,0,1,1,5.21,12,12,0,0,1-1,5.18,8.21,8.21,0,0,1-2.87,3.46A7.68,7.68,0,0,1,30.35,40.53Zm0-2.33a4.88,4.88,0,0,0,4.07-2A8.88,8.88,0,0,0,36,30.68a8.88,8.88,0,0,0-1.53-5.52,5.17,5.17,0,0,0-8.17,0,9,9,0,0,0-1.5,5.52,9,9,0,0,0,1.5,5.52A4.86,4.86,0,0,0,30.4,38.2ZM27.6,57.39l24.24-35.5a1.84,1.84,0,0,1,1.52-.8h2.09L31.21,56.58a1.87,1.87,0,0,1-1.52.81Zm25,.25a7.62,7.62,0,0,1-4.25-1.21A8.1,8.1,0,0,1,45.49,53a12.23,12.23,0,0,1-1-5.19,12.15,12.15,0,0,1,1-5.18,8,8,0,0,1,2.9-3.45,8.15,8.15,0,0,1,8.58,0,8,8,0,0,1,2.86,3.45,12.47,12.47,0,0,1,1,5.18,12.55,12.55,0,0,1-1,5.19A8,8,0,0,1,57,56.43,7.66,7.66,0,0,1,52.64,57.64Zm0-2.33a4.86,4.86,0,0,0,4.08-2,8.94,8.94,0,0,0,1.52-5.52,8.94,8.94,0,0,0-1.52-5.52,5.14,5.14,0,0,0-8.14,0A8.88,8.88,0,0,0,47,47.79a8.88,8.88,0,0,0,1.54,5.52A4.83,4.83,0,0,0,52.64,55.31Z"/></g></svg>