<svg xmlns="http://www.w3.org/2000/svg" viewBox="0 0 83.05 78.37"><defs><style>.cls-1{fill:#1d1d1b;}</style></defs><g id="aderir"><path d="M51.44,17.65A16.09,16.09,0,1,1,35.36,1.56,16.09,16.09,0,0,1,51.44,17.65Z"/><path class="cls-1" d="M65.26,49.26V76.81H5.45V49.26A15.54,15.54,0,0,1,21,33.72h3.61a19.29,19.29,0,0,0,21.52,0h3.63A15.53,15.53,0,0,1,65.26,49.26Z"/><polygon class="cls-1" points="77.59 6.37 77.59 9.87 72.79 9.87 72.79 14.67 69.3 14.67 69.3 9.87 64.5 9.87 64.5 6.37 69.3 6.37 69.3 1.56 72.79 1.56 72.79 6.37 77.59 6.37"/></g></svg>