<svg xmlns="http://www.w3.org/2000/svg" viewBox="0 0 150 150"><g id="threads"><path d="M89.14,77.15c.53,11.14-7.63,17.87-17.68,15-3.76-1.1-6.11-3.67-6.27-6.89S67.1,79,70.91,77.66C76.87,75.64,82.92,76.21,89.14,77.15Z"/><path d="M123.4,7.6H26.6A17.48,17.48,0,0,0,9.12,25.08v99.84A17.48,17.48,0,0,0,26.6,142.4h96.8a17.48,17.48,0,0,0,17.48-17.48V25.08A17.48,17.48,0,0,0,123.4,7.6ZM44.25,97.66c4.4,11.11,13.14,16.94,24.76,18.68a44.4,44.4,0,0,0,19.22-1,25.35,25.35,0,0,0,15.39-11.49c4.63-7.8,2.76-17.48-4.23-22.36a10.84,10.84,0,0,0-1.23-.61C97,86,95.61,90.9,92.16,95c-7.52,8.8-23.89,9.21-31.72.72-7.21-7.84-5-19.93,4.6-25.18,6.62-3.63,13.81-3.49,21-3,.87.07,1.74.22,2.94.37-.43-4.44-2.13-8-6.05-9.63-6.82-2.84-13.18-1.9-18.43,4l-7.11-4.84A20.05,20.05,0,0,1,72.85,48a30.07,30.07,0,0,1,10.4.72c8.8,2.33,13.27,8.79,14.62,17.45a34.84,34.84,0,0,0,.94,3.84,2,2,0,0,0,1,1.23l2.5,1.41c14.63,8.22,17.17,28,5.53,40.57-7.14,7.73-16,11.47-26.38,12.38A52.91,52.91,0,0,1,58.63,123c-12.44-4.43-20.21-13.49-24.11-25.79a71.06,71.06,0,0,1,0-44.55c5.32-16.15,16.42-25.78,33.5-28,12.77-1.64,24.9-.17,35.68,7.61,7.47,5.4,14.29,16,15.3,24l-6.9,1.61-1.36.35s-.56-1.41-.68-1.77a37.43,37.43,0,0,0-7.36-13.05c-5.21-5.71-11.88-8.55-19.34-9.78a44,44,0,0,0-20.75,1.45C52.82,38.22,46.44,45,43.34,54.61,38.68,69,38.65,83.49,44.25,97.66Z"/></g></svg>