<svg xmlns="http://www.w3.org/2000/svg" viewBox="0 0 150 150"><defs><style>.cls-1{fill:#1d1d1b;}</style></defs><g id="Twitter"><path class="cls-1" d="M126.21,6H23.79A17.8,17.8,0,0,0,6,23.79V126.21A17.8,17.8,0,0,0,23.79,144H126.21A17.8,17.8,0,0,0,144,126.21V23.79A17.8,17.8,0,0,0,126.21,6ZM110.37,56.91l-.19.09c0,.57.1,1.15.12,1.72,0,.91.07,1.8.07,2.71a50.78,50.78,0,0,1-83.11,39.16,36.88,36.88,0,0,0,8.27,1.22c9,.34,17.08-2.47,21.72-7a13.77,13.77,0,0,1-1.71.11,14.06,14.06,0,0,1-13.91-12,13.67,13.67,0,0,0,3.9.56,13.94,13.94,0,0,0,9.06-3.32A15.15,15.15,0,0,1,34.38,68.6a13.89,13.89,0,0,1-.25-2.67A15.23,15.23,0,0,1,34.41,63a15.27,15.27,0,0,0,12.46,3.59A15.13,15.13,0,0,1,36,59a1.71,1.71,0,0,1-.13-.23,15.15,15.15,0,0,1,2-17.1,36.59,36.59,0,0,0,7.62,9.55A36.13,36.13,0,0,0,58,58.52a35,35,0,0,0,4.22,1.15l1,.21h0a37.34,37.34,0,0,0,6.4.56,33.34,33.34,0,0,0,4-.23A18.52,18.52,0,0,1,83.8,40.58l0,0a18.25,18.25,0,0,1,7.45-1.81,5.72,5.72,0,0,1,.59,0l.71,0a18.36,18.36,0,0,1,8.87,2.66h0a18.78,18.78,0,0,1,3.63,2.88c.23,0,.46,0,.69,0l12.27-4.66a18.5,18.5,0,0,1-9,10.06.82.82,0,0,1-.19.09,17,17,0,0,1-2.11.87c.63.06,1.26.1,1.9.1.19,0,.4,0,.6,0a1.83,1.83,0,0,1,.08.25.74.74,0,0,0-.05-.25,18.27,18.27,0,0,0,10.2-3.49A18.5,18.5,0,0,1,110.37,56.91Z"/></g></svg>