<svg xmlns="http://www.w3.org/2000/svg" viewBox="0 0 150 142.99"><defs><style>.cls-1{fill:none;stroke:#1d1d1b;stroke-miterlimit:10;stroke-width:2px;}.cls-2{fill:#1d1d1b;}</style></defs><g id="aliexpress"><path class="cls-1" d="M147.68,32.72V44.61a24.94,24.94,0,0,0-24.94-24.94H27.26A24.94,24.94,0,0,0,2.32,44.61V32.72A31.38,31.38,0,0,1,33.69,1.35h82.62A31.38,31.38,0,0,1,147.68,32.72Z"/><path class="cls-1" d="M122.74,19.67H27.26A24.94,24.94,0,0,0,2.32,44.61v65.66a31.37,31.37,0,0,0,31.37,31.37h82.62a31.37,31.37,0,0,0,31.37-31.37V44.61A24.94,24.94,0,0,0,122.74,19.67Z"/><path class="cls-1" d="M113.44,43a2.43,2.43,0,0,1,0,.38,37.37,37.37,0,0,1-.65,5.93,38.58,38.58,0,0,1-75.84-.16,37.6,37.6,0,0,1-.62-5.76,2.55,2.55,0,0,1,0-.39v-.23a3.46,3.46,0,0,1,2.83-3.18,3.45,3.45,0,0,1,1.17,0,3.44,3.44,0,0,1,2.82,3.2,1.48,1.48,0,0,1,0,.21v0a31.18,31.18,0,0,0,.7,5.77,31.76,31.76,0,0,0,62.13-.17,30.42,30.42,0,0,0,.66-5.45,1.27,1.27,0,0,1,0-.2c0-.12,0-.23,0-.35h0a3.4,3.4,0,0,1,3.07-3l.33,0h0a3.43,3.43,0,0,1,3.4,3.19C113.43,42.8,113.44,42.88,113.44,43Z"/><path class="cls-1" d="M46.09,39.54A6.81,6.81,0,0,1,47,43a6.91,6.91,0,0,1-3.18,5.82,31.18,31.18,0,0,1-.7-5.77v0a1.48,1.48,0,0,0,0-.21,3.44,3.44,0,0,0-2.82-3.2,3.45,3.45,0,0,0-1.17,0,3.46,3.46,0,0,0-2.83,3.18V43a2.55,2.55,0,0,0,0,.39,37.6,37.6,0,0,0,.62,5.76A6.91,6.91,0,1,1,43.51,37,6.83,6.83,0,0,1,46.09,39.54Z"/><path class="cls-1" d="M116.84,43a6.91,6.91,0,0,1-4.08,6.31,37.37,37.37,0,0,0,.65-5.93,2.43,2.43,0,0,0,0-.38c0-.07,0-.15,0-.22a3.43,3.43,0,0,0-3.4-3.19h0l-.33,0a3.4,3.4,0,0,0-3.07,3h0c0,.12,0,.23,0,.35a1.27,1.27,0,0,0,0,.2,30.42,30.42,0,0,1-.66,5.45A6.9,6.9,0,0,1,103,43,6.94,6.94,0,0,1,109.92,36,6.92,6.92,0,0,1,116.84,43Z"/><path class="cls-2" d="M31.69,93.6H29.16L23,110.21h2.63L27,106.36h6.89l1.37,3.85h2.7Zm-3.88,10.34,2.59-7.26L33,103.94Z"/><path class="cls-2" d="M39,110.21V92.6h2.45v17.61Z"/><polygon class="cls-2" points="60.06 107.65 60.06 110.37 49.12 110.37 49.12 93.07 59.77 93.07 59.77 95.79 51.83 95.79 51.83 100.26 58.87 100.26 58.87 102.91 51.83 102.91 51.83 107.65 60.06 107.65"/><polygon class="cls-2" points="73.18 110.01 70.07 110.01 67.09 105.8 64.08 110.01 61.04 110.01 65.59 103.77 61.21 97.78 64.27 97.78 67.13 101.76 70 97.78 72.96 97.78 68.59 103.75 73.18 110.01"/><path class="cls-2" d="M94.57,97.37v2.83l-.28,0H94a2.82,2.82,0,0,0-2.25,1,4.52,4.52,0,0,0-.82,3v6.12H88.51V97.54h2.35v1.84a3.59,3.59,0,0,1,1.2-1.33A4.48,4.48,0,0,1,94.57,97.37Z"/><path class="cls-2" d="M105.89,100.48a5.81,5.81,0,0,0-2.13-2.29,6,6,0,0,0-8.41,2.33,7,7,0,0,0-.78,3.35,6.9,6.9,0,0,0,.8,3.36,5.89,5.89,0,0,0,2.29,2.3,7.52,7.52,0,0,0,6.2.32,5.21,5.21,0,0,0,2-1.52l-1.51-1.85a4.14,4.14,0,0,1-1.42,1,4.47,4.47,0,0,1-1.79.35,4.26,4.26,0,0,1-2.06-.48A3.32,3.32,0,0,1,97.75,106a3.54,3.54,0,0,1-.41-1.21h9.28c0-.12,0-.27,0-.44s0-.3,0-.41A7.34,7.34,0,0,0,105.89,100.48Zm-8.57,2.83a4.36,4.36,0,0,1,.37-1.33,3.11,3.11,0,0,1,1.21-1.37,3.34,3.34,0,0,1,1.78-.48,3.15,3.15,0,0,1,3,1.84,4,4,0,0,1,.38,1.34Z"/><path class="cls-2" d="M112.3,110.37a7.91,7.91,0,0,1-2.54-.41,6.34,6.34,0,0,1-1.93-1l1-2.25a6,6,0,0,0,1.69.89,6.26,6.26,0,0,0,2,.34,2.93,2.93,0,0,0,1.67-.37,1.18,1.18,0,0,0,.52-1,.93.93,0,0,0-.36-.79,2.53,2.53,0,0,0-.92-.42c-.38-.09-.81-.18-1.27-.26a11.33,11.33,0,0,1-1.4-.32,4.22,4.22,0,0,1-1.27-.59,2.83,2.83,0,0,1-.93-1.06,3.72,3.72,0,0,1-.36-1.78,3.66,3.66,0,0,1,.58-2.07,3.82,3.82,0,0,1,1.6-1.39,5.65,5.65,0,0,1,2.46-.5,8.12,8.12,0,0,1,2.14.3,5.77,5.77,0,0,1,1.82.82l-1,2.25a4.32,4.32,0,0,0-1.5-.72,5.65,5.65,0,0,0-1.51-.2,2.89,2.89,0,0,0-1.66.39,1.17,1.17,0,0,0-.55,1,1,1,0,0,0,.35.85,2.51,2.51,0,0,0,.93.44c.38.1.81.2,1.27.28a13.41,13.41,0,0,1,1.39.34,4.7,4.7,0,0,1,1.27.57,2.61,2.61,0,0,1,.94,1,3.62,3.62,0,0,1,.35,1.73,3.57,3.57,0,0,1-.58,2.07,3.92,3.92,0,0,1-1.63,1.36A6.12,6.12,0,0,1,112.3,110.37Z"/><path class="cls-2" d="M122.45,110.37a7.91,7.91,0,0,1-2.54-.41,6.34,6.34,0,0,1-1.93-1l1-2.25a6,6,0,0,0,1.69.89,6.26,6.26,0,0,0,2,.34,2.93,2.93,0,0,0,1.67-.37,1.16,1.16,0,0,0,.52-1,.93.93,0,0,0-.36-.79,2.53,2.53,0,0,0-.92-.42c-.38-.09-.81-.18-1.27-.26a11.33,11.33,0,0,1-1.4-.32,4.22,4.22,0,0,1-1.27-.59,2.92,2.92,0,0,1-.93-1.06,4.32,4.32,0,0,1,.22-3.85,3.82,3.82,0,0,1,1.6-1.39,5.65,5.65,0,0,1,2.46-.5,8.12,8.12,0,0,1,2.14.3,5.77,5.77,0,0,1,1.82.82l-1,2.25a4.36,4.36,0,0,0-1.49-.72,5.78,5.78,0,0,0-1.52-.2,2.89,2.89,0,0,0-1.66.39,1.17,1.17,0,0,0-.55,1,1,1,0,0,0,.35.85,2.51,2.51,0,0,0,.93.44c.38.1.81.2,1.27.28a13.41,13.41,0,0,1,1.39.34,4.57,4.57,0,0,1,1.27.57,2.61,2.61,0,0,1,.94,1,3.62,3.62,0,0,1,.35,1.73,3.57,3.57,0,0,1-.58,2.07,3.86,3.86,0,0,1-1.63,1.36A6.12,6.12,0,0,1,122.45,110.37Z"/><path class="cls-2" d="M86.12,100A6.36,6.36,0,0,0,74.77,104v12.13h2.35V108.9a6.36,6.36,0,0,0,9-8.87Zm-5,7.73a4,4,0,0,1,0-8,4,4,0,0,1,1.55.31,4,4,0,0,1-1.55,7.73Z"/><rect class="cls-2" x="44.08" y="98.32" width="2.88" height="11.89"/><path class="cls-2" d="M46.07,96.32l-.55,1.47L45,96.32a2.22,2.22,0,0,0-1.21-1.27l-1.19-.51L43.76,94A2.22,2.22,0,0,0,45,92.76l.55-1.47.55,1.47A2.27,2.27,0,0,0,47.29,94l1.19.51-1.19.51A2.27,2.27,0,0,0,46.07,96.32Z"/></g></svg>