<svg xmlns="http://www.w3.org/2000/svg" viewBox="0 0 102.72 140.99"><defs><style>.cls-1,.cls-2,.cls-4{fill:#1d1d1b;}.cls-2{opacity:0.54;}.cls-3{fill:none;}.cls-3,.cls-4{stroke:#1d1d1b;stroke-miterlimit:10;stroke-width:0.25px;}.cls-5{opacity:0.58;}.cls-6{opacity:0.71;}</style></defs><g id="TikTok"><polygon class="cls-1" points="18.53 117.72 16.97 122.4 12.74 122.4 12.74 139.98 7.25 139.98 7.25 122.4 1.9 122.4 1.9 117.72 18.53 117.72"/><path class="cls-1" d="M24.8,120.46a2.74,2.74,0,0,1-4.68,1.94,2.74,2.74,0,1,1,4.68-1.94Z"/><rect class="cls-1" x="19.32" y="124.95" width="5.48" height="15.03"/><polygon class="cls-1" points="44.69 139.98 38.9 139.98 33.88 132.46 32.12 134.12 32.12 139.98 27 139.98 27 117.72 32.12 117.72 32.12 128.22 37.24 123.21 43.72 123.21 37.24 129.31 44.69 139.98"/><polygon class="cls-1" points="62.49 117.72 60.93 122.4 56.7 122.4 56.7 139.98 51.21 139.98 51.21 122.4 45.86 122.4 45.86 117.72 62.49 117.72"/><polygon class="cls-1" points="101.29 139.98 95.5 139.98 90.48 132.46 88.72 134.12 88.72 139.98 83.6 139.98 83.6 117.72 88.72 117.72 88.72 128.22 93.84 123.21 100.32 123.21 93.84 129.31 101.29 139.98"/><path class="cls-2" d="M71.25,140l-.67,0c-5.54,0-10-4-10-9s4.48-9,10-9l.67,0c-5.23.3-9.37,4.23-9.37,9S66,139.66,71.25,140Z"/><circle class="cls-3" cx="71.24" cy="130.95" r="4.46" transform="translate(-69.43 180.29) rotate(-80.78)"/><path class="cls-4" d="M71.25,121.91c-5.23.3-9.37,4.23-9.37,9s4.14,8.72,9.37,9c5.23-.31,9.36-4.23,9.36-9S76.48,122.22,71.25,121.91Zm0,13.5A4.46,4.46,0,1,1,75.7,131,4.46,4.46,0,0,1,71.24,135.41Z"/><path class="cls-2" d="M81.93,130.94c0,5-4.49,9-10,9l-.66,0c5.23-.31,9.36-4.23,9.36-9s-4.13-8.72-9.36-9l.66,0C77.44,121.89,81.93,125.94,81.93,130.94Z"/><g class="cls-5"><path class="cls-1" d="M101.29,31V49.62a40.86,40.86,0,0,1-11.43-1.07A41.12,41.12,0,0,1,75.94,42.3V79.46a34.33,34.33,0,0,1-59,23.91A34.34,34.34,0,0,0,68.37,87.11,34,34,0,0,0,70.59,75V37.8a41.12,41.12,0,0,0,13.92,6.25,40.86,40.86,0,0,0,11.43,1.07V30.55a24.32,24.32,0,0,0,4.21.37C100.53,30.92,100.91,31,101.29,31Z"/><path class="cls-1" d="M46.73,45.51V64.72a14.94,14.94,0,0,0-5.13-.56A15.31,15.31,0,0,0,26.77,83.23a15.09,15.09,0,0,0,2.57,5.37,15.32,15.32,0,0,1-7.92-9.87A15.31,15.31,0,0,1,36.25,59.66a14.94,14.94,0,0,1,5.13.56V45.12h.22A33.4,33.4,0,0,1,46.73,45.51Z"/><path class="cls-1" d="M82.07,22.81A24.22,24.22,0,0,1,70.82,5.51h5.12v1.2A24.1,24.1,0,0,0,82.07,22.81Z"/></g><path class="cls-1" d="M95.94,30.55V45.12a40.86,40.86,0,0,1-11.43-1.07A41.12,41.12,0,0,1,70.59,37.8V75A34.34,34.34,0,0,1,36.25,109.3,34.11,34.11,0,0,1,17,103.37a34.15,34.15,0,0,1-9.5-20.14,33.62,33.62,0,0,1-.21-3.77A34.34,34.34,0,0,1,41.38,45.12v15.1a14.94,14.94,0,0,0-5.13-.56A15.29,15.29,0,0,0,29.34,88.6a15.29,15.29,0,0,0,27.55-9.14V5.51H70.82a24.22,24.22,0,0,0,11.25,17.3A24.17,24.17,0,0,0,95.94,30.55Z"/><g class="cls-6"><path class="cls-1" d="M41.38,41v4.11A34.34,34.34,0,0,0,7.25,79.46a33.62,33.62,0,0,0,.21,3.77A34.15,34.15,0,0,0,17,103.37,34.28,34.28,0,0,1,2.11,78.73,33.62,33.62,0,0,1,1.9,75,34.34,34.34,0,0,1,36.25,40.62,33.4,33.4,0,0,1,41.38,41Z"/><path class="cls-1" d="M70.82,5.51H56.89V79.46A15.29,15.29,0,0,1,29.34,88.6,15.29,15.29,0,0,0,51.54,75V1H70.59v1.2A24,24,0,0,0,70.82,5.51Z"/><path class="cls-1" d="M95.94,26.45v4.1a24.17,24.17,0,0,1-13.87-7.74A24.11,24.11,0,0,0,94.8,26.42C95.18,26.42,95.56,26.47,95.94,26.45Z"/></g></g></svg>