<svg xmlns="http://www.w3.org/2000/svg" viewBox="0 0 150 150"><defs><style>.cls-1{fill:#1d1d1b;}</style></defs><g id="sair"><path class="cls-1" d="M141,34.16v81.68c0,7.14-7.43,12.92-16.57,12.92H86.62a2.39,2.39,0,0,1-2.4-2.4v-1.93a2.39,2.39,0,0,1,2.4-2.4h29.63c9.16,0,16.57-5.79,16.57-12.92V40.89c0-7.13-7.41-12.92-16.57-12.92H86.62a2.39,2.39,0,0,1-2.4-2.4V23.64a2.39,2.39,0,0,1,2.4-2.4h37.79C133.55,21.24,141,27,141,34.16Z"/><path class="cls-1" d="M13.72,86,32,100.22l13.3,10.36,5,3.86.06,0c6.27,4.79,14-1.3,14-11V83.57h46.86a8.57,8.57,0,1,0,0-17.14H64.36V46.55c0-9.74-7.78-15.83-14-11l-.06.05-5,3.86L32,49.78,13.72,64C7.45,68.89,7.45,81.11,13.72,86Z"/></g></svg>