<svg xmlns="http://www.w3.org/2000/svg" viewBox="0 0 150 150"><defs><style>.cls-1{fill:#1d1d1b;}</style></defs><g id="definicoes"><path class="cls-1" d="M138.89,62.15H128.27a5.44,5.44,0,0,1-5.16-3.64,51,51,0,0,0-2.42-5.85,5.44,5.44,0,0,1,1.06-6.23l7.52-7.52a5.47,5.47,0,0,0,0-7.74L118.83,20.73a5.47,5.47,0,0,0-7.74,0l-7.52,7.52a5.44,5.44,0,0,1-6.23,1.06,51,51,0,0,0-5.85-2.42,5.44,5.44,0,0,1-3.64-5.16V11.11a5.48,5.48,0,0,0-5.48-5.48H67.63a5.48,5.48,0,0,0-5.48,5.48V21.73a5.44,5.44,0,0,1-3.64,5.16,51,51,0,0,0-5.85,2.42,5.44,5.44,0,0,1-6.23-1.06l-7.52-7.52a5.47,5.47,0,0,0-7.74,0L20.73,31.17a5.47,5.47,0,0,0,0,7.74l7.52,7.52a5.44,5.44,0,0,1,1.06,6.23,51,51,0,0,0-2.42,5.85,5.44,5.44,0,0,1-5.16,3.64H11.11a5.48,5.48,0,0,0-5.48,5.48V82.37a5.48,5.48,0,0,0,5.48,5.48H21.73a5.44,5.44,0,0,1,5.16,3.64,51,51,0,0,0,2.42,5.85,5.44,5.44,0,0,1-1.06,6.23l-7.52,7.52a5.47,5.47,0,0,0,0,7.74l10.44,10.44a5.47,5.47,0,0,0,7.74,0l7.52-7.52a5.44,5.44,0,0,1,6.23-1.06,51,51,0,0,0,5.85,2.42,5.44,5.44,0,0,1,3.64,5.16v10.62a5.48,5.48,0,0,0,5.48,5.48H82.37a5.48,5.48,0,0,0,5.48-5.48V128.27a5.44,5.44,0,0,1,3.64-5.16,51,51,0,0,0,5.85-2.42,5.44,5.44,0,0,1,6.23,1.06l7.52,7.52a5.47,5.47,0,0,0,7.74,0l10.44-10.44a5.47,5.47,0,0,0,0-7.74l-7.52-7.52a5.44,5.44,0,0,1-1.06-6.23,51,51,0,0,0,2.42-5.85,5.44,5.44,0,0,1,5.16-3.64h10.62a5.48,5.48,0,0,0,5.48-5.48V67.63A5.48,5.48,0,0,0,138.89,62.15ZM102,83.8a27.23,27.23,0,0,1-1.69,4,28.33,28.33,0,0,1-12.44,12.44,27.23,27.23,0,0,1-4,1.69,28.55,28.55,0,0,1-17.6,0,27.23,27.23,0,0,1-4.05-1.69A28.33,28.33,0,0,1,49.71,87.85a27.23,27.23,0,0,1-1.69-4,28.55,28.55,0,0,1,0-17.6,27.23,27.23,0,0,1,1.69-4.05A28.33,28.33,0,0,1,62.15,49.71,27.23,27.23,0,0,1,66.2,48a28.55,28.55,0,0,1,17.6,0,27.23,27.23,0,0,1,4,1.69,28.33,28.33,0,0,1,12.44,12.44A27.23,27.23,0,0,1,102,66.2a28.55,28.55,0,0,1,0,17.6Z"/><path class="cls-1" d="M95.92,77.74A21.11,21.11,0,0,1,77.74,95.92a20.94,20.94,0,0,1-5.48,0A21.11,21.11,0,0,1,54.08,77.74a20.94,20.94,0,0,1,0-5.48A21.11,21.11,0,0,1,72.26,54.08a20.94,20.94,0,0,1,5.48,0A21.11,21.11,0,0,1,95.92,72.26a20.94,20.94,0,0,1,0,5.48Z"/><path class="cls-1" d="M96.1,75a20.67,20.67,0,0,1-.18,2.74A21.11,21.11,0,0,1,77.74,95.92a20.94,20.94,0,0,1-5.48,0A21.11,21.11,0,0,1,54.08,77.74a20.94,20.94,0,0,1,0-5.48A21.11,21.11,0,0,1,72.26,54.08a20.94,20.94,0,0,1,5.48,0A21.11,21.11,0,0,1,95.92,72.26,20.67,20.67,0,0,1,96.1,75Z"/></g></svg>