<svg id="camera" xmlns="http://www.w3.org/2000/svg" viewBox="0 0 150 111.68"><defs><style>.cls-1{fill:#1d1d1b;}</style></defs><path class="cls-1" d="M1.68,27.43V92.51a10.15,10.15,0,0,0,10.15,10.15H138.17a10.15,10.15,0,0,0,10.15-10.15V27.43a10.16,10.16,0,0,0-10.15-10.15H11.83A10.16,10.16,0,0,0,1.68,27.43ZM78,96.2a36.35,36.35,0,1,1,33.26-33.28A36.36,36.36,0,0,1,78,96.2Zm48.62-57.34a6.5,6.5,0,0,1-6.51-6.51,6.61,6.61,0,0,1,6.58-6.5,6.51,6.51,0,0,1-.07,13Z"/><path class="cls-1" d="M38,9H15.16l-3.34,8.26H41.34ZM15.87,14.55,17,11.76H36.16l1.13,2.79Z"/><circle class="cls-1" cx="75.01" cy="59.96" r="29.36" transform="translate(-0.59 119.19) rotate(-76.72)"/></svg>