<svg xmlns="http://www.w3.org/2000/svg" viewBox="0 0 150 150"><g id="linkedin"><path d="M126.21,6H23.79A17.8,17.8,0,0,0,6,23.79V126.21A17.8,17.8,0,0,0,23.79,144H88.08l6.83,0h31.3A17.8,17.8,0,0,0,144,126.21V23.79A17.8,17.8,0,0,0,126.21,6ZM45.1,34.57A8.27,8.27,0,0,1,51,37h0a6.62,6.62,0,0,1,2.56,5.3,6.19,6.19,0,0,1-.15,1.37,8.34,8.34,0,1,1-8.3-9.12Zm8.46,30.66q0,13,0,25.91,0,4.58,0,9.15v10c0,1.13,0,2.27,0,3.41,0,.51-.07.79-.7.79-4.14,0-8.29,0-12.44,0H38.51c-.87,0-.66-.56-.66-1v-5.17q0-8.2,0-16.4v-6h0c0-9.17,0-18.33,0-27.5,0-.82.2-1.06,1.05-1.06,2.95,0,5.91,0,8.87,0h4.77c.73,0,1,.11,1,1Zm65.53,49.2a2.55,2.55,0,0,1-.52,0c-4.55,0-9.1-.06-13.65,0-1,0-1.13-.31-1.13-1.18q0-9.63,0-19.25V81.67a24.26,24.26,0,0,0-.82-7.15c-1.13-3.7-3.25-5.38-7.1-5.72a17.2,17.2,0,0,0-5.59.33,10.33,10.33,0,0,0-3.85,1.75,11.13,11.13,0,0,0-4,6.17,22.73,22.73,0,0,0-.82,6.25q0,10.1,0,20.2,0,4.91,0,9.81c0,.92-.24,1.16-1.16,1.15-4.51,0-9,0-13.55,0-.77,0-.94-.23-.94-1q0-13.35,0-26.7V67c0-2.91,0-5.82,0-8.73,0-.69.1-1,.91-1q4.68,0,9.35,0l3.8,0c.78,0,1,.25.94,1,0,.94,0,1.88,0,2.85,0,1.29,0,2.62,0,4,.82-.94,1.45-1.71,2.14-2.42a21.66,21.66,0,0,1,11.11-6.37,27.23,27.23,0,0,1,8.42-.47,19,19,0,0,1,9.71,3.45C117,62.71,119,67.49,119.6,73c.15,1.5.17,3,.17,4.51q0,17.87,0,35.74C119.8,114,119.64,114.34,119.09,114.43Z"/></g></svg>