<svg xmlns="http://www.w3.org/2000/svg" viewBox="0 0 150 150"><defs><style>.cls-1{fill:#1d1d1b;}</style></defs><g id="download"><path class="cls-1" d="M115.78,141l-81.68-.15c-7.14,0-12.91-7.45-12.89-16.6l0-11.91a2.39,2.39,0,0,1,2.4-2.39h1.93a2.4,2.4,0,0,1,2.4,2.4l0,3.76c0,9.16,5.76,16.58,12.89,16.59l68.22.12c7.13,0,12.93-7.39,13-16.55l0-3.75a2.39,2.39,0,0,1,2.4-2.39h1.93a2.4,2.4,0,0,1,2.4,2.4l0,11.92C128.71,133.61,122.92,141,115.78,141Z"/><path class="cls-1" d="M64,115,49.8,96.73,39.46,83.41l-3.85-5,0-.06c-4.78-6.28,1.33-14,11.06-14l19.88,0,.09-46.85a8.57,8.57,0,1,1,17.14,0l-.09,46.85,19.88,0c9.74,0,15.82,7.81,11,14.07l-.05.06-3.87,5L100.23,96.82,86,115.07C81.08,121.33,68.86,121.31,64,115Z"/></g></svg>