<svg xmlns="http://www.w3.org/2000/svg" viewBox="0 0 150 150"><defs><style>.cls-1{fill:#1d1d1b;}</style></defs><g id="phone"><path class="cls-1" d="M143.78,111.78a27.29,27.29,0,0,1-24,27C57.86,145.22,7,100,6.22,37.74a27.3,27.3,0,0,1,24-27,22.19,22.19,0,0,1,3.34-.11A22,22,0,0,1,42.94,13l6.27,36.21a27.34,27.34,0,0,1-15,9.87,78,78,0,0,0,61.13,54.38,27.17,27.17,0,0,1,8-16l36.69,2a21.85,21.85,0,0,1,3.43,9A22.8,22.8,0,0,1,143.78,111.78Z"/><path class="cls-1" d="M143.78,111.78a27.29,27.29,0,0,1-24,27C57.86,145.22,7,100,6.22,37.74a27.3,27.3,0,0,1,24-27,22.19,22.19,0,0,1,3.34-.11A22,22,0,0,1,42.94,13l6.27,36.21a27.34,27.34,0,0,1-15,9.87,78,78,0,0,0,61.13,54.38,27.17,27.17,0,0,1,8-16l36.69,2a21.85,21.85,0,0,1,3.43,9A22.8,22.8,0,0,1,143.78,111.78Z"/></g></svg>