<svg xmlns="http://www.w3.org/2000/svg" viewBox="0 0 106.93 104.75"><defs><style>.cls-1{fill:#1d1d1b;}</style></defs><g id="sol"><circle class="cls-1" cx="53.51" cy="52.64" r="35.94"/><path class="cls-1" d="M2,49.25,14.2,44.54,13.86,47c-.09.72-.17,1.43-.23,2.15,0,.42-.07.86-.08,1.29-.05.91-.06,1.76-.05,2.61l0,2.43Z"/><path class="cls-1" d="M19.36,13.34l12,5.65-1.9,1.43q-1.29,1-2.49,2c-.72.64-1.41,1.3-2.08,2l-1.7,1.74Z"/><path class="cls-1" d="M59.9,12.9c-1-.16-2.07-.29-3.1-.37s-2-.13-3-.14l-2.42,0L57.77.93,62.32,13.3Z"/><path class="cls-1" d="M86.33,29.56c-.55-.79-1.14-1.58-1.76-2.36s-1.31-1.54-2-2.28l-1.64-1.73,12.46-3.5L87.75,31.6Z"/><path class="cls-1" d="M92.84,59.67c.17-.91.31-1.84.41-2.76.06-.37.09-.8.13-1.21,0-.59.08-1.18.1-1.76l.09-2.34,11.21,6.21L92.4,62.09Z"/><path class="cls-1" d="M74.54,86.5l2-1.39c.74-.52,1.47-1.08,2.17-1.65s1.45-1.22,2.14-1.86L82.53,80,86.15,92.2Z"/><path class="cls-1" d="M45.08,91.59l2.35.36c.91.14,1.85.25,2.77.33s1.79.11,2.69.13l2.34,0-6,11.27Z"/><path class="cls-1" d="M20.26,74.78l1.42,1.86c.6.77,1.23,1.54,1.88,2.27s1.17,1.29,1.79,1.9l1.7,1.69L14.74,86.28Z"/><path class="cls-1" d="M7.36,29.22l13.1.48-1.25,2.09c-.37.62-.73,1.25-1.07,1.89-.2.37-.4.76-.57,1.15-.4.81-.76,1.59-1.08,2.38l-.93,2.25Z"/><path class="cls-1" d="M37.49,3.06,46.31,13,44,13.55c-1,.26-2.08.56-3.08.9s-1.8.62-2.69,1L36,16.36Z"/><path class="cls-1" d="M74.92,18.61c-.88-.56-1.78-1.09-2.69-1.57s-1.79-.9-2.7-1.3l-2.22-1,10.38-8L77,19.92Z"/><path class="cls-1" d="M92.67,44.33c-.19-1-.43-1.92-.7-2.87s-.58-1.93-.93-2.89l-.82-2.22L103,38l-9.86,8.73Z"/><path class="cls-1" d="M86.81,74.57c.51-.78,1-1.57,1.45-2.38.21-.32.41-.7.6-1.06.28-.53.54-1,.79-1.58l1-2.11,7.86,10.12-13.06-.94Z"/><path class="cls-1" d="M59.42,92l2.37-.5c.89-.2,1.78-.42,2.64-.66s1.81-.55,2.71-.87l2.18-.79-1.47,12.63Z"/><path class="cls-1" d="M30.33,85.11l2,1.26c.79.49,1.6,1,2.43,1.39s1.6.81,2.41,1.18l2.15,1-10,8Z"/><path class="cls-1" d="M4.54,68.29l9.6-8.4.58,2.27c.24,1,.52,1.9.82,2.82s.57,1.66.9,2.46l.89,2.22Z"/></g></svg>