<svg xmlns="http://www.w3.org/2000/svg" viewBox="0 0 150 150"><defs><style>.cls-1{fill:#1d1d1b;}.cls-2{fill:none;}</style></defs><g id="perfil"><path class="cls-1" d="M75.72,3.54A71.45,71.45,0,0,0,27.91,128.09v-25A24.35,24.35,0,0,1,52.26,78.7h5.66a30.27,30.27,0,0,0,33.75,0h5.66a24.35,24.35,0,0,1,24.35,24.35V129.7a71.45,71.45,0,0,0-46-126.16ZM74.8,78.7A25.21,25.21,0,1,1,100,53.49,25.21,25.21,0,0,1,74.8,78.7Z"/><circle class="cls-2" cx="74.8" cy="53.49" r="25.21"/><path class="cls-2" d="M121.68,103.05V129.7a71.4,71.4,0,0,1-93.77-1.61v-25A24.35,24.35,0,0,1,52.26,78.7h5.66a30.27,30.27,0,0,0,33.75,0h5.66A24.35,24.35,0,0,1,121.68,103.05Z"/></g></svg>