<svg xmlns="http://www.w3.org/2000/svg" viewBox="0 0 83.05 78.37"><defs><style>.cls-1{fill:none;stroke:#1d1d1b;stroke-miterlimit:10;}</style></defs><g id="carrinho"><circle class="cls-1" cx="27.27" cy="62.61" r="4"/><circle class="cls-1" cx="68.08" cy="62.61" r="4"/><path class="cls-1" d="M33.34,31.45H14.74l-2.38-9.28-4-6.65a.83.83,0,0,0-.72-.41h-6a.84.84,0,0,1-.84-.83V12.6a.85.85,0,0,1,.84-.84H9.24a.83.83,0,0,1,.72.41L11.67,15,16,22.17H32.2Z"/><path class="cls-1" d="M82.17,28.78l-.72,2.67H60.34l.87-9.28H76.79A5.5,5.5,0,0,1,82.17,28.78Z"/><path class="cls-1" d="M36.29,55.55H22.51a2.06,2.06,0,0,1-2-1.56L18.7,46.93H35.23Z"/><path class="cls-1" d="M77.29,46.93,75.39,54a2.09,2.09,0,0,1-2,1.53H58.11l.8-8.62Z"/><polygon class="cls-1" points="61.2 22.17 60.34 31.45 33.34 31.45 32.2 22.17 61.2 22.17"/><polygon class="cls-1" points="58.91 46.93 58.1 55.55 36.28 55.55 35.23 46.93 58.91 46.93"/><polygon class="cls-1" points="81.44 31.45 77.28 46.93 18.7 46.93 14.73 31.45 81.44 31.45"/></g></svg>