<svg xmlns="http://www.w3.org/2000/svg" viewBox="0 0 150 150"><defs><style>.cls-1{fill:#1d1d1b;}</style></defs><g id="Facebook"><path class="cls-1" d="M144.12,24.23V126.65a17.78,17.78,0,0,1-17.79,17.79H86.09V97.22h18.17l2.4-20.49H86.09V61.63a9.75,9.75,0,0,1,9.74-9.77h10.83V32.08H88.09c-.68,0-1.35,0-2,.09A24.74,24.74,0,0,0,63.85,51.86a25.18,25.18,0,0,0-.49,5V76.73H45.44V97.22H63.36v47.22H23.91A17.79,17.79,0,0,1,6.12,126.65V24.23A17.8,17.8,0,0,1,23.91,6.44H126.33A17.79,17.79,0,0,1,144.12,24.23Z"/></g></svg>