<?xml version="1.0" encoding="UTF-8"?>
<svg id="Camada_3" data-name="Camada 3" xmlns="http://www.w3.org/2000/svg" xmlns:xlink="http://www.w3.org/1999/xlink" viewBox="0 0 1080 1080">
  <defs>
    <style>
      .cls-1 {
        fill: url(#Gradiente_sem_nome_18);
      }

      .cls-1, .cls-2, .cls-3, .cls-4 {
        stroke-width: 0px;
      }

      .cls-2 {
        fill: url(#Gradiente_sem_nome_13);
      }

      .cls-3 {
        fill: url(#Gradiente_sem_nome_18-2);
      }

      .cls-4 {
        fill: url(#Gradiente_sem_nome_25);
      }

      .cls-5 {
        fill: none;
        stroke: #1d1d1b;
        stroke-miterlimit: 10;
      }
    </style>
    <linearGradient id="Gradiente_sem_nome_18" data-name="Gradiente sem nome 18" x1="63.52" y1="540" x2="1016.48" y2="540" gradientUnits="userSpaceOnUse">
      <stop offset="0" stop-color="#f7af6c"/>
      <stop offset=".56" stop-color="#f39850"/>
      <stop offset="1" stop-color="#f18438"/>
    </linearGradient>
    <linearGradient id="Gradiente_sem_nome_25" data-name="Gradiente sem nome 25" x1="63.52" y1="469.13" x2="1016.48" y2="469.13" gradientUnits="userSpaceOnUse">
      <stop offset="0" stop-color="#f1873d"/>
      <stop offset=".5" stop-color="#f29048"/>
      <stop offset="1" stop-color="#f59e59"/>
    </linearGradient>
    <linearGradient id="Gradiente_sem_nome_13" data-name="Gradiente sem nome 13" x1="63.52" y1="863.11" x2="502.24" y2="863.11" gradientUnits="userSpaceOnUse">
      <stop offset="0" stop-color="#f8b06a"/>
      <stop offset=".51" stop-color="#f8af67"/>
      <stop offset=".82" stop-color="#f8ae5e"/>
      <stop offset="1" stop-color="#f8ad56"/>
    </linearGradient>
    <linearGradient id="Gradiente_sem_nome_18-2" data-name="Gradiente sem nome 18" x1="63.52" y1="357.82" x2="980.38" y2="357.82" xlink:href="#Gradiente_sem_nome_18"/>
  </defs>
  <path class="cls-5" d="M484.15,736.62c-2.13,4.7-4.37,9.35-6.72,13.95,2.32-4.59,4.56-9.24,6.72-13.95Z"/>
  <path class="cls-1" d="M1016.48,333.11c0,2.69-.03,5.38-.11,8.04-.06,3.14-.2,6.27-.36,9.38-.11,2.49-.28,4.96-.48,7.45-.2,2.74-.45,5.46-.73,8.18-.25,2.72-.56,5.43-.92,8.09-.34,2.74-.7,5.41-1.12,8.07-.36,2.41-.76,4.84-1.18,7.25-.11.53-.2,1.06-.28,1.57-.39,2.13-.81,4.23-1.23,6.33-.11.62-.25,1.26-.36,1.85-.42,1.99-.84,3.92-1.29,5.85-.7,3.16-1.48,6.33-2.3,9.44-1.26,4.93-2.66,9.75-4.17,14.56v.06c-.78,2.55-1.6,5.04-2.44,7.51-.84,2.55-1.74,5.01-2.63,7.51-.9,2.44-1.85,4.9-2.8,7.34-.98,2.46-1.96,4.9-3,7.34-.98,2.32-2.02,4.71-3.08,7.03-.03.06-.06.17-.08.22-2.16,4.7-4.4,9.38-6.72,13.95,0,.03-.03.06-.06.08-1.18,2.35-2.41,4.65-3.64,6.92-1.04,1.93-2.07,3.75-3.14,5.63-.42.73-.84,1.46-1.26,2.21-1.12,1.93-2.24,3.84-3.39,5.69-1.34,2.24-2.72,4.45-4.12,6.61-1.4,2.18-2.83,4.37-4.29,6.5-1.29,1.93-2.6,3.84-3.95,5.74-2.16,3.02-4.37,6.08-6.64,9.02-2.3,3.05-4.65,6.05-7.06,8.99-1.96,2.38-3.98,4.76-5.99,7.09-1.6,1.88-3.19,3.64-4.82,5.43-.22.28-.45.5-.67.78-1.62,1.79-3.28,3.53-4.93,5.26-1.51,1.6-3.02,3.16-4.56,4.71-.42.39-.84.81-1.26,1.23-1.68,1.68-3.39,3.36-5.13,4.98-.14.14-.28.31-.39.42-1.68,1.6-3.36,3.16-5.1,4.68-3.33,3.08-6.72,6.02-10.17,8.88-.84.73-1.68,1.43-2.55,2.13-.22.17-.42.36-.64.53-1.51,1.23-3.05,2.46-4.59,3.67-1.71,1.34-3.42,2.69-5.13,3.98-1.6,1.2-3.22,2.41-4.87,3.56-1.23.9-2.46,1.82-3.7,2.69-3.28,2.32-6.61,4.56-10,6.72-1.15.76-2.32,1.54-3.5,2.27-1.57,1.01-3.16,1.96-4.76,2.97-1.79,1.06-3.61,2.16-5.46,3.22-3.02,1.74-6.08,3.44-9.16,5.15-1.79.92-3.58,1.9-5.41,2.83-.34.17-.7.34-1.06.53-1.65.87-3.3,1.65-4.98,2.44-4.59,2.3-9.27,4.42-14,6.47-1.34.56-2.69,1.15-4.06,1.74-1.79.73-3.61,1.43-5.43,2.16-2.27.9-4.56,1.76-6.86,2.6-2.91,1.06-5.85,2.1-8.85,3.11-1.65.56-3.33,1.09-5.01,1.6-.78.25-1.6.53-2.41.73-2.1.67-4.23,1.34-6.39,1.9-1.85.53-3.75,1.06-5.63,1.57-.48.14-.98.25-1.48.36-1.37.36-2.77.73-4.17,1.04-.78.22-1.6.42-2.41.62-1.71.42-3.42.78-5.13,1.15-.31.11-.64.17-.95.2-1.54.36-3.08.67-4.62,1.01-1.62.34-3.28.67-4.96.92-3.78.7-7.56,1.37-11.4,1.9-2.1.34-4.2.64-6.33.87-.11.03-.22.03-.36.06-2.63.34-5.29.64-7.95.9-2.72.28-5.46.53-8.18.76-2.52.2-5.01.36-7.53.45-.59.08-1.18.11-1.76.11-2.35.14-4.7.2-7.06.25h-.22c-2.77.11-5.52.11-8.29.11h-191.14v269.45c0,79.73-64.64,144.34-144.34,144.34H63.52v-514.97c0-64.16,52.01-116.17,116.17-116.17h261.3v101.13l35.18-29.94,26.07-22.24,57.5-48.95,108.44-92.34-110.79-92.36-55.14-45.93-61.25-51.06v96.98h-253.23c-7.76,0-15.38-.73-22.8-2.13-.84-.17-1.71-.34-2.55-.5-.98-.2-1.99-.39-2.97-.67-.9-.2-1.82-.39-2.72-.67-.92-.22-1.82-.45-2.72-.73-.48-.14-.95-.25-1.4-.39-.62-.17-1.23-.36-1.85-.56-1.6-.5-3.16-1.01-4.73-1.6-.87-.31-1.74-.64-2.6-.98-1.29-.5-2.55-1.01-3.81-1.54-.7-.25-1.37-.56-2.07-.9-.59-.22-1.2-.53-1.79-.78-.84-.42-1.65-.81-2.49-1.18-.84-.45-1.65-.87-2.46-1.26-.81-.45-1.65-.84-2.44-1.32-.81-.42-1.62-.9-2.41-1.32-.81-.48-1.6-.95-2.38-1.4-1.57-.98-3.14-1.93-4.65-2.94-1.54-1.04-3.02-2.07-4.51-3.14-.76-.53-1.48-1.09-2.21-1.68-.73-.53-1.46-1.09-2.16-1.65-.73-.56-1.43-1.18-2.13-1.74-1.4-1.18-2.8-2.38-4.15-3.61-.67-.59-1.34-1.23-2.02-1.85-1.04-1.01-2.04-1.99-3.05-2.97-4.54-4.65-8.74-9.61-12.52-14.87-.56-.78-1.09-1.54-1.6-2.3-.53-.78-1.06-1.54-1.57-2.32-.5-.78-1.01-1.54-1.48-2.35-.92-1.43-1.79-2.94-2.63-4.42-.5-.95-1.04-1.88-1.54-2.8-.42-.84-.84-1.68-1.26-2.46-.42-.81-.81-1.68-1.23-2.55-.39-.84-.78-1.71-1.15-2.52-.39-.84-.76-1.71-1.12-2.58-.36-.87-.7-1.76-1.04-2.63-2.74-7-4.82-14.28-6.19-21.84-.17-.9-.31-1.79-.48-2.69-.14-.98-.25-1.9-.39-2.88-.11-.92-.22-1.9-.34-2.86-.45-4.37-.67-8.77-.64-13.27v-.76c.03-.7.03-1.4.06-2.1.03-.87.06-1.74.11-2.6.03-.87.08-1.74.17-2.6.06-1.2.17-2.41.31-3.61.06-.78.17-1.6.25-2.35.08-.59.14-1.18.22-1.76.11-.87.25-1.74.39-2.6.62-4,1.46-7.93,2.46-11.79.48-1.79.98-3.56,1.51-5.32.08-.22.17-.5.25-.76.53-1.62,1.09-3.28,1.68-4.9.08-.22.17-.5.28-.73.31-.84.62-1.6.92-2.41,2.32-5.88,5.1-11.54,8.32-16.92.25-.48.56-.95.87-1.48,5.07-8.32,11.09-15.94,17.95-22.8,2.07-2.07,4.23-4.09,6.44-6.02,1.46-1.26,2.97-2.49,4.51-3.72,1.54-1.23,3.11-2.38,4.7-3.5,1.6-1.15,3.22-2.24,4.87-3.3,5.77-3.7,11.9-6.95,18.29-9.63,1.82-.76,3.67-1.51,5.55-2.16,1.88-.7,3.75-1.37,5.66-1.93,1.93-.62,3.84-1.18,5.8-1.68,9.75-2.46,19.97-3.84,30.5-3.84h507.78c2.8,0,5.57.03,8.35.14,2.07.03,4.17.11,6.25.2.17,0,.36,0,.53.03,1.09.03,2.18.11,3.28.17,2.16.14,4.31.28,6.47.45,2.72.2,5.46.42,8.18.73,2.63.22,5.29.53,7.9.87.78.08,1.57.2,2.32.34,1.96.22,3.92.53,5.85.81,2.86.45,5.69.92,8.51,1.4,2.1.39,4.17.78,6.25,1.2,2.52.48,5.01,1.01,7.51,1.6,1.23.28,2.44.59,3.67.84,11.51,2.74,22.77,6.08,33.78,10.05.84.28,1.68.59,2.52.92,1.74.59,3.44,1.23,5.18,1.93,1.15.42,2.3.87,3.44,1.37,1.43.53,2.86,1.12,4.26,1.74,1.29.53,2.58,1.09,3.86,1.6,2.04.9,4.12,1.79,6.16,2.8,1.6.7,3.19,1.4,4.76,2.18.84.42,1.71.81,2.55,1.23,1.54.76,3.05,1.48,4.56,2.27,2.86,1.46,5.69,2.94,8.51,4.48,1.48.78,2.91,1.6,4.37,2.44,1.37.76,2.74,1.6,4.09,2.35,1.18.67,2.32,1.37,3.47,2.07,2.13,1.26,4.23,2.58,6.3,3.89,1.26.81,2.52,1.65,3.78,2.44,1.68,1.12,3.33,2.21,4.99,3.33,1.29.87,2.58,1.79,3.86,2.69.81.56,1.62,1.12,2.44,1.74.45.28.87.59,1.29.92,1.18.84,2.35,1.65,3.5,2.58,2.49,1.82,4.98,3.72,7.42,5.66,1.2.95,2.41,1.93,3.61,2.88,1.82,1.51,3.64,3.05,5.43,4.54,2.38,2.02,4.7,4.09,7.03,6.19.95.81,1.9,1.68,2.83,2.55,2.46,2.27,4.87,4.56,7.25,6.95,1.01.95,2.02,1.96,3.02,2.97,1.06,1.09,2.13,2.16,3.16,3.28.84.87,1.68,1.71,2.49,2.58,2.3,2.44,4.54,4.9,6.75,7.42,2.02,2.21,3.98,4.54,5.94,6.86.95,1.12,1.93,2.3,2.88,3.5.95,1.18,1.9,2.32,2.83,3.5.95,1.23,1.88,2.41,2.8,3.61,1.32,1.68,2.6,3.39,3.89,5.12,2.46,3.33,4.87,6.72,7.23,10.17,1.29,1.93,2.55,3.84,3.81,5.77,1.06,1.57,2.07,3.19,3.08,4.82.22.39.45.76.67,1.12,1.06,1.65,2.07,3.33,3.08,5.07,1.09,1.79,2.16,3.61,3.22,5.46,2.49,4.4,4.87,8.91,7.17,13.44.98,1.85,1.9,3.72,2.83,5.63.06.17.14.34.22.5.87,1.79,1.74,3.64,2.55,5.43.39.87.78,1.71,1.15,2.52.9,2.02,1.76,3.98,2.6,6.02,1.04,2.41,2.02,4.82,3,7.28.06.14.11.28.17.42.9,2.3,1.76,4.62,2.63,6.95.84,2.27,1.65,4.56,2.41,6.89.25.7.48,1.4.7,2.1.62,1.76,1.2,3.56,1.74,5.35.11.31.22.64.31.98.76,2.44,1.48,4.9,2.18,7.37.56,1.93,1.12,3.92,1.62,5.94.76,2.83,1.48,5.69,2.16,8.6.28,1.2.56,2.44.84,3.7.28,1.26.56,2.55.81,3.81.22,1.09.45,2.18.67,3.3.25,1.23.5,2.49.73,3.75.25,1.4.5,2.83.73,4.23.39,2.21.76,4.34,1.06,6.55.39,2.46.73,4.93,1.04,7.39.03.06.03.11.03.14.34,2.63.64,5.29.9,7.95.28,2.72.53,5.38.73,8.07,0,.11.03.22,0,.31.2,2.41.36,4.84.48,7.23.03.45.06.95.08,1.37.11,2.1.2,4.23.22,6.33.11,3.25.17,6.53.17,9.75Z"/>
  <g>
    <path class="cls-4" d="M1016.48,333.11c0,2.69-.03,5.35-.11,8.01-.06,3.14-.2,6.27-.36,9.38-.11,2.49-.28,4.98-.48,7.48-.2,2.72-.45,5.46-.73,8.18-.25,2.72-.56,5.41-.92,8.09-.34,2.72-.7,5.41-1.12,8.07-.36,2.41-.76,4.84-1.18,7.23-.11.53-.2,1.06-.28,1.57-.39,2.13-.81,4.23-1.23,6.33-.11.64-.25,1.26-.36,1.88-.42,1.96-.84,3.89-1.29,5.83-.7,3.16-1.48,6.33-2.3,9.44-1.26,4.93-2.66,9.77-4.17,14.59v.06c-.78,2.52-1.6,5.01-2.44,7.51-.84,2.52-1.74,4.99-2.63,7.48-.9,2.46-1.85,4.93-2.8,7.37-.98,2.46-1.96,4.87-3,7.31-.98,2.35-2.02,4.7-3.08,7.03-.03.08-.06.17-.08.25-2.16,4.7-4.4,9.35-6.72,13.95,0,.03-.03.06-.06.08-1.18,2.32-2.41,4.62-3.64,6.92-1.04,1.9-2.07,3.75-3.14,5.63-.42.73-.84,1.46-1.26,2.18-1.12,1.93-2.24,3.84-3.39,5.71-1.34,2.21-2.72,4.42-4.12,6.61-1.4,2.18-2.83,4.37-4.28,6.5-1.29,1.93-2.6,3.84-3.95,5.71-2.16,3.05-4.37,6.08-6.64,9.05-2.3,3.02-4.65,6.02-7.06,8.96-1.96,2.41-3.98,4.79-5.99,7.11-1.6,1.85-3.19,3.64-4.82,5.43-.22.25-.45.5-.67.76-1.62,1.79-3.28,3.53-4.93,5.27-1.51,1.6-3.02,3.16-4.56,4.7-.42.42-.84.84-1.26,1.23-1.68,1.71-3.39,3.39-5.13,5.01-.14.14-.28.28-.39.39-1.68,1.6-3.36,3.16-5.1,4.7-3.33,3.05-6.72,5.99-10.17,8.88-.84.73-1.68,1.43-2.55,2.13-.22.17-.42.36-.64.53-1.51,1.23-3.05,2.46-4.59,3.67-1.71,1.34-3.42,2.66-5.13,3.95-1.6,1.2-3.22,2.41-4.87,3.58-1.23.9-2.46,1.79-3.7,2.66-3.28,2.32-6.61,4.56-10,6.75-1.15.76-2.32,1.51-3.5,2.24-1.57,1.01-3.16,1.99-4.76,2.97-1.79,1.09-3.61,2.18-5.46,3.25-3.02,1.74-6.08,3.44-9.16,5.13-1.79.95-3.58,1.9-5.41,2.83-.34.2-.7.36-1.06.53-1.65.87-3.3,1.68-4.99,2.46-4.59,2.3-9.27,4.42-14,6.47-1.34.56-2.69,1.15-4.06,1.71-1.79.73-3.61,1.46-5.43,2.18-2.27.9-4.56,1.76-6.86,2.6-2.91,1.06-5.85,2.1-8.85,3.08-1.65.56-3.33,1.09-5.01,1.62-.78.25-1.6.5-2.41.73-2.1.67-4.23,1.32-6.39,1.9-1.85.53-3.75,1.06-5.63,1.54-.48.14-.98.28-1.48.39-1.37.36-2.77.73-4.17,1.04-.78.22-1.6.42-2.41.62-1.71.39-3.42.78-5.13,1.15-.31.08-.64.14-.95.2-1.54.36-3.08.67-4.62.98-1.62.34-3.28.67-4.96.95-3.78.7-7.56,1.34-11.4,1.9-2.1.31-4.2.62-6.33.87-.11.03-.22.03-.36.06-2.63.34-5.29.64-7.95.9-2.72.28-5.46.53-8.18.73-2.52.2-5.01.36-7.53.48-.59.06-1.18.08-1.76.08-2.35.14-4.7.22-7.06.28h-.22c-2.77.08-5.52.11-8.29.11h-422.41c-25.43,0-50.61,5.24-73.71,15.74-1.54.7-3.08,1.4-4.59,2.16-1.82.9-3.61,1.79-5.41,2.74-1.79.9-3.58,1.85-5.35,2.83-1.79.98-3.53,1.96-5.29,2.94-1.74,1.01-3.47,2.02-5.21,3.08-1.71,1.01-3.42,2.07-5.13,3.16-3.39,2.13-6.75,4.34-10.05,6.64-1.65,1.12-3.28,2.27-4.9,3.47-1.26.9-2.55,1.82-3.78,2.77-.03.03-.06.06-.08.06-1.93,1.46-3.84,2.91-5.71,4.4-9.44,7.45-18.37,15.49-26.77,24.03-17.25,17.5-32.21,37.22-44.45,58.7-2.46,4.29-4.79,8.65-7,13.08v-96.37c13.53-18.29,29.21-34.9,46.66-49.43,1.85-1.54,3.7-3.05,5.6-4.56,6.19-4.9,12.63-9.58,19.27-14,.98-.67,1.99-1.32,3-1.96,1.04-.67,2.1-1.34,3.16-2.02.95-.62,1.9-1.2,2.88-1.79.28-.2.59-.36.9-.53,1.88-1.15,3.75-2.27,5.66-3.36,2.07-1.2,4.15-2.38,6.27-3.5.56-.31,1.15-.62,1.71-.92,2.13-1.15,4.26-2.24,6.41-3.33,7.17-3.58,14.51-6.89,22.01-9.89,1.4-.56,2.77-1.09,4.17-1.62.5-.2.98-.36,1.48-.56.45-.17.87-.34,1.32-.48,19.1-6.95,39.43-10.19,59.76-10.19h427.74c165.04,0,298.85-143.14,298.85-319.72,0-50.8-11.06-98.86-30.81-141.51,1.32,1.71,2.6,3.42,3.89,5.15,2.46,3.33,4.87,6.72,7.23,10.17,1.29,1.9,2.55,3.81,3.81,5.74,1.06,1.6,2.07,3.22,3.08,4.84.22.36.45.73.67,1.09,1.06,1.68,2.07,3.36,3.08,5.07,1.09,1.82,2.16,3.64,3.22,5.49,2.49,4.4,4.87,8.88,7.17,13.41.98,1.88,1.9,3.75,2.83,5.66.06.17.14.31.22.48.87,1.82,1.74,3.64,2.55,5.46.39.84.78,1.68,1.15,2.52.9,1.99,1.76,3.98,2.6,5.99,1.04,2.44,2.02,4.84,3,7.31.06.14.11.25.17.39.9,2.3,1.76,4.65,2.63,6.97.84,2.27,1.65,4.56,2.41,6.86.25.7.48,1.4.7,2.1.62,1.76,1.2,3.58,1.74,5.38.11.31.22.62.31.95.76,2.44,1.48,4.9,2.18,7.37.56,1.96,1.12,3.95,1.62,5.94.76,2.86,1.48,5.71,2.16,8.6.28,1.23.56,2.46.84,3.72.28,1.26.56,2.52.81,3.81.22,1.09.45,2.18.67,3.28.25,1.23.5,2.49.73,3.78.25,1.4.5,2.83.73,4.23.39,2.18.76,4.34,1.06,6.53.39,2.46.73,4.93,1.04,7.42.03.06.03.08.03.11.34,2.63.64,5.32.9,7.98.28,2.69.53,5.38.73,8.07,0,.08.03.2,0,.31.2,2.41.36,4.82.48,7.23.03.45.06.92.08,1.37.11,2.1.2,4.23.22,6.33.11,3.22.17,6.5.17,9.75Z"/>
    <path class="cls-2" d="M502.24,656.21v269.45c0,79.71-64.64,144.34-144.34,144.34H63.52v-267.99c2.21-4.42,4.54-8.79,7-13.08,12.24-21.48,27.19-41.2,44.45-58.7,8.4-8.54,17.34-16.58,26.77-24.03,1.88-1.48,3.78-2.94,5.71-4.4.03,0,.06-.03.08-.06,1.26-.92,2.52-1.85,3.78-2.77,1.62-1.18,3.25-2.32,4.9-3.47,3.3-2.3,6.67-4.51,10.05-6.64,1.71-1.09,3.42-2.13,5.13-3.16,1.74-1.06,3.47-2.07,5.21-3.08,1.76-.98,3.5-1.96,5.29-2.94,1.76-.95,3.56-1.9,5.35-2.83,1.79-.95,3.58-1.85,5.41-2.74,1.51-.76,3.05-1.46,4.59-2.16,23.1-10.5,48.28-15.74,73.71-15.74h231.27Z"/>
    <path class="cls-3" d="M980.38,277.77c0,176.58-133.81,319.72-298.85,319.72H253.79c-20.33,0-40.66,3.25-59.76,10.19-.45.14-.87.31-1.32.48-.5.2-.98.36-1.48.56-1.4.53-2.77,1.06-4.17,1.62-7.51,3-14.84,6.3-22.01,9.89-2.16,1.09-4.29,2.18-6.41,3.33-.56.31-1.15.62-1.71.92-2.13,1.12-4.2,2.3-6.27,3.5-1.9,1.09-3.78,2.21-5.66,3.36-.31.17-.62.34-.9.53-.98.59-1.93,1.18-2.88,1.79-1.06.67-2.13,1.34-3.16,2.02-1.01.64-2.02,1.29-3,1.96-6.64,4.42-13.08,9.1-19.27,14-1.9,1.51-3.75,3.02-5.6,4.56-17.45,14.54-33.13,31.14-46.66,49.43v-150.62c0-64.16,52.01-116.17,116.17-116.17h261.3v101.13l35.18-29.97,26.07-22.21,57.5-48.95,108.44-92.36-110.79-92.34-55.14-45.96-61.25-51.05v97.01h-253.23c-7.76,0-15.38-.73-22.8-2.13-.84-.17-1.71-.34-2.55-.5-.98-.2-1.99-.42-2.97-.67-.9-.2-1.82-.42-2.72-.67-.92-.22-1.82-.48-2.72-.73-.48-.14-.95-.28-1.4-.42-.62-.17-1.23-.36-1.85-.56-1.6-.5-3.16-1.01-4.73-1.6-.87-.31-1.74-.62-2.6-.95-1.29-.5-2.55-1.01-3.81-1.54-.7-.28-1.37-.59-2.07-.9-.59-.25-1.2-.53-1.79-.81-.84-.39-1.65-.78-2.49-1.18-.84-.42-1.65-.84-2.46-1.26-.81-.42-1.65-.84-2.44-1.29-.81-.45-1.62-.9-2.41-1.34-.81-.45-1.6-.92-2.38-1.4-1.57-.95-3.14-1.93-4.65-2.94-1.54-1.01-3.02-2.04-4.51-3.14-.76-.53-1.48-1.09-2.21-1.65-.73-.53-1.46-1.09-2.16-1.68-.73-.56-1.43-1.15-2.13-1.74-1.4-1.15-2.8-2.35-4.14-3.58-.67-.62-1.34-1.23-2.02-1.88-1.04-.98-2.04-1.96-3.05-2.97-4.54-4.62-8.74-9.61-12.52-14.87-.56-.76-1.09-1.51-1.6-2.3-.53-.76-1.06-1.51-1.57-2.3-.5-.78-1.01-1.57-1.48-2.35-.92-1.46-1.79-2.94-2.63-4.45-.5-.92-1.04-1.85-1.54-2.8-.42-.81-.84-1.65-1.26-2.46-.42-.81-.81-1.65-1.23-2.52-.39-.84-.78-1.71-1.15-2.55-.39-.84-.76-1.71-1.12-2.58-.36-.87-.7-1.74-1.04-2.6-2.74-7-4.82-14.28-6.19-21.84-.17-.9-.31-1.82-.48-2.72-.14-.95-.25-1.9-.39-2.86-.11-.95-.22-1.9-.34-2.88-.45-4.34-.67-8.77-.64-13.25v-.78c.03-.7.03-1.4.06-2.1.03-.87.06-1.74.11-2.6.03-.87.08-1.74.17-2.58.06-1.2.17-2.41.31-3.61.06-.81.17-1.6.25-2.38.08-.59.14-1.15.22-1.74.11-.87.25-1.74.39-2.6.62-4,1.46-7.95,2.46-11.82.48-1.76.98-3.53,1.51-5.29.08-.25.17-.5.25-.76.53-1.65,1.09-3.28,1.68-4.9.08-.25.17-.5.28-.76.31-.81.62-1.6.92-2.41,2.32-5.85,5.1-11.51,8.32-16.89.25-.5.56-.98.87-1.48,5.07-8.32,11.09-15.96,17.95-22.82,2.07-2.07,4.23-4.06,6.44-5.99,1.46-1.26,2.97-2.52,4.51-3.72,1.54-1.23,3.11-2.38,4.7-3.53,1.6-1.12,3.22-2.21,4.87-3.28,5.77-3.72,11.9-6.95,18.29-9.63,1.82-.78,3.67-1.51,5.55-2.18,1.88-.7,3.75-1.34,5.66-1.93,1.93-.59,3.84-1.15,5.8-1.65,9.75-2.49,19.97-3.84,30.5-3.84h507.78c2.8,0,5.57.03,8.35.11,2.07.06,4.17.11,6.25.22.17,0,.36,0,.53.03,1.09.03,2.18.08,3.28.17,2.16.11,4.31.25,6.47.42,2.72.2,5.46.45,8.18.73,2.63.25,5.29.56,7.9.9.78.08,1.57.2,2.32.31,1.96.25,3.92.53,5.85.84,2.86.42,5.69.9,8.51,1.4,2.1.36,4.17.78,6.25,1.2,2.52.48,5.01,1.01,7.51,1.6,1.23.28,2.44.56,3.67.84,11.51,2.74,22.77,6.08,33.78,10.03.84.31,1.68.62,2.52.92,1.74.62,3.44,1.26,5.18,1.96,1.15.42,2.3.87,3.44,1.34,1.43.56,2.86,1.15,4.26,1.74,1.29.53,2.58,1.09,3.86,1.62,2.04.9,4.12,1.79,6.16,2.77,1.6.7,3.19,1.43,4.76,2.21.84.39,1.71.81,2.55,1.23,1.54.73,3.05,1.48,4.56,2.27,2.86,1.43,5.69,2.94,8.51,4.48,1.48.78,2.91,1.6,4.37,2.44,1.37.76,2.74,1.57,4.09,2.35,1.18.67,2.32,1.37,3.47,2.07,2.13,1.26,4.23,2.55,6.3,3.89,1.26.81,2.52,1.62,3.78,2.44,1.68,1.09,3.33,2.18,4.99,3.33,1.29.87,2.58,1.76,3.86,2.66.81.59,1.62,1.15,2.44,1.74.45.31.87.62,1.29.92,1.18.84,2.35,1.68,3.5,2.58,2.49,1.85,4.99,3.75,7.42,5.69,1.2.95,2.41,1.9,3.61,2.88,1.82,1.51,3.64,3.02,5.43,4.54,2.38,2.02,4.71,4.06,7.03,6.16.95.84,1.9,1.71,2.83,2.58,2.46,2.27,4.87,4.56,7.25,6.92,1.01.98,2.02,1.99,3.02,3,1.06,1.09,2.13,2.16,3.16,3.25.84.87,1.68,1.74,2.49,2.6,2.3,2.44,4.54,4.9,6.75,7.39,2.02,2.24,3.98,4.54,5.94,6.86.95,1.15,1.93,2.32,2.88,3.5.95,1.18,1.9,2.35,2.83,3.53.95,1.2,1.88,2.38,2.8,3.58,19.74,42.65,30.81,90.71,30.81,141.51Z"/>
  </g>
</svg>