<?xml version="1.0" encoding="UTF-8"?> <svg id="Camada_3" data-name="Camada 3" xmlns="http://www.w3.org/2000/svg" xmlns:xlink="http://www.w3.org/1999/xlink" viewBox="0 0 670.22 354.58"><defs><style>@keyframes animel1{0%{fill:none;stroke:#ff9b58;stroke-dashoffset:25%;stroke-dasharray:0 50%;stroke-width:2}70%{fill:none;stroke:#ff9b58;stroke-dashoffset:-25%;stroke-dasharray:50% 0;stroke-width:2}75%{fill:none;stroke:#ff9b58;stroke-width:3}90%{fill:url(#Gradiente_sem_nome_13);opacity:.3;stroke:rgba(255,155,88,.3);stroke-width:1}100%{fill:url(#Gradiente_sem_nome_13);stroke:none;stroke-width:0}}@keyframes animel1_reverse{0%{fill:url(#Gradiente_sem_nome_13);stroke:none;stroke-width:0}35%{fill:rgba(255,155,88,0);stroke:#ff9b58;stroke-dashoffset:-25%;stroke-dasharray:50% 0;stroke-width:2}100%{fill:none;stroke:#ff9b58;stroke-width:2;stroke-dashoffset:25%;stroke-dasharray:0 50%}}@keyframes animel2{0%{fill:none;stroke:#ff9b58;stroke-dashoffset:25%;stroke-dasharray:0 50%;stroke-width:2}70%{fill:none;stroke:#ff9b58;stroke-dashoffset:-25%;stroke-dasharray:50% 0;stroke-width:2}75%{fill:none;stroke:#ff9b58;stroke-width:3}90%{fill:rgba(255,155,88,.5);opacity:.5;stroke:rgba(255,155,88,.3);stroke-width:1}100%{fill:url(#Gradiente_sem_nome_18-2);stroke:none;stroke-width:0}}@keyframes animel2_reverse{0%{fill:url(#Gradiente_sem_nome_18-2);stroke:none;stroke-width:0}35%{fill:rgba(255,155,88,0);stroke:#ff9b58;stroke-dashoffset:-25%;stroke-dasharray:50% 0;stroke-width:2}100%{fill:none;stroke:#ff9b58;stroke-width:2;stroke-dashoffset:25%;stroke-dasharray:0 50%}}@keyframes animel3{0%{fill:none;stroke:#ff9b58;stroke-dashoffset:25%;stroke-dasharray:0 50%;stroke-width:2}70%{fill:none;stroke:#ff9b58;stroke-dashoffset:-25%;stroke-dasharray:50% 0;stroke-width:2}75%{fill:none;stroke:#ff9b58;stroke-width:3}90%{fill:rgba(255,155,88,.5);opacity:.5;stroke:rgba(255,155,88,.3);stroke-width:1}100%{fill:url(#Gradiente_sem_nome_25);stroke:none;stroke-width:0}}@keyframes animel3_reverse{0%{fill:url(#Gradiente_sem_nome_25);stroke:none;stroke-width:0}35%{fill:rgba(255,155,88,0);stroke:#ff9b58;stroke-dashoffset:-25%;stroke-dasharray:50% 0;stroke-width:2}100%{fill:none;stroke:#ff9b58;stroke-width:2;stroke-dashoffset:25%;stroke-dasharray:0 50%}}@keyframes animel4{0%{fill:none;stroke:#ff9b58;stroke-dashoffset:25%;stroke-dasharray:0 50%;stroke-width:2}70%{fill:none;stroke:#ff9b58;stroke-dashoffset:-25%;stroke-dasharray:50% 0;stroke-width:2}75%{fill:none;stroke:#ff9b58;stroke-width:3}90%{fill:rgba(245,164,104,.5);stroke:rgba(255,155,88,.3);stroke-width:1}100%{fill:#f5a468;stroke:none;stroke-width:0}}@keyframes animel4_reverse{0%{fill:#f5a468;stroke:none;stroke-width:0}35%{fill:rgba(245,164,104,0);fill:none;stroke:#ff9b58;stroke-dashoffset:-25%;stroke-dasharray:50% 0;stroke-width:2}100%{fill:none;stroke:#ff9b58;stroke-width:2;stroke-dashoffset:25%;stroke-dasharray:0 50%}}@keyframes animel5{0%{fill:none;stroke:#1e264b;stroke-dashoffset:25%;stroke-dasharray:0 50%;stroke-width:2}70%{fill:none;stroke:#1e264b;stroke-dashoffset:-25%;stroke-dasharray:50% 0;stroke-width:2}75%{fill:none;stroke:#1e264b;stroke-width:3}90%{fill:rgba(30,38,75,.5);stroke:rgba(30,38,75,.3);stroke-width:1}100%{fill:#1e264b;stroke:none;stroke-width:0}}@keyframes animel5_reverse{0%{fill:#1e264b;stroke:none;stroke-width:0}35%{fill:rgba(30,38,75,0);stroke:#1e264b;stroke-dashoffset:-25%;stroke-dasharray:50% 0;stroke-width:2}100%{fill:none;stroke:#1e264b;stroke-width:2;stroke-dashoffset:25%;stroke-dasharray:0 50%}}.cls-1,.cls-2,.cls-3,.cls-4,.cls-5,.cls-6{stroke-width:0}.cls-1{fill:none}.cls-2{animation:animel1 3s ease-in-out forwards,animel1_reverse 3s ease-in-out 5s forwards}.cls-3{animation:animel2 3s ease-in-out forwards,animel2_reverse 3s ease-in-out 5s forwards}.cls-4{animation:animel3 3s ease-in-out forwards,animel3_reverse 3s ease-in-out 5s forwards}.cls-5{animation:animel5 3s ease-in-out forwards,animel5_reverse 3s ease-in-out 5s forwards}.cls-6{animation:animel4 3s ease-in-out forwards,animel4_reverse 3s ease-in-out 5s forwards}</style><linearGradient id="Gradiente_sem_nome_18" data-name="Gradiente sem nome 18" x1="5.77" y1="156.19" x2="278.89" y2="156.19" gradientUnits="userSpaceOnUse"><stop offset="0" stop-color="#f7af6c"/><stop offset=".56" stop-color="#f39850"/><stop offset="1" stop-color="#f18438"/></linearGradient><linearGradient id="Gradiente_sem_nome_25" data-name="Gradiente sem nome 25" x1="5.77" y1="135.88" x2="278.89" y2="135.88" gradientUnits="userSpaceOnUse"><stop offset="0" stop-color="#f1873d"/><stop offset=".5" stop-color="#f29048"/><stop offset="1" stop-color="#f59e59"/></linearGradient><linearGradient id="Gradiente_sem_nome_13" data-name="Gradiente sem nome 13" x1="5.77" y1="248.8" x2="131.51" y2="248.8" gradientUnits="userSpaceOnUse"><stop offset="0" stop-color="#f8b06a"/><stop offset=".51" stop-color="#f8af67"/><stop offset=".82" stop-color="#f8ae5e"/><stop offset="1" stop-color="#f8ad56"/></linearGradient><linearGradient id="Gradiente_sem_nome_18-2" data-name="Gradiente sem nome 18" y1="103.98" x2="268.55" y2="103.98" xlink:href="#Gradiente_sem_nome_18"/></defs><g><g><path class="cls-6" d="M625.7,350.29c-.48-.2-.95-.42-1.44-.58-9.24-3.05-16.13-8.81-19.38-18.08-3.67-10.49-1.41-19.98,6.13-28.14,1.27-1.38,2.83-2.5,4.25-3.74.18-.15.36-.3.6-.5-.27-.31-.48-.56-.71-.8-5.9-6.24-8.53-13.66-7.87-22.2.61-7.92,3.92-14.55,10.08-19.63,4.82-3.97,10.44-5.9,16.67-5.92,9.75-.04,19.51,0,29.26-.01.39,0,.77-.03,1.16-.05v13.11c-1.26-.02-2.52-.05-3.78-.04-1.23,0-2.46-.07-3.82.07.31.61.52,1.04.73,1.47,5.65,10.97,3.81,24.11-4.39,32.7-.43.45-.8.94-1.17,1.37,1.49,1.3,2.96,2.43,4.24,3.74,4.55,4.65,7.49,10.09,7.95,16.7.02.28.15.55.23.83v3.79c-.09.42-.18.83-.26,1.25-.36,1.79-.51,3.66-1.12,5.37-3.37,9.53-10.16,15.54-19.62,18.73-.49.17-.96.38-1.44.58h-16.32ZM633.82,337.52c8.5-.01,15.26-6.69,15.24-15.06-.02-8.38-6.79-15.04-15.27-15.04-8.5,0-15.13,6.64-15.12,15.14,0,8.35,6.71,14.97,15.15,14.96ZM645.58,278.78c-.05-3.9-1.26-7.09-3.89-9.67-4.65-4.57-11.76-4.25-16.01.7-4.45,5.18-4.29,12.81.36,17.81,3.93,4.22,10.07,4.75,14.62,1.19,3.31-2.59,4.85-6.09,4.92-10.02Z"/><path class="cls-6" d="M330,309.65h-16c-.04-.57-.09-1.04-.09-1.51,0-27.58,0-55.15,0-82.73,0-.24,0-.49,0-.73-.01-.68.37-.96,1-.98.29,0,.58-.01.87-.01,11.94,0,23.89-.07,35.83.02,8.65.07,15.84,3.38,21.27,10.23,3.13,3.96,4.79,8.51,5.3,13.5.56,5.49.13,10.89-2.19,15.97-4.06,8.91-11.05,14.03-20.71,15.51-1.38.21-2.8.26-4.21.26-6.41.03-12.82.01-19.23.01-.53,0-1.06,0-1.79,0-.11,1.74-.04,3.43-.05,5.1-.01,1.65,0,3.3,0,4.95v15.15c0,1.69,0,3.39,0,5.25ZM330.06,262.17c.39.04.67.09.95.09,6.55,0,13.1.03,19.65-.03,1.49-.01,3.01-.2,4.46-.56,3.52-.87,5.93-2.99,6.84-6.61.52-2.05.54-4.14.25-6.22-.53-3.88-2.84-6.32-6.49-7.42-1.55-.47-3.24-.68-4.87-.7-6.5-.08-13-.04-19.5-.03-.42,0-.83.07-1.29.1v21.37Z"/><path class="cls-6" d="M421.84,280.07c.22-9.44,3.83-17.66,11.44-23.97,10.87-9.01,26.42-8.95,37.27.09,14.6,12.17,15.14,34.92,1.13,47.76-13.14,12.05-33.36,9.89-43.83-4.69-4.04-5.62-5.93-11.93-6.01-19.19ZM466.43,280.92c-.04-5.14-1.63-9.29-5.11-12.62-5.38-5.14-13.18-5.19-18.67-.19-7.03,6.4-7.18,18.01-.32,24.59,5.03,4.82,12.46,5.24,17.93.93,4.21-3.31,6.06-7.79,6.17-12.72Z"/><path class="cls-6" d="M543.34,280.13c.15-8.6,3.24-16.37,9.83-22.62,11.54-10.95,29.19-10.83,40.65.27,13,12.59,12.64,34.18-.78,46.31-13.96,12.62-35.43,9.27-45.16-7.04-2.95-4.95-4.53-10.68-4.54-16.91ZM587.91,281.82c0-6.03-1.8-10.39-5.03-13.47-5.38-5.14-13.16-5.26-18.68-.29-7.1,6.4-7.26,18.1-.33,24.69,5,4.75,12.37,5.18,17.82.94,4.27-3.33,6.14-7.85,6.22-11.87Z"/><path class="cls-6" d="M504.12,293.6h38.92c.38,1.3.43,14.56.06,16.14-17.95,0-35.94,0-53.94,0-.37,0-.74-.12-1.22-.21v-1.67c0-27.38,0-54.76,0-82.15,0-.24,0-.49,0-.73.04-1.07.21-1.31,1.27-1.31,4.61-.02,9.22,0,13.84-.02.75,0,1.06.36,1.06,1.06,0,.44,0,.87,0,1.31,0,21.85,0,43.69,0,65.54,0,.62,0,1.23,0,2.02Z"/><path class="cls-6" d="M401.46,250.83c.33,1.89-.01,3.88.23,6.11,2.74-2.35,5.58-4.12,8.84-5.16,3.26-1.04,6.56-1.58,10.1-1.17v16.72c-1.59-.26-3.1-.53-4.61-.77-1.7-.27-3.4-.12-5.06.26-5.51,1.25-9.3,5.93-9.33,11.67-.05,9.66-.02,19.32-.02,28.98,0,2.42.12,2.3-2.3,2.29-3.88,0-7.77,0-11.65,0-.39,0-.78,0-1.16-.04-.5-.05-.8-.32-.81-.85,0-.34,0-.68,0-1.02,0-18.39,0-36.79,0-55.18,0-.29-.01-.58,0-.87.06-.91.23-1.16,1.11-1.17,4.71-.01,9.41,0,14.12.02.13,0,.27.09.55.19Z"/></g><g><path class="cls-5" d="M436.04,166.01c-.32-.35-.55-.6-.77-.85-6.48-7.09-6.87-17.89-.84-25.38,3.38-4.2,7.84-6.48,13.24-6.58,6.6-.12,13.2-.04,19.8-.03.38,0,.76.07,1.11.1.39,1.17.43,7.05.04,8.58h-4.88c4.35,8.93,3.44,16.98-3.27,24.23.44.36.81.66,1.18.96,4.32,3.52,6.85,8.02,7.2,13.61.29,4.64-1.09,8.82-3.99,12.46-7.43,9.31-21.5,10.64-30.57,2.9-9.27-7.91-8.98-21.51.61-29.12.34-.27.69-.53,1.15-.88ZM448.01,191.83c5.77.05,10.42-4.43,10.45-10.05.02-5.65-4.55-10.24-10.26-10.29-5.61-.05-10.18,4.45-10.26,10.1-.09,5.62,4.42,10.2,10.08,10.24ZM456.11,151.64c-.06-2.06-.83-4.24-2.6-6.01-3.09-3.08-7.8-2.94-10.72.3-3.32,3.7-3.01,9.51.72,12.79,1.65,1.46,3.58,2.09,5.78,1.73,3.94-.65,6.79-4.18,6.82-8.81Z"/><path class="cls-5" d="M663.82,173.11c-3.62,0-7.08.02-10.69-.03v-4.81c-.39.33-.57.45-.7.6-3.16,3.89-7.33,5.44-12.22,5.24-5.71-.24-10.37-2.68-14.03-7.01-7.7-9.09-6.51-23.22,2.61-30.71,4.57-3.76,9.84-5.12,15.67-4.05,3,.55,5.56,1.98,7.64,4.22.23.24.45.49.93,1.01.01-.9.04-1.49.03-2.08-.04-2.8.08-2.5,2.42-2.5,2.23,0,4.47,0,6.7,0,.48,0,.95.04,1.55.07.07.59.17,1.11.17,1.62,0,12.33,0,24.66,0,36.99,0,.38-.05.77-.1,1.43ZM643.58,165.03c1.5-.01,3.84-1.04,5.78-2.98,4.87-4.86,4.82-13.17-.09-17.98-3.98-3.9-10.04-3.88-13.99.03-4.93,4.88-4.9,13.25.09,18.08,1.93,1.86,4.23,2.87,8.21,2.85Z"/><path class="cls-5" d="M405.2,132.3c9.44,0,17.77,6.83,19.73,16.29,1.47,7.09.03,13.54-4.77,19.04-8.69,9.94-23.92,9-31.43-1.85-6.36-9.19-4.67-21.88,3.86-28.93,3.65-3.02,7.86-4.55,12.61-4.54ZM415.07,153.37c-.08-3.29-1.18-6.17-3.64-8.43-3.57-3.28-8.65-3.32-12.3-.13-4.88,4.26-5.1,12.23-.46,16.77,3.6,3.52,9.03,3.64,12.76.24,2.47-2.25,3.56-5.13,3.64-8.44Z"/><path class="cls-5" d="M522.93,147.92c-1.19-1.01-2.09-1.9-3.12-2.6-4.26-2.93-8.99-4.02-14.1-3.34-.89.12-1.81.43-2.6.85-1.39.75-1.61,2.17-.47,3.26.68.65,1.56,1.22,2.45,1.48,1.95.57,3.96.92,5.94,1.37,2.13.48,4.28.87,6.37,1.49,1.29.38,2.54.98,3.7,1.67,3.89,2.34,5.47,5.9,5.15,10.34-.36,5.01-2.95,8.52-7.45,10.64-3.55,1.67-7.32,2.19-11.2,2.01-3.17-.15-6.3-.6-9.2-1.94-1.57-.73-3.02-1.72-4.5-2.63-.46-.28-.74-.7-.74-1.32.03-3.49.02-6.99.03-10.48,0-.13.08-.26.2-.63.45.44.81.79,1.17,1.14,4.16,3.92,9.02,6.19,14.81,6.07,1.39-.03,2.77-.39,4.15-.67.56-.12,1.1-.4,1.6-.68,2.11-1.2,2.14-2.88.03-4.07-1.98-1.11-4.2-1.43-6.38-1.9-2.42-.51-4.82-1.09-7.21-1.71-.88-.23-1.75-.6-2.57-1-4.19-2.05-6.53-5.35-6.75-10.08-.23-4.94,2.06-8.47,6.17-10.91,2.5-1.49,5.29-2.14,8.18-2.36,4.27-.31,8.44.15,12.39,1.89,1.23.54,2.34,1.36,3.48,2.08.46.29.74.71.72,1.33-.1,3.49-.16,6.98-.24,10.68Z"/><path class="cls-5" d="M617.85,140.77c-2.49,2.33-4.99,4.68-7.59,7.12-.44-.56-.8-1.01-1.15-1.45-3.08-3.91-7.4-5.3-11.6-3.74-4.26,1.58-7.06,5.91-6.89,10.64.18,5.02,3.26,9.13,7.81,10.21,4.05.97,7.48-.18,10.19-3.35.6-.7,1.12-1.45,1.81-2.34,2.6,2.37,5.12,4.68,7.63,6.97-4.15,6.53-12.53,10.82-21.69,8.79-9.24-2.05-16-10.24-16.32-19.88-.37-11.09,7.16-18.52,14.44-20.88,8.98-2.91,18.22.7,23.36,7.91Z"/><path class="cls-5" d="M537.79,172.67v-30.11h-7.19c-.08-.51-.19-.87-.19-1.24-.02-2.28-.02-4.56,0-6.84.01-1.35.16-1.48,1.53-1.49,1.88-.01,3.77,0,5.77,0,.04-.44.1-.81.11-1.17,0-3.74,0-7.47,0-11.21,0-1.48.12-1.6,1.55-1.61,2.62-.02,5.24,0,7.86,0,.33,0,.67.06,1.17.11.06.57.16,1.12.16,1.68.01,3.54,0,7.08.01,10.63,0,.47.04.95.07,1.54h8.86c.48,1.15.58,7.83.14,9.61h-9.05v30.03c-1.21.45-9.01.51-10.78.08Z"/><path class="cls-5" d="M379.25,114.85c.35,1.32.44,56.22.16,57.95-1.05.38-8.66.44-10.35.05-.03-.42-.09-.89-.09-1.36,0-18.29,0-36.58,0-54.87,0-.19,0-.39,0-.58.06-1,.19-1.16,1.24-1.18,1.75-.03,3.49-.01,5.24-.01,1.26,0,2.51,0,3.8,0Z"/><path class="cls-5" d="M485.68,172.68c-1.25.34-8.94.38-10.53.06-.04-.37-.12-.78-.12-1.2,0-12.28,0-24.57,0-36.85,0-1.59.11-1.69,1.61-1.7,2.57-.01,5.15-.01,7.72,0,1.2,0,1.33.15,1.4,1.32.02.34,0,.68,0,1.02,0,11.85,0,23.69,0,35.54,0,.62-.05,1.24-.08,1.81Z"/><path class="cls-5" d="M574.64,172.72c-1.73.38-9.42.29-10.59-.12-.02-.44-.06-.91-.06-1.38,0-12.08,0-24.16,0-36.23,0-.24-.01-.49,0-.73.06-1.02.27-1.25,1.33-1.27,2.18-.02,4.37,0,6.55,0,.82,0,1.64,0,2.64,0,.08.56.22,1.06.22,1.56.01,12.37,0,24.74,0,37.11,0,.33-.06.66-.1,1.07Z"/><path class="cls-5" d="M488.47,113.32c3.27,1.6,6.52,3.18,9.86,4.82-.29.25-.42.39-.58.49-3.98,2.59-7.96,5.18-11.95,7.74-.35.22-.8.4-1.2.41-2.91.03-5.81.01-8.72,0-.13,0-.25-.1-.38-.15.53-.96,10.8-11.5,12.97-13.3Z"/><path class="cls-5" d="M574.54,126.09c-1.52.3-9.18.25-10.41-.07-.04-.24-.13-.51-.14-.78-.01-3.01-.02-6.01,0-9.02,0-1.13.17-1.34,1.22-1.35,2.91-.03,5.82,0,8.73,0,.18,0,.36.09.52.13.35,1.14.42,9.43.09,11.09Z"/></g></g><g><path class="cls-1" d="M278.89,96.9c0,.77,0,1.54-.03,2.3-.02.9-.06,1.8-.1,2.69-.03.71-.08,1.42-.14,2.14-.06.79-.13,1.57-.21,2.34-.07.78-.16,1.56-.26,2.32-.1.79-.2,1.55-.32,2.31-.1.69-.22,1.39-.34,2.08-.03.15-.06.31-.08.45-.11.61-.23,1.21-.35,1.81-.03.18-.07.36-.1.53-.12.57-.24,1.12-.37,1.68-.2.91-.43,1.81-.66,2.7-.36,1.41-.76,2.79-1.2,4.17v.02c-.22.73-.46,1.44-.7,2.15-.24.73-.5,1.44-.75,2.15-.26.7-.53,1.4-.8,2.1-.28.71-.56,1.4-.86,2.1-.28.67-.58,1.35-.88,2.01,0,.02-.02.05-.02.06-.62,1.35-1.26,2.69-1.93,4,0,0,0,.02-.02.02-.34.67-.69,1.33-1.04,1.98-.3.55-.59,1.08-.9,1.61-.12.21-.24.42-.36.63-.32.55-.64,1.1-.97,1.63-.39.64-.78,1.28-1.18,1.89-.4.63-.81,1.25-1.23,1.86-.37.55-.75,1.1-1.13,1.65-.62.87-1.25,1.74-1.9,2.58-.66.87-1.33,1.73-2.02,2.58-.56.68-1.14,1.36-1.72,2.03-.46.54-.92,1.04-1.38,1.56-.06.08-.13.14-.19.22-.47.51-.94,1.01-1.41,1.51-.43.46-.87.91-1.31,1.35-.12.11-.24.23-.36.35-.48.48-.97.96-1.47,1.43-.04.04-.08.09-.11.12-.48.46-.96.91-1.46,1.34-.96.88-1.93,1.73-2.91,2.54-.24.21-.48.41-.73.61-.06.05-.12.1-.18.15-.43.35-.87.71-1.32,1.05-.49.39-.98.77-1.47,1.14-.46.35-.92.69-1.4,1.02-.35.26-.71.52-1.06.77-.94.67-1.89,1.31-2.87,1.93-.33.22-.67.44-1,.65-.45.29-.91.56-1.36.85-.51.31-1.04.62-1.57.92-.87.5-1.74.99-2.62,1.48-.51.26-1.03.55-1.55.81-.1.05-.2.1-.31.15-.47.25-.95.47-1.43.7-1.32.66-2.66,1.27-4.01,1.85-.39.16-.77.33-1.16.5-.51.21-1.04.41-1.56.62-.65.26-1.31.51-1.97.75-.83.31-1.68.6-2.54.89-.47.16-.96.31-1.44.46-.22.07-.46.15-.69.21-.6.19-1.21.39-1.83.55-.53.15-1.08.31-1.61.45-.14.04-.28.07-.43.1-.39.1-.79.21-1.2.3-.22.06-.46.12-.69.18-.49.12-.98.22-1.47.33-.09.03-.18.05-.27.06-.44.1-.88.19-1.32.29-.47.1-.94.19-1.42.26-1.08.2-2.17.39-3.27.55-.6.1-1.2.18-1.81.25-.03,0-.06,0-.1.02-.75.1-1.52.18-2.28.26-.78.08-1.57.15-2.34.22-.72.06-1.44.1-2.16.13-.17.02-.34.03-.51.03-.67.04-1.35.06-2.02.07h-.06c-.79.03-1.58.03-2.38.03h-54.78v77.22c0,22.85-18.53,41.37-41.37,41.37H5.77v-147.59c0-18.39,14.91-33.29,33.29-33.29h74.89v28.98l10.08-8.58,7.47-6.37,16.48-14.03,31.08-26.46-31.75-26.47-15.8-13.16-17.55-14.63v27.8H41.38c-2.22,0-4.41-.21-6.53-.61-.24-.05-.49-.1-.73-.14-.28-.06-.57-.11-.85-.19-.26-.06-.52-.11-.78-.19-.26-.06-.52-.13-.78-.21-.14-.04-.27-.07-.4-.11-.18-.05-.35-.1-.53-.16-.46-.14-.91-.29-1.36-.46-.25-.09-.5-.18-.75-.28-.37-.14-.73-.29-1.09-.44-.2-.07-.39-.16-.59-.26-.17-.06-.35-.15-.51-.22-.24-.12-.47-.23-.71-.34-.24-.13-.47-.25-.71-.36-.23-.13-.47-.24-.7-.38-.23-.12-.47-.26-.69-.38-.23-.14-.46-.27-.68-.4-.45-.28-.9-.55-1.33-.84-.44-.3-.87-.59-1.29-.9-.22-.15-.43-.31-.63-.48-.21-.15-.42-.31-.62-.47-.21-.16-.41-.34-.61-.5-.4-.34-.8-.68-1.19-1.04-.19-.17-.39-.35-.58-.53-.3-.29-.59-.57-.87-.85-1.3-1.33-2.5-2.75-3.59-4.26-.16-.22-.31-.44-.46-.66-.15-.22-.31-.44-.45-.67-.14-.22-.29-.44-.43-.67-.26-.41-.51-.84-.75-1.27-.14-.27-.3-.54-.44-.8-.12-.24-.24-.48-.36-.71-.12-.23-.23-.48-.35-.73-.11-.24-.22-.49-.33-.72-.11-.24-.22-.49-.32-.74s-.2-.51-.3-.75c-.79-2.01-1.38-4.09-1.77-6.26-.05-.26-.09-.51-.14-.77-.04-.28-.07-.55-.11-.83-.03-.26-.06-.55-.1-.82-.13-1.25-.19-2.51-.18-3.8v-.22c0-.2,0-.4.02-.6,0-.25.02-.5.03-.75,0-.25.02-.5.05-.75.02-.35.05-.69.09-1.04.02-.22.05-.46.07-.67.02-.17.04-.34.06-.51.03-.25.07-.5.11-.75.18-1.15.42-2.27.71-3.38.14-.51.28-1.02.43-1.53.02-.06.05-.14.07-.22.15-.47.31-.94.48-1.4.02-.06.05-.14.08-.21.09-.24.18-.46.26-.69.67-1.69,1.46-3.31,2.38-4.85.07-.14.16-.27.25-.43,1.45-2.38,3.18-4.57,5.15-6.53.59-.59,1.21-1.17,1.85-1.73.42-.36.85-.71,1.29-1.07.44-.35.89-.68,1.35-1,.46-.33.92-.64,1.4-.95,1.65-1.06,3.41-1.99,5.24-2.76.52-.22,1.05-.43,1.59-.62.54-.2,1.08-.39,1.62-.55.55-.18,1.1-.34,1.66-.48,2.79-.71,5.72-1.1,8.74-1.1h145.53c.8,0,1.6,0,2.39.04.59,0,1.2.03,1.79.06.05,0,.1,0,.15,0,.31,0,.63.03.94.05.62.04,1.24.08,1.85.13.78.06,1.57.12,2.34.21.75.06,1.52.15,2.26.25.22.02.45.06.67.1.56.06,1.12.15,1.68.23.82.13,1.63.26,2.44.4.6.11,1.2.22,1.79.35.72.14,1.44.29,2.15.46.35.08.7.17,1.05.24,3.3.79,6.53,1.74,9.68,2.88.24.08.48.17.72.26.5.17.99.35,1.48.55.33.12.66.25.99.39.41.15.82.32,1.22.5.37.15.74.31,1.11.46.59.26,1.18.51,1.77.8.46.2.92.4,1.36.63.24.12.49.23.73.35.44.22.87.43,1.31.65.82.42,1.63.84,2.44,1.28.43.22.83.46,1.25.7.39.22.79.46,1.17.67.34.19.67.39,1,.59.61.36,1.21.74,1.81,1.12.36.23.72.47,1.08.7.48.32.96.63,1.43.96.37.25.74.51,1.11.77.23.16.47.32.7.5.13.08.25.17.37.26.34.24.67.47,1,.74.71.52,1.43,1.07,2.13,1.62.35.27.69.55,1.04.83.52.43,1.04.87,1.56,1.3.68.58,1.35,1.17,2.01,1.77.27.23.55.48.81.73.71.65,1.4,1.31,2.08,1.99.29.27.58.56.87.85.31.31.61.62.91.94.24.25.48.49.71.74.66.7,1.3,1.4,1.93,2.13.58.63,1.14,1.3,1.7,1.97.27.32.55.66.83,1,.27.34.55.67.81,1,.27.35.54.69.8,1.04.38.48.75.97,1.12,1.47.71.96,1.4,1.93,2.07,2.91.37.55.73,1.1,1.09,1.65.31.45.59.92.88,1.38.06.11.13.22.19.32.31.47.59.96.88,1.45.31.51.62,1.04.92,1.57.71,1.26,1.4,2.55,2.05,3.85.28.53.55,1.07.81,1.61.02.05.04.1.06.14.25.51.5,1.04.73,1.56.11.25.22.49.33.72.26.58.51,1.14.75,1.73.3.69.58,1.38.86,2.09.02.04.03.08.05.12.26.66.51,1.32.75,1.99.24.65.47,1.31.69,1.97.07.2.14.4.2.6.18.51.35,1.02.5,1.53.03.09.06.18.09.28.22.7.43,1.4.63,2.11.16.55.32,1.12.47,1.7.22.81.43,1.63.62,2.46.08.35.16.7.24,1.06.08.36.16.73.23,1.09.06.31.13.63.19.95.07.35.14.71.21,1.08.07.4.14.81.21,1.21.11.63.22,1.24.31,1.88.11.71.21,1.41.3,2.12,0,.02,0,.03,0,.04.1.75.18,1.52.26,2.28.08.78.15,1.54.21,2.31,0,.03,0,.06,0,.09.06.69.1,1.39.14,2.07,0,.13.02.27.02.39.03.6.06,1.21.06,1.81.03.93.05,1.87.05,2.79Z"/><g><path class="cls-4" d="M278.89,96.9c0,.77,0,1.53-.03,2.3-.02.9-.06,1.8-.1,2.69-.03.71-.08,1.43-.14,2.14-.06.78-.13,1.57-.21,2.34-.07.78-.16,1.55-.26,2.32-.1.78-.2,1.55-.32,2.31-.1.69-.22,1.39-.34,2.07-.03.15-.06.31-.08.45-.11.61-.23,1.21-.35,1.81-.03.18-.07.36-.1.54-.12.56-.24,1.12-.37,1.67-.2.91-.43,1.81-.66,2.7-.36,1.41-.76,2.8-1.2,4.18v.02c-.22.72-.46,1.44-.7,2.15-.24.72-.5,1.43-.75,2.14-.26.71-.53,1.41-.8,2.11-.28.71-.56,1.4-.86,2.09-.28.67-.58,1.35-.88,2.01,0,.02-.02.05-.02.07-.62,1.35-1.26,2.68-1.93,4,0,0,0,.02-.02.02-.34.67-.69,1.32-1.04,1.98-.3.55-.59,1.08-.9,1.61-.12.21-.24.42-.36.63-.32.55-.64,1.1-.97,1.64-.39.63-.78,1.27-1.18,1.89-.4.63-.81,1.25-1.23,1.86-.37.55-.75,1.1-1.13,1.64-.62.87-1.25,1.74-1.9,2.59-.66.87-1.33,1.73-2.02,2.57-.56.69-1.14,1.37-1.72,2.04-.46.53-.92,1.04-1.38,1.56-.06.07-.13.14-.19.22-.47.51-.94,1.01-1.41,1.51-.43.46-.87.91-1.31,1.35-.12.12-.24.24-.36.35-.48.49-.97.97-1.47,1.44-.04.04-.08.08-.11.11-.48.46-.96.91-1.46,1.35-.96.87-1.93,1.72-2.91,2.54-.24.21-.48.41-.73.61-.06.05-.12.1-.18.15-.43.35-.87.71-1.32,1.05-.49.39-.98.76-1.47,1.13-.46.35-.92.69-1.4,1.03-.35.26-.71.51-1.06.76-.94.67-1.89,1.31-2.87,1.93-.33.22-.67.43-1,.64-.45.29-.91.57-1.36.85-.51.31-1.04.63-1.57.93-.87.5-1.74.99-2.62,1.47-.51.27-1.03.55-1.55.81-.1.06-.2.1-.31.15-.47.25-.95.48-1.43.71-1.32.66-2.66,1.27-4.01,1.85-.39.16-.77.33-1.16.49-.51.21-1.04.42-1.56.63-.65.26-1.31.51-1.97.75-.83.31-1.68.6-2.54.88-.47.16-.96.31-1.44.47-.22.07-.46.14-.69.21-.6.19-1.21.38-1.83.55-.53.15-1.08.31-1.61.44-.14.04-.28.08-.43.11-.39.1-.79.21-1.2.3-.22.06-.46.12-.69.18-.49.11-.98.22-1.47.33-.09.02-.18.04-.27.06-.44.1-.88.19-1.32.28-.47.1-.94.19-1.42.27-1.08.2-2.17.39-3.27.55-.6.09-1.2.18-1.81.25-.03,0-.06,0-.1.02-.75.1-1.52.18-2.28.26-.78.08-1.57.15-2.34.21-.72.06-1.44.1-2.16.14-.17.02-.34.02-.51.02-.67.04-1.35.06-2.02.08h-.06c-.79.02-1.58.03-2.38.03h-121.07c-7.29,0-14.5,1.5-21.13,4.51-.44.2-.88.4-1.32.62-.52.26-1.04.51-1.55.79-.51.26-1.03.53-1.53.81-.51.28-1.01.56-1.52.84-.5.29-1,.58-1.49.88-.49.29-.98.59-1.47.91-.97.61-1.93,1.24-2.88,1.9-.47.32-.94.65-1.4,1-.36.26-.73.52-1.08.79,0,0-.02.02-.02.02-.55.42-1.1.83-1.64,1.26-2.7,2.14-5.27,4.44-7.67,6.89-4.94,5.02-9.23,10.67-12.74,16.82-.71,1.23-1.37,2.48-2.01,3.75v-27.62c3.88-5.24,8.37-10,13.37-14.17.53-.44,1.06-.87,1.61-1.31,1.77-1.4,3.62-2.75,5.52-4.01.28-.19.57-.38.86-.56.3-.19.6-.39.91-.58.27-.18.55-.35.83-.51.08-.06.17-.1.26-.15.54-.33,1.08-.65,1.62-.96.59-.35,1.19-.68,1.8-1,.16-.09.33-.18.49-.26.61-.33,1.22-.64,1.84-.96,2.05-1.03,4.16-1.97,6.31-2.83.4-.16.79-.31,1.2-.47.14-.06.28-.1.43-.16.13-.05.25-.1.38-.14,5.47-1.99,11.3-2.92,17.13-2.92h122.59c47.3,0,85.65-41.02,85.65-91.63,0-14.56-3.17-28.33-8.83-40.56.38.49.75.98,1.12,1.48.71.96,1.4,1.93,2.07,2.91.37.55.73,1.09,1.09,1.65.31.46.59.92.88,1.39.06.1.13.21.19.31.31.48.59.96.88,1.45.31.52.62,1.04.92,1.57.71,1.26,1.4,2.54,2.05,3.84.28.54.55,1.08.81,1.62.02.05.04.09.06.14.25.52.5,1.04.73,1.57.11.24.22.48.33.72.26.57.51,1.14.75,1.72.3.7.58,1.39.86,2.09.02.04.03.07.05.11.26.66.51,1.33.75,2,.24.65.47,1.31.69,1.97.07.2.14.4.2.6.18.51.35,1.03.5,1.54.03.09.06.18.09.27.22.7.43,1.4.63,2.11.16.56.32,1.13.47,1.7.22.82.43,1.64.62,2.46.08.35.16.71.24,1.07.08.36.16.72.23,1.09.06.31.13.63.19.94.07.35.14.71.21,1.08.07.4.14.81.21,1.21.11.63.22,1.24.3,1.87.11.71.21,1.41.3,2.13,0,.02,0,.02,0,.03.1.75.18,1.53.26,2.29.08.77.15,1.54.21,2.31,0,.02,0,.06,0,.09.06.69.1,1.38.14,2.07,0,.13.02.26.02.39.03.6.06,1.21.06,1.81.03.92.05,1.86.05,2.79Z"/><path class="cls-2" d="M131.51,189.5v77.22c0,22.84-18.53,41.37-41.37,41.37H5.77v-76.81c.63-1.27,1.3-2.52,2.01-3.75,3.51-6.16,7.79-11.81,12.74-16.82,2.41-2.45,4.97-4.75,7.67-6.89.54-.43,1.08-.84,1.64-1.26,0,0,.02,0,.02-.02.36-.26.72-.53,1.08-.79.47-.34.93-.67,1.4-1,.95-.66,1.91-1.29,2.88-1.9.49-.31.98-.61,1.47-.91.5-.31,1-.59,1.49-.88.51-.28,1-.56,1.52-.84.51-.27,1.02-.55,1.53-.81.51-.27,1.03-.53,1.55-.79.43-.22.87-.42,1.32-.62,6.62-3.01,13.84-4.51,21.13-4.51h66.28Z"/><path class="cls-3" d="M268.55,81.04c0,50.61-38.35,91.63-85.65,91.63H60.3c-5.83,0-11.65.93-17.13,2.92-.13.04-.25.09-.38.14-.14.06-.28.1-.43.16-.4.15-.79.31-1.2.47-2.15.86-4.25,1.81-6.31,2.83-.62.31-1.23.63-1.84.96-.16.09-.33.18-.49.26-.61.32-1.2.66-1.8,1-.55.31-1.08.63-1.62.96-.09.05-.18.1-.26.15-.28.17-.55.34-.83.51-.31.19-.61.39-.91.58-.29.18-.58.37-.86.56-1.9,1.27-3.75,2.61-5.52,4.01-.55.43-1.08.87-1.61,1.31-5,4.17-9.5,8.93-13.37,14.17v-43.17c0-18.39,14.91-33.29,33.29-33.29h74.89v28.98l10.08-8.59,7.47-6.37,16.48-14.03,31.08-26.47-31.75-26.46-15.8-13.17-17.55-14.63v27.8H41.38c-2.22,0-4.41-.21-6.53-.61-.24-.05-.49-.1-.73-.14-.28-.06-.57-.12-.85-.19-.26-.06-.52-.12-.78-.19-.26-.06-.52-.14-.78-.21-.14-.04-.27-.08-.4-.12-.18-.05-.35-.1-.53-.16-.46-.14-.91-.29-1.36-.46-.25-.09-.5-.18-.75-.27-.37-.14-.73-.29-1.09-.44-.2-.08-.39-.17-.59-.26-.17-.07-.35-.15-.51-.23-.24-.11-.47-.22-.71-.34-.24-.12-.47-.24-.71-.36-.23-.12-.47-.24-.7-.37-.23-.13-.47-.26-.69-.39-.23-.13-.46-.26-.68-.4-.45-.27-.9-.55-1.33-.84-.44-.29-.87-.59-1.29-.9-.22-.15-.43-.31-.63-.47-.21-.15-.42-.31-.62-.48-.21-.16-.41-.33-.61-.5-.4-.33-.8-.67-1.19-1.03-.19-.18-.39-.35-.58-.54-.3-.28-.59-.56-.87-.85-1.3-1.32-2.5-2.75-3.59-4.26-.16-.22-.31-.43-.46-.66-.15-.22-.31-.43-.45-.66-.14-.22-.29-.45-.43-.67-.26-.42-.51-.84-.75-1.28-.14-.26-.3-.53-.44-.8-.12-.23-.24-.47-.36-.71-.12-.23-.23-.47-.35-.72-.11-.24-.22-.49-.33-.73-.11-.24-.22-.49-.32-.74s-.2-.5-.3-.75c-.79-2.01-1.38-4.09-1.77-6.26-.05-.26-.09-.52-.14-.78-.04-.27-.07-.55-.11-.82-.03-.27-.06-.55-.1-.83-.13-1.24-.19-2.51-.18-3.8v-.22c0-.2,0-.4.02-.6,0-.25.02-.5.03-.75,0-.25.02-.5.05-.74.02-.35.05-.69.09-1.04.02-.23.05-.46.07-.68.02-.17.04-.33.06-.5.03-.25.07-.5.11-.75.18-1.15.42-2.28.71-3.39.14-.51.28-1.01.43-1.52.02-.07.05-.14.07-.22.15-.47.31-.94.48-1.4.02-.07.05-.14.08-.22.09-.23.18-.46.26-.69.67-1.68,1.46-3.3,2.38-4.84.07-.14.16-.28.25-.43,1.45-2.38,3.18-4.58,5.15-6.54.59-.59,1.21-1.16,1.85-1.72.42-.36.85-.72,1.29-1.07.44-.35.89-.68,1.35-1.01.46-.32.92-.63,1.4-.94,1.65-1.07,3.41-1.99,5.24-2.76.52-.22,1.05-.43,1.59-.63.54-.2,1.08-.39,1.62-.55.55-.17,1.1-.33,1.66-.47,2.79-.71,5.72-1.1,8.74-1.1h145.53c.8,0,1.6,0,2.39.03.59.02,1.2.03,1.79.06.05,0,.1,0,.15,0,.31,0,.63.02.94.05.62.03,1.24.07,1.85.12.78.06,1.57.13,2.34.21.75.07,1.52.16,2.26.26.22.02.45.06.67.09.56.07,1.12.15,1.68.24.82.12,1.63.26,2.44.4.6.1,1.2.22,1.79.35.72.14,1.44.29,2.15.46.35.08.7.16,1.05.24,3.3.79,6.53,1.74,9.68,2.87.24.09.48.18.72.26.5.18.99.36,1.48.56.33.12.66.25.99.39.41.16.82.33,1.22.5.37.15.74.31,1.11.47.59.26,1.18.51,1.77.79.46.2.92.41,1.36.63.24.11.49.23.73.35.44.21.87.43,1.31.65.82.41,1.63.84,2.44,1.28.43.22.83.46,1.25.7.39.22.79.45,1.17.67.34.19.67.39,1,.59.61.36,1.21.73,1.81,1.12.36.23.72.47,1.08.7.48.31.96.63,1.43.96.37.25.74.51,1.11.76.23.17.47.33.7.5.13.09.25.18.37.26.34.24.67.48,1,.74.71.53,1.43,1.08,2.13,1.63.35.27.69.55,1.04.83.52.43,1.04.87,1.56,1.3.68.58,1.35,1.16,2.01,1.77.27.24.55.49.81.74.71.65,1.4,1.31,2.08,1.98.29.28.58.57.87.86.31.31.61.62.91.93.24.25.48.5.71.75.66.7,1.3,1.4,1.93,2.12.58.64,1.14,1.3,1.7,1.97.27.33.55.67.83,1,.27.34.55.67.81,1.01.27.35.54.68.8,1.03,5.66,12.22,8.83,26,8.83,40.56Z"/></g></g></svg>